<svg width="200" height="144" viewBox="0 0 200 144" fill="none" xmlns="http://www.w3.org/2000/svg">
<path d="M14.1716 48.5078C14.1716 48.5078 23.3806 34.2795 56.011 36.7018C56.011 36.7018 56.8858 17.7927 60.1337 16.8793C63.3816 15.9658 119.952 7.99364 122.097 8.67678C124.242 9.35992 130.572 24.4232 131.235 25.7768C131.898 27.1305 161.186 18.9201 171.323 26.2542C181.46 33.5882 193.856 43.506 190.172 66.6459C188.629 76.3015 184.26 85.7749 176.658 92.1454C169.056 98.516 159.172 97.644 150.525 102.255C147.081 104.098 143.05 102.406 141.418 106.353C139.786 110.3 142.307 117.895 139.692 121.452C138.771 122.705 137.385 123.545 136 124.258C119.948 132.513 100.424 132.343 82.856 133.355C81.542 133.428 80.1616 133.483 78.9887 132.9C77.3574 132.094 76.5172 130.298 75.6223 128.711C72.8117 123.755 71.8217 118.139 67.4943 116.139C51.3109 108.647 24.5669 118.829 13.7858 100.56C11.5152 96.7185 10.3769 92.326 9.28389 88.0004C7.64229 81.5306 6.0411 74.7452 6.76755 68.0258C7.494 61.3064 11.2461 54.6152 14.1806 48.5067L14.1716 48.5078Z" fill="#F1F2ED"/>
<path d="M54.0788 47.6229C54.0788 47.6229 94.6967 52.1079 115.858 44.3712C137.018 36.6345 168.757 28.7382 172.44 52.9009C176.122 77.0637 162.087 91.2467 137.91 90.7524C113.733 90.258 85.8551 94.5597 74.2435 97.9488C62.6319 101.338 30.0967 106.876 27.2154 88.7655C24.3341 70.6547 20.2709 50.8575 54.0776 47.6139L54.0788 47.6229Z" fill="#EAF7E2"/>
</svg>
