<svg width="183" height="92" viewBox="0 0 183 92" fill="none" xmlns="http://www.w3.org/2000/svg">
<path d="M82.7182 70.3291C78.56 70.7888 72.5376 71.3694 65.6013 71.7565C65.6013 71.7565 65.5973 71.7585 65.5892 71.7626H65.5771C65.0263 71.8956 64.4695 72.0287 63.9005 72.1617C53.5929 74.6052 41.9537 73.3956 32.2392 71.321H32.2211C31.2526 71.1154 30.3084 70.8977 29.3824 70.6799C28.535 70.4743 27.7058 70.2687 26.8947 70.063C17.6887 67.6619 11.2426 64.9039 11.2426 64.9039C11.2426 64.9039 7.27817 62.7991 4.05817 58.8738C0.160271 54.1139 -2.64815 46.6867 3.97948 37.0821C14.275 22.1551 57.3213 22.9414 69.935 23.5099C65.0687 33.1931 60.3537 56.0433 82.7182 70.3291Z" fill="#2A261B"/>
<path d="M32.221 71.3208C31.2163 71.218 30.2781 70.9821 29.3823 70.6797C30.3084 70.8974 31.2526 71.1152 32.221 71.3208Z" fill="#002073"/>
<path d="M99.8531 77.8952C95.4589 80.5383 85.0968 83.8648 77.2162 86.6773C68.7426 89.7014 39.6899 90.3062 19.111 84.258C-1.46797 78.2098 2.76887 58.8555 2.76887 58.8555L4.05809 58.8736C7.27809 62.7989 11.2426 64.9037 11.2426 64.9037C11.2426 64.9037 17.6886 67.6617 26.8947 70.0628C33.6252 72.8147 46.7231 77.2118 61.3523 76.8912C61.5399 76.8912 61.7336 76.8852 61.9213 76.8791C62.5023 76.861 63.0773 76.8368 63.6584 76.8005C63.9126 76.7884 64.1728 76.7703 64.427 76.7521C66.2368 76.6312 68.0647 76.4316 69.8986 76.1413C70.1589 76.105 70.4191 76.0566 70.6854 76.0142C71.7447 75.8328 72.8039 75.6211 73.8691 75.3792C74.2868 75.2824 74.7044 75.1856 75.1281 75.0768C78.1181 74.3208 81.1141 73.2986 84.0678 71.968C84.316 71.8591 84.5641 71.7442 84.8123 71.6293C84.8244 71.6232 84.8365 71.6172 84.8486 71.6111C84.9757 71.5507 85.1089 71.4902 85.236 71.4297C85.5084 71.2966 85.7868 71.1636 86.0591 71.0245C86.6402 70.7402 87.2152 70.4378 87.7902 70.1172H87.7962C89.4305 71.6051 91.1555 72.9115 92.9531 73.976C93.7641 74.4538 94.5933 74.9377 95.4468 75.4276C95.7857 75.6211 96.1307 75.8147 96.4757 76.0082C96.8812 76.238 97.2868 76.4679 97.6983 76.6977C97.9707 76.855 98.2491 77.0062 98.5276 77.1634C98.7999 77.3086 99.0723 77.4598 99.3447 77.617H99.3507C99.3507 77.617 99.3568 77.6231 99.3628 77.6231C99.5262 77.7138 99.6897 77.8045 99.8531 77.8952Z" fill="#2A261B"/>
<path d="M87.7903 70.1171C87.2153 70.4377 86.6403 70.7401 86.0592 71.0243C85.7869 71.1634 85.5085 71.2965 85.2361 71.4296C85.109 71.49 84.9758 71.5505 84.8487 71.611C84.8366 71.6171 84.8245 71.6231 84.8124 71.6291C84.5642 71.7441 84.3161 71.859 84.0679 71.9679C81.1143 73.2985 78.1182 74.3206 75.1282 75.0766C74.7045 75.1795 74.2869 75.2823 73.8693 75.379C72.804 75.621 71.7448 75.8327 70.6856 76.0141C70.4192 76.0564 70.159 76.1048 69.8987 76.1411C68.0648 76.4314 66.2369 76.631 64.4271 76.752C64.1729 76.7701 63.9127 76.7883 63.6585 76.8004C63.0774 76.8367 62.5024 76.8609 61.9214 76.879C61.7337 76.8851 61.54 76.8911 61.3524 76.8911C46.7232 77.2117 33.6253 72.8146 26.8948 70.0627C27.7058 70.2683 28.535 70.4739 29.3824 70.6796C30.2782 70.982 31.2164 71.2179 32.2211 71.3207H32.2393C41.9537 73.3952 53.5929 74.6049 63.9006 72.1614C64.4695 72.0283 65.0263 71.8953 65.5771 71.7622H65.5893C65.5893 71.7622 65.5953 71.7622 65.6014 71.7562C72.5377 71.3691 78.56 70.7885 82.7182 70.3288C84.77 70.099 86.3679 69.8933 87.4029 69.7603H87.409C87.5361 69.8873 87.6571 70.0022 87.7903 70.1171Z" fill="#C1BFB9"/>
<path d="M88.7103 48.8941C88.6498 48.8034 88.5953 48.7248 88.5469 48.6461C88.2624 48.2046 88.1172 47.9688 88.1172 47.9688C88.1414 47.9929 88.1656 48.0171 88.1959 48.0413L88.5772 48.6643L88.7164 48.8941H88.7103Z" fill="#002073"/>
<path d="M145.006 78.8146C111.25 79.8549 92.233 54.1379 88.7103 48.8941C88.6498 48.8034 88.5953 48.7248 88.5469 48.6461C88.2624 48.2046 88.1172 47.9688 88.1172 47.9688C88.1414 47.9929 88.1656 48.0171 88.1959 48.0413L88.5772 48.6643C92.6809 51.9848 97.4019 55.4322 100.828 58.8555C106.499 64.5227 129.759 72.833 141.756 77.4115C143.814 78.3126 145.012 78.8146 145.012 78.8146H145.006Z" fill="#002073"/>
<path d="M173.072 73.8794C172.212 76.2201 169.918 81.7421 166.19 85.4678C161.348 90.3063 151.058 91.516 138.348 91.516C127.701 91.516 112.376 84.7238 99.853 77.8954C99.6896 77.8047 99.5262 77.714 99.3628 77.6232C99.3628 77.6232 99.3588 77.6212 99.3507 77.6172H99.3446C99.0723 77.4599 98.7999 77.3087 98.5275 77.1636C98.2491 77.0063 97.9707 76.8551 97.6983 76.6979C97.2867 76.468 96.8812 76.2382 96.4757 76.0084C96.1307 75.8148 95.7857 75.6213 95.4467 75.4277C94.5933 74.9378 93.7641 74.454 92.9531 73.9762C91.1554 72.9117 89.4304 71.6053 87.7962 70.1174H87.7902C87.657 70.0025 87.5359 69.8876 87.4088 69.7606H87.4028C86.3194 68.7566 85.2844 67.6739 84.2796 66.5369C82.4638 64.4684 80.7751 62.2063 79.2317 59.8657C78.9109 59.3818 78.5962 58.8919 78.2936 58.402C78.2573 58.3476 78.227 58.2931 78.1907 58.2387C77.9183 57.8032 77.652 57.3617 77.3917 56.9202C77.3131 56.7932 77.2404 56.6662 77.1617 56.5331C77.0831 56.4061 77.0104 56.2791 76.9378 56.1521C76.1146 54.7368 75.346 53.3155 74.6317 51.9062C74.1778 50.999 73.742 50.1039 73.3244 49.2148C73.3062 49.1785 73.2941 49.1482 73.282 49.118C73.0702 48.6644 72.8644 48.2108 72.6646 47.7572C71.8778 45.9911 71.1938 44.2855 70.6188 42.7069C70.5341 42.4771 70.4554 42.2593 70.3767 42.0355C70.2375 41.6424 70.1104 41.2614 69.9833 40.8864C69.9228 40.6989 69.8562 40.5114 69.8017 40.3299C69.6867 39.9671 69.5778 39.6102 69.4749 39.2655C69.1602 38.2312 68.9181 37.2937 68.7425 36.4772C67.5623 30.9794 69.9591 26.2437 71.7809 23.6006C72.0412 23.6127 72.2712 23.6248 72.4709 23.6369C72.6041 23.6429 72.7252 23.655 72.8281 23.6611C72.9915 23.8183 73.2699 24.0905 73.6573 24.4836H73.6633C73.742 24.7316 73.8207 24.9796 73.9054 25.2276C73.9357 25.3243 73.9659 25.415 74.0023 25.5118C74.087 25.7477 74.1717 25.9896 74.2625 26.2316C74.5288 26.9634 74.8194 27.7013 75.128 28.4452C75.1401 28.4754 75.1523 28.5117 75.1704 28.542C75.4488 29.2194 75.7394 29.9028 76.0359 30.5742C77.5612 34.0519 79.2438 37.4389 80.2183 39.7554C80.2788 39.8945 80.3394 40.0336 80.412 40.1727C80.4665 40.2937 80.533 40.4146 80.5996 40.5356C80.642 40.6142 80.6844 40.6868 80.7267 40.7594C80.7933 40.8743 80.8659 40.9892 80.9386 41.1041C81.0294 41.2493 81.1323 41.4005 81.2352 41.5456C82.0099 42.6585 83.0631 43.8016 84.2917 44.9689C84.4915 45.1625 84.6973 45.356 84.9091 45.5435C85.3267 45.9245 85.7625 46.3116 86.2165 46.6987C86.4404 46.8983 86.6704 47.0918 86.9004 47.2854C87.4331 47.739 87.9838 48.1866 88.5407 48.6402C88.5891 48.7249 88.6436 48.8035 88.7041 48.8942C92.2267 54.138 111.244 79.855 145 78.8147C145 78.8147 143.801 78.3127 141.743 77.4116C143.825 78.2039 145.563 78.8813 146.815 79.4196C155.289 83.0485 166.789 76.3955 172.842 73.9762C172.914 73.9459 172.993 73.9157 173.066 73.8794H173.072Z" fill="#2A261B"/>
<path d="M73.6089 24.3264C73.6271 24.3809 73.6452 24.4293 73.6573 24.4837C73.27 24.0906 72.9915 23.8184 72.8281 23.6611C73.161 23.6793 73.3668 23.6914 73.4152 23.6974C73.4515 23.8244 73.4939 23.9575 73.5363 24.0906C73.5605 24.1692 73.5847 24.2478 73.6089 24.3264Z" fill="#2A261B"/>
<path d="M75.1282 28.4451C74.8195 27.7012 74.529 26.9633 74.2627 26.2314C74.5351 26.9572 74.8256 27.7012 75.1282 28.4451Z" fill="#2A261B"/>
<path d="M73.4152 23.6971C73.3668 23.6911 73.161 23.679 72.8281 23.6608C72.7252 23.6548 72.6042 23.6427 72.471 23.6367C72.2713 23.6246 72.0413 23.6125 71.781 23.6004C71.8052 23.5641 71.8294 23.5278 71.8537 23.4975C72.2834 22.8806 72.6768 22.3907 72.9855 22.0278C73.0944 22.5601 73.2397 23.1226 73.4152 23.6971Z" fill="#2A261B"/>
<path d="M145.006 78.8146C111.25 79.8549 92.233 54.1379 88.7103 48.8941C88.6498 48.8034 88.5953 48.7248 88.5469 48.6461C88.2624 48.2046 88.1172 47.9688 88.1172 47.9688C88.1414 47.9929 88.1656 48.0171 88.1959 48.0413L88.5772 48.6643C92.6809 51.9848 97.4019 55.4322 100.828 58.8555C106.499 64.5227 129.759 72.833 141.756 77.4115C143.814 78.3126 145.012 78.8146 145.012 78.8146H145.006Z" fill="#C1BFB9"/>
<path d="M88.5711 48.6643C88.5711 48.6643 88.553 48.6522 88.5469 48.6461C88.2624 48.2046 88.1172 47.9688 88.1172 47.9688C88.1414 47.9929 88.1656 48.0171 88.1959 48.0413L88.5772 48.6643H88.5711Z" fill="#002073"/>
<path d="M182.03 57.5491H182.024C135.213 76.7461 86.392 29.3463 73.7178 15.7862C76.163 10.2944 85.5265 -4.59631 113.532 1.39747C152.003 9.63514 181.576 42.991 182.532 51.5976C182.695 53.0613 182.508 55.1842 182.03 57.5491Z" fill="#44372B"/>
<path d="M75.1282 28.4451C74.8195 27.7012 74.529 26.9633 74.2627 26.2314C74.5351 26.9572 74.8256 27.7012 75.1282 28.4451Z" fill="#44372B"/>
<path d="M76.9378 56.1521C75.0797 57.023 72.9431 57.7367 70.6007 58.3476C60.9589 60.8637 28.1899 57.0412 20.3215 55.8315C12.4591 54.6219 -3.26562 46.7653 6.21886 34.5237C6.21886 34.5237 6.22491 34.5116 6.23097 34.5055C7.99833 32.2375 11.3818 30.429 15.7457 28.9956C15.7518 28.9956 15.7578 28.9896 15.7639 28.9896C31.3433 23.8546 59.2278 23.4494 69.0936 23.4736H69.1602C70.3404 23.4796 71.2544 23.4857 71.8536 23.4978C72.3862 23.5038 72.6707 23.5099 72.6707 23.5099C72.6707 23.5099 72.7252 23.5583 72.8281 23.6611C72.7252 23.655 72.6041 23.643 72.471 23.6369C72.2712 23.6248 72.0412 23.6127 71.781 23.6006C69.9591 26.2437 67.5623 30.9794 68.7425 36.4773C68.9181 37.2938 69.1602 38.2312 69.4749 39.2655C69.5778 39.6102 69.6868 39.9671 69.8018 40.33C69.8562 40.5114 69.9228 40.6989 69.9833 40.8864C70.1104 41.2614 70.2375 41.6424 70.3768 42.0356C70.4554 42.2594 70.5341 42.4771 70.6189 42.7069C71.1939 44.2855 71.8778 45.9911 72.6647 47.7572C72.8644 48.2108 73.0702 48.6644 73.282 49.118C73.2941 49.1483 73.3062 49.1785 73.3244 49.2148C73.742 50.1039 74.1778 50.999 74.6318 51.9062C75.346 53.3155 76.1147 54.7368 76.9378 56.1521Z" fill="#44372B"/>
<path d="M87.4028 69.7605C86.3678 69.8935 84.7699 70.0992 82.718 70.329C77.1254 66.7605 73.2275 62.6538 70.6007 58.3475C62.7201 45.4406 66.2851 30.7737 69.9349 23.5098C70.6551 23.54 71.2725 23.5702 71.7809 23.6005C69.9591 26.2436 67.5622 30.9793 68.7425 36.4771C68.918 37.2936 69.1601 38.2311 69.4749 39.2654C69.5717 39.6101 69.6807 39.9609 69.8017 40.3298C69.8562 40.5113 69.9228 40.6988 69.9833 40.8863C70.1043 41.2613 70.2375 41.6423 70.3767 42.0354C70.4554 42.2532 70.5341 42.477 70.6188 42.7068C71.1938 44.2854 71.8778 45.991 72.6646 47.7571C72.8644 48.2046 73.0641 48.6582 73.282 49.1179C73.2941 49.1481 73.3062 49.1784 73.3244 49.2147C73.7359 50.0977 74.1717 50.9989 74.6317 51.9061C75.3459 53.3154 76.1146 54.7367 76.9378 56.152C77.0104 56.279 77.083 56.406 77.1617 56.533C77.2344 56.66 77.313 56.7931 77.3917 56.9201C77.652 57.3616 77.9183 57.8031 78.1907 58.2386C78.227 58.293 78.2572 58.3475 78.2936 58.4019C78.5962 58.8918 78.9109 59.3817 79.2317 59.8656C80.7751 62.2062 82.4638 64.4683 84.2796 66.5368C85.2844 67.6738 86.3193 68.7565 87.4028 69.7605Z" fill="#16130C"/>
<path d="M182.03 57.549C180.753 63.8634 177.387 71.9317 173.072 73.8792C172.999 73.9155 172.921 73.9458 172.848 73.976C166.795 76.3953 155.295 83.0483 146.822 79.4194C145.569 78.8811 143.832 78.2037 141.75 77.4114C129.753 72.8329 106.493 64.5226 100.822 58.8555C97.3959 55.4322 92.6748 51.9847 88.5712 48.6642L88.1898 48.0413C88.1898 48.0413 88.1354 47.9929 88.1112 47.9687C88.1112 47.9687 88.2564 48.2046 88.5409 48.64C87.984 48.1864 87.4333 47.7388 86.9006 47.2852C86.6706 47.0917 86.4406 46.8981 86.2167 46.6986C85.7627 46.3115 85.3269 45.9244 84.9093 45.5434C84.6975 45.3559 84.4917 45.1623 84.2919 44.9688C83.0633 43.8015 82.0101 42.6584 81.2354 41.5455C81.1325 41.4003 81.0296 41.2491 80.9388 41.104C80.8661 40.989 80.7935 40.8741 80.7269 40.7592C80.6846 40.6866 80.6422 40.6141 80.5998 40.5354C80.5333 40.4145 80.4667 40.2935 80.4122 40.1725C80.3396 40.0334 80.279 39.8943 80.2185 39.7552C79.244 37.4387 77.5614 34.0517 76.0361 30.574C75.7396 29.9027 75.449 29.2192 75.1706 28.5418C75.1525 28.5116 75.1404 28.4753 75.1282 28.445C74.8256 27.7011 74.5351 26.9572 74.2627 26.2314C74.1719 25.9895 74.0872 25.7475 74.0025 25.5117C73.9662 25.4149 73.9359 25.3242 73.9056 25.2274C73.8209 24.9794 73.7422 24.7314 73.6635 24.4895H73.6575C73.6454 24.429 73.6272 24.3806 73.6091 24.3262C73.5848 24.2476 73.5606 24.169 73.5364 24.0903C73.4941 23.9573 73.4517 23.8242 73.4154 23.6972C73.2398 23.1226 73.0946 22.5601 72.9856 22.0279C72.7798 21.0783 72.6648 20.2013 72.6709 19.4393C72.6769 18.78 72.7738 18.2054 72.9796 17.7276C72.9796 17.7276 73.1854 16.9776 73.718 15.7861C86.3922 29.3462 135.213 76.7461 182.024 57.5551H182.03V57.549Z" fill="#2A261B"/>
<path d="M75.1282 28.4451C74.8195 27.7012 74.529 26.9633 74.2627 26.2314C74.5351 26.9572 74.8256 27.7012 75.1282 28.4451Z" fill="#2A261B"/>
<path d="M73.4152 23.6971C73.3668 23.6911 73.161 23.679 72.8281 23.6608C72.7252 23.6548 72.6042 23.6427 72.471 23.6367C72.2713 23.6246 72.0413 23.6125 71.781 23.6004C71.8052 23.5641 71.8294 23.5278 71.8537 23.4975C72.2834 22.8806 72.6768 22.3907 72.9855 22.0278C73.0944 22.5601 73.2397 23.1226 73.4152 23.6971Z" fill="#2A261B"/>
<path d="M99.3447 77.617C93.6492 75.9477 88.8676 73.9094 84.8486 71.6111C84.9757 71.5506 85.1089 71.4901 85.236 71.4296C85.5084 71.2966 85.7868 71.1635 86.0592 71.0244C86.6402 70.7402 87.2152 70.4377 87.7902 70.1172H87.7963C89.4305 71.605 91.1555 72.9115 92.9531 73.976C93.7642 74.4538 94.5934 74.9376 95.4468 75.4275C95.7857 75.6211 96.1308 75.8146 96.4758 76.0082C96.8813 76.238 97.2868 76.4678 97.6984 76.6976C97.9707 76.8549 98.2492 77.0061 98.5276 77.1634C98.8 77.3085 99.0723 77.4597 99.3447 77.617Z" fill="#16130C"/>
</svg>
