<svg width="224" height="137" viewBox="0 0 224 137" fill="none" xmlns="http://www.w3.org/2000/svg">
<g clip-path="url(#clip0_252_1182)">
<path d="M165.56 91.4001C159.05 96.2901 152.33 101.12 145.83 105.79C136.47 112.52 126.78 119.47 117.59 126.74L117.15 127.09C112.03 131.14 106.73 135.33 100.31 136.47C98.97 136.71 97.61 136.81 96.27 136.81C93.36 136.81 90.46 136.36 87.63 135.92C76.08 134.13 64.36 132.18 53.03 130.31C45 128.98 36.69 127.6 28.51 126.29C19.36 124.82 3.59001 120.56 0.760007 108.52C-1.11999 100.53 0.940007 95.8401 2.58001 92.0801C3.06001 90.9801 3.51001 89.9501 3.79001 88.9801C5.02001 84.6901 24.39 71.5701 25.21 71.0101L25.34 70.9601L171.93 48.8101L172.03 49.0201C172.07 49.1201 176.15 58.3601 169.64 62.3201C170.55 62.8101 172.21 64.2701 175.14 68.3001C182.08 77.8301 169.57 88.3901 165.58 91.4001H165.56Z" fill="#31C79C"/>
<path d="M175.13 68.3098C172.2 64.2798 170.54 62.8198 169.63 62.3298C176.14 58.3698 172.06 49.1298 172.02 49.0298L171.92 48.8198L25.33 70.9698L25.2 71.0198C24.38 71.5798 5.01001 84.6998 3.78001 88.9898C3.50001 89.9698 3.05001 90.9898 2.57001 92.0898C0.920013 95.8498 -1.12999 100.54 0.750013 108.53C3.58001 120.57 19.36 124.83 28.5 126.3C36.68 127.61 44.99 128.98 53.02 130.32C64.35 132.19 76.07 134.14 87.62 135.93C90.45 136.37 93.36 136.82 96.26 136.82C97.6 136.82 98.96 136.72 100.3 136.48C106.72 135.34 112.02 131.15 117.14 127.1L117.58 126.75C126.77 119.48 136.46 112.53 145.82 105.8C152.32 101.13 159.04 96.2998 165.55 91.4098C169.55 88.4098 182.06 77.8498 175.11 68.3098H175.13ZM165.2 90.9198C158.7 95.8098 151.98 100.64 145.48 105.31C136.11 112.04 126.42 119 117.21 126.28L116.77 126.63C111.71 130.64 106.47 134.78 100.2 135.9C96.05 136.64 91.82 135.98 87.72 135.34C76.18 133.55 64.45 131.61 53.13 129.73C45.09 128.4 36.78 127.02 28.6 125.71C19.6 124.26 4.09001 120.1 1.34001 108.4C-0.499987 100.6 1.52001 96.0298 3.13001 92.3398C3.61001 91.2298 4.07001 90.1798 4.37001 89.1698C5.51001 85.1898 24.32 72.3698 25.5 71.5698L171.56 49.4898C172.16 50.9298 175.13 58.9498 168.7 62.1598L168.64 62.1998C168.64 62.1998 164.98 65.2498 161.4 67.6298C158.15 69.7998 128.1 91.2298 126.83 92.5098C125.42 93.9198 105.27 108.8 104 109.37C89.8 107.78 30.15 97.9698 29.57 97.8698C26.03 97.2798 19.9 96.6498 18.62 96.6498C17.1 96.6498 15.89 96.9798 15.29 101.15C14.79 104.71 14.84 108.53 19.13 109.96C22.73 111.17 45.76 114.82 47.7 114.82C48.49 114.82 53.7 115.8 59.21 116.83C66.09 118.12 73.89 119.58 75.57 119.61C78.53 119.66 92.94 121.8 93.08 121.82L93.16 121.22C92.57 121.13 78.57 119.06 75.58 119C73.95 118.98 66.17 117.52 59.32 116.23C53.54 115.15 48.54 114.21 47.7 114.21C45.78 114.21 22.9 110.58 19.33 109.38C16.25 108.35 15.23 105.92 15.9 101.23C16.46 97.2498 17.52 97.2498 18.63 97.2498C19.74 97.2498 25.74 97.8298 29.48 98.4598C30.06 98.5598 89.89 108.41 104 109.97C104.17 109.99 104.55 110.02 115.49 101.91C120.77 97.9998 126.62 93.5598 127.26 92.9198C128.38 91.7998 157.49 70.9598 161.74 68.1298C165.07 65.9098 168.44 63.1498 168.96 62.7098C169.2 62.7398 170.66 63.1698 174.65 68.6498C181.26 77.7398 169.09 87.9898 165.21 90.9098L165.2 90.9198Z" fill="#125B45"/>
<path d="M167.19 54.79C164.76 56.61 158.89 58.97 158.64 59.07C157.48 59.54 155.51 60.09 153.42 60.68C149.94 61.67 145.99 62.79 144.14 63.9C141.92 65.23 135.71 67.15 130.24 68.84C128.17 69.48 126.22 70.09 124.7 70.59C121.97 71.5 118.44 72.73 115.01 73.92C111.59 75.11 108.04 76.34 105.32 77.25C103.73 77.78 102.47 78.12 101.25 78.44C98.25 79.23 95.14 80.05 86.57 83.91C81.92 86 78.29 86.67 75.31 86.67C72.33 86.67 70.03 86.02 67.96 85.43C66.6 85.05 65.31 84.68 64 84.54C59.4 84.03 40.4 77.15 33.25 74.56C31.86 74.06 30.92 73.72 30.63 73.62C23.08 71.11 17.52 67.26 14.18 64.48C7.76999 59.14 8.29999 48.74 8.54999 43.75C8.58999 42.98 8.61999 42.32 8.61999 41.84C8.61999 38.64 12.63 35.03 14.56 33.29C14.91 32.98 15.19 32.72 15.38 32.54C16.08 31.84 20.47 30.13 26.61 27.8C29.58 26.67 32.65 25.5 32.95 25.26C33.77 24.44 70.3 12.55 70.64 12.46C71.82 12.17 79.58 9.52999 87.79 6.74999C96.16 3.89999 104.82 0.969989 106.97 0.349989C110.16 -0.560011 114.61 0.509989 117.27 1.15999C118.14 1.36999 118.89 1.54999 119.17 1.54999C120.4 1.54999 145.49 10.27 148.34 11.26C148.82 11.45 149.62 11.73 150.62 12.08C156.33 14.07 168.22 18.21 170.32 22.93C171.84 26.36 170.42 29.51 166.3 31.89C168.3 32.33 169.98 35.5 171.55 41.76C172.93 47.3 171.51 51.56 167.19 54.79Z" fill="#8BC5D1"/>
<path d="M171.55 41.7598C169.98 35.4998 168.3 32.3398 166.3 31.8898C170.42 29.5198 171.84 26.3598 170.32 22.9298C168.22 18.2098 156.33 14.0698 150.62 12.0798C149.61 11.7298 148.81 11.4498 148.34 11.2598C145.49 10.2698 120.4 1.54981 119.17 1.54981C118.89 1.54981 118.13 1.36981 117.27 1.15981C114.61 0.519805 110.17 -0.560195 106.97 0.349805C104.82 0.969805 96.16 3.89981 87.79 6.74981C79.58 9.53981 71.82 12.1698 70.64 12.4598C70.31 12.5398 33.78 24.4298 32.95 25.2598C32.65 25.4998 29.58 26.6698 26.61 27.7998C20.47 30.1298 16.08 31.8298 15.38 32.5398C15.19 32.7198 14.91 32.9798 14.56 33.2898C12.63 35.0198 8.61999 38.6298 8.61999 41.8398C8.61999 42.3198 8.58999 42.9798 8.54999 43.7498C8.29999 48.7498 7.76999 59.1498 14.18 64.4798C17.52 67.2598 23.08 71.1098 30.63 73.6198C30.93 73.7198 31.87 74.0598 33.25 74.5598C40.4 77.1498 59.4 84.0198 64 84.5398C65.31 84.6898 66.6 85.0498 67.96 85.4298C70.04 86.0198 72.36 86.6698 75.31 86.6698C78.26 86.6698 81.92 85.9998 86.57 83.9098C95.13 80.0498 98.24 79.2298 101.25 78.4398C102.47 78.1198 103.73 77.7898 105.32 77.2498C108.05 76.3398 111.59 75.1098 115.01 73.9198C118.44 72.7298 121.98 71.4998 124.7 70.5898C126.22 70.0898 128.17 69.4798 130.24 68.8398C135.72 67.1498 141.92 65.2298 144.14 63.8998C145.99 62.7898 149.94 61.6698 153.42 60.6798C155.5 60.0898 157.47 59.5398 158.64 59.0698C158.89 58.9698 164.76 56.6198 167.19 54.7898C171.5 51.5598 172.93 47.2898 171.55 41.7598ZM166.83 54.3098C164.47 56.0798 158.48 58.4898 158.42 58.5098C157.29 58.9598 155.34 59.5098 153.27 60.0998C149.75 61.0998 145.76 62.2298 143.84 63.3798C141.69 64.6698 135.52 66.5798 130.08 68.2598C128 68.8998 126.05 69.5098 124.52 70.0198C121.79 70.9298 118.25 72.1598 114.83 73.3498C111.4 74.5398 107.86 75.7698 105.14 76.6798C103.57 77.1998 102.37 77.5198 101.11 77.8498C98.08 78.6498 94.96 79.4698 86.34 83.3498C77.3 87.4298 72.43 86.0498 68.15 84.8498C66.76 84.4598 65.45 84.0898 64.09 83.9398C59.56 83.4398 40.61 76.5798 33.47 73.9898C32.08 73.4898 31.13 73.1498 30.84 73.0498C23.37 70.5598 17.88 66.7598 14.58 64.0198C8.40999 58.8698 8.91999 48.6798 9.15999 43.7798C9.19999 42.9998 9.22999 42.3398 9.22999 41.8398C9.22999 38.8998 13.1 35.4198 14.96 33.7498C15.32 33.4198 15.61 33.1598 15.8 32.9698C16.47 32.3098 22.45 30.0298 26.82 28.3698C31.36 26.6498 33.1 25.9698 33.34 25.7198C34.47 24.9498 68.63 13.5898 70.77 13.0598C71.98 12.7598 79.75 10.1198 87.97 7.31981C96.33 4.48981 104.98 1.54981 107.12 0.939805C107.94 0.699805 108.86 0.609805 109.81 0.609805C112.38 0.609805 115.21 1.28981 117.1 1.74981C118.08 1.98981 118.79 2.15981 119.15 2.15981C120.09 2.18981 136.99 7.95981 148.11 11.8298C148.59 12.0198 149.39 12.2998 150.41 12.6498C155.61 14.4598 167.76 18.6898 169.76 23.1798C171.76 27.6898 167.68 30.5598 165.06 31.8698C164.93 31.9398 163.99 32.2598 162.4 32.8098C146.99 37.6598 84.49 59.0398 75.66 62.0698C75.59 62.0898 75.52 62.1098 75.46 62.1398L75.56 62.4198L75.66 62.6998C78.97 61.5898 148.76 38.1598 162.88 33.2798C164.58 32.7498 165.61 32.4398 165.81 32.4298C167.69 32.4298 169.38 35.5298 170.96 41.8898C172.28 47.1698 170.93 51.2198 166.84 54.2898L166.83 54.3098Z" fill="#1D6B75"/>
<path d="M67.27 73.3097C52 67.7397 22.86 57.1497 21.91 56.9697C21.37 56.9697 17.94 54.0197 17.1 50.9097C16.64 49.2097 16.76 46.7797 19.98 44.8997C25.18 41.8697 47.9 51.6097 62.93 58.0497C68.28 60.3497 73.33 62.5297 73.96 62.4297C75.46 61.9297 75.68 61.9797 75.83 62.2097L75.96 62.4097L75.78 62.6297L75.35 62.1997L75.56 62.4097L75.29 62.4697C75.34 62.5897 75.44 62.6297 75.48 62.6397C75.44 62.6397 75.21 62.6397 74.13 62.9997C73.52 63.1997 70.84 62.0897 62.68 58.5897C48.67 52.5797 25.21 42.5297 20.27 45.3997C18.24 46.5797 17.32 48.1097 17.52 49.9397C17.87 53.0997 21.48 56.1897 21.98 56.3497C22.56 56.3497 56.94 68.8797 67.47 72.7197L67.26 73.2897L67.27 73.3097Z" fill="#1D6B75"/>
</g>
<defs>
<clipPath id="clip0_252_1182">
<rect width="223.95" height="136.82" fill="white"/>
</clipPath>
</defs>
</svg>
