<svg width="96" height="131" viewBox="0 0 96 131" fill="none" xmlns="http://www.w3.org/2000/svg">
<g clip-path="url(#clip0_256_1268)">
<path d="M85.8902 7.00295C86.1243 10.2809 68.8058 14.1955 47.1971 15.739C26.8758 17.1906 10.0008 16.027 7.88438 13.1522C7.88438 13.1522 42.7407 2.12217 85.8902 7.00295Z" fill="#E4F0F7"/>
<path d="M85.8901 7.00298C42.7406 2.1222 7.88433 13.1523 7.88433 13.1523C7.74215 12.9733 7.66929 12.7894 7.65514 12.5913C7.421 9.31337 24.7395 5.39876 46.3482 3.85525C67.9569 2.31174 85.656 3.72503 85.8901 7.00298Z" fill="#BAD2DD"/>
<path d="M8.58453 13.7591C8.58453 13.7591 16.9315 44.7758 18.8414 57.5792C20.7514 70.3825 28.5325 109.641 28.7447 112.612C28.9569 115.583 57.3224 122.516 69.7721 115.654C82.2218 108.793 82.0096 105.822 81.9388 104.831C81.8681 103.841 80.8069 33.2456 82.2924 26.1719C83.7779 19.0982 84.991 8.21177 85.941 7.57656" fill="#E4F0F7"/>
<path d="M8.58453 13.7591C8.58453 13.7591 16.9315 44.7758 18.8414 57.5792C20.7514 70.3825 28.5325 109.641 28.7447 112.612C28.9569 115.583 57.3224 122.516 69.7721 115.654C82.2218 108.793 82.0096 105.822 81.9388 104.831C81.8681 103.841 80.8069 33.2456 82.2924 26.1719C83.7779 19.0982 84.991 8.21177 85.941 7.57656" stroke="#BAD2DD" stroke-width="0.75" stroke-miterlimit="10"/>
<path d="M47.1971 15.739C68.8011 14.1959 86.1245 10.2846 85.8901 7.00298C85.6557 3.72136 67.9522 2.31207 46.3482 3.85525C24.7442 5.39842 7.42074 9.30969 7.65514 12.5913C7.88955 15.8729 25.5931 17.2822 47.1971 15.739Z" stroke="#BAD2DD" stroke-width="2" stroke-miterlimit="10"/>
</g>
<defs>
<clipPath id="clip0_256_1268">
<rect width="86.6054" height="124.75" fill="white" transform="translate(0 6.17041) rotate(-4.0857)"/>
</clipPath>
</defs>
</svg>
