<svg width="80" height="164" viewBox="0 0 80 164" fill="none" xmlns="http://www.w3.org/2000/svg">
<path d="M60.5314 117.607C59.9889 120.279 59.5279 122.963 59.345 125.702C59.2168 127.611 59.2964 129.167 58.3567 130.93C57.6689 132.227 56.8054 133.45 56.3927 134.854C55.274 138.648 56.9135 142.518 55.6182 146.372C54.3037 150.281 52.0188 153.57 48.9487 156.321C37.5892 166.494 7.07638 152.745 6.54728 149.532C6.01818 146.319 2.82334 136.945 2.82334 136.945L4.21426 128.257C5.5303 120.037 8.07173 112.05 9.30617 103.786C10.06 98.7186 10.4264 93.5948 11.3075 88.5482C12.6587 80.7927 15.1566 73.273 17.0363 65.6386C17.8392 62.3834 18.6454 59.1079 19.1608 55.7911C19.2829 55.0286 20.05 51.9971 19.1214 51.4417C16.7406 50.0178 17.3917 45.9511 18.3074 43.4908C19.1681 41.1781 36.2635 21.152 38.8373 18.0135C38.9995 17.8153 39.1037 17.686 39.144 17.6299C39.7408 16.8026 39.3499 13.0852 39.3678 12.9733C39.3737 12.9691 39.9233 12.4366 39.9579 12.5464C40.3038 13.6446 61.3239 15.9672 61.3239 15.9672L61.0109 17.2049L60.6211 18.7275C60.1694 20.506 60.3324 22.3882 61.0861 24.0678C63.7313 29.9344 70.1207 44.0908 72.2216 48.6972C74.8973 54.5688 69.0569 58.9152 69.0569 58.9152C69.0188 59.1855 68.9765 59.4498 68.9385 59.72C67.7209 67.9766 66.797 76.3218 65.3428 84.5248C64.0983 91.5153 63.7025 98.6156 62.8149 105.658C62.311 109.686 61.3355 113.628 60.5322 117.602L60.5314 117.607Z" fill="#E1EBF5"/>
<path d="M56.3928 134.854C55.2741 138.648 56.9137 142.518 55.6183 146.372C54.3039 150.281 52.019 153.57 48.9488 156.321C37.5893 166.494 7.07653 152.745 6.54742 149.532C6.01832 146.319 2.82348 136.945 2.82348 136.945L4.2144 128.257C22.6568 136.903 60.5323 117.602 60.5323 117.602C59.9891 120.279 59.528 122.963 59.3451 125.702C59.2169 127.611 59.2965 129.167 58.3568 130.93C57.6691 132.227 56.8055 133.45 56.3928 134.854Z" fill="#BCD1E2"/>
<path d="M61.3241 15.9674L61.0111 17.205C59.6596 18.412 57.8872 19.1189 55.991 19.1333L41.8377 19.2187C40.652 19.227 39.5996 18.7613 38.8375 18.0137C38.9997 17.8154 39.1039 17.6861 39.1442 17.63C39.741 16.8027 39.35 13.0853 39.3679 12.9735C39.3738 12.9692 39.9234 12.4368 39.958 12.5466C40.304 13.6447 61.3241 15.9674 61.3241 15.9674Z" fill="#BCD1E2"/>
<path d="M39.8157 3.65997C39.8157 3.65997 60.6526 3.8678 63.6439 7.99633C63.6439 7.99633 63.5691 14.9812 62.2839 16.4908C60.9987 18.0003 40.3041 13.6443 38.8594 12.8916C37.4146 12.1389 39.8157 3.65997 39.8157 3.65997Z" fill="#002073"/>
</svg>
