<svg width="658" height="561" viewBox="0 0 658 561" fill="none" xmlns="http://www.w3.org/2000/svg">
<path d="M315.764 364.508C315.943 364.409 316.122 364.306 316.302 364.207C316.091 364.259 315.898 364.336 315.764 364.508Z" fill="white"/>
<path d="M333.641 390.692C333.762 390.722 333.878 390.74 333.995 390.748C333.878 390.731 333.762 390.714 333.641 390.692Z" fill="white"/>
<path d="M528.645 492.969C528.623 493.004 528.605 493.042 528.587 493.081C528.663 493.042 528.739 493.004 528.815 492.965C528.757 492.965 528.703 492.965 528.645 492.965V492.969Z" fill="white"/>
<path d="M482.416 306.445C482.318 306.445 482.219 306.445 482.116 306.445C482.157 306.531 482.192 306.608 482.233 306.69C482.295 306.608 482.354 306.522 482.416 306.44V306.445Z" fill="white"/>
<path d="M379.502 441.066C379.054 441.44 378.588 441.733 378.113 441.969C378.61 441.849 379.081 441.586 379.502 441.066Z" fill="white"/>
<path d="M237.572 428.847C238.074 429.225 238.495 429.839 238.791 430.811C239.857 439.646 239.396 448.542 240.001 457.408C240.57 465.758 241.385 474.146 241.331 482.552C241.318 484.327 240.718 486.768 244.055 486.605C244.271 486.661 244.486 486.712 244.696 486.764C244.745 485.582 244.79 484.396 244.84 483.214C244.826 481.916 244.817 480.623 244.804 479.325C244.374 478.057 244.253 476.777 244.66 475.479C243.782 472.268 243.863 468.998 243.966 465.728C243.872 462.616 243.778 459.509 243.684 456.398C243.554 455.942 243.5 455.53 243.513 455.156C242.559 447.683 243.128 440.162 242.944 432.663C242.935 431.365 242.931 430.067 242.922 428.769C242.572 412.241 242.219 395.713 241.869 379.185C241.833 378.214 241.793 377.242 241.757 376.267C240.637 371.174 240.852 366 240.843 360.852C240.812 345.059 241.031 329.261 239.611 313.502C239.593 313.416 239.575 313.33 239.557 313.249C239.521 313.214 239.503 313.507 239.459 313.042C239.441 312.87 239.427 312.703 239.409 312.54C239.217 311.607 239.02 310.679 238.831 309.746C238.168 306.484 239.266 305.294 243.007 305.298C344.55 305.393 446.094 305.371 547.633 305.401C549.555 305.401 552.525 304.409 551.835 308.203C551.862 308.857 551.885 309.506 551.912 310.159C553.507 318.939 553.946 327.843 553.802 336.696C553.713 342.201 555.971 347.448 555.003 352.936C554.999 353.263 554.99 353.585 554.985 353.911C554.963 356.499 554.945 359.086 554.922 361.673C554.927 362.648 554.936 363.628 554.94 364.604C554.999 365.566 555.137 366.533 555.111 367.496C554.851 376.009 554.658 376.138 545.957 375.528C527.278 374.213 508.662 372.391 490.123 369.821C486.086 369.262 482.726 367.719 479.786 365.167C476.036 361.909 472.519 358.377 468.594 355.334C454.786 344.62 439.512 337.353 421.237 337.19C416.873 337.151 412.518 336.343 408.158 335.901C405.649 335.643 403.131 335.192 400.645 336.025C397.24 337.168 393.924 338.385 393.225 342.441C392.526 346.468 394.431 349.326 397.639 351.569C402.567 355.02 407.652 358.14 413.916 358.952C415.466 359.154 417.254 359.24 418.916 361.716C408.468 362.691 398.718 364.419 388.758 364.634C388.109 364.681 387.455 364.724 386.805 364.771C378.328 365.386 369.86 364.595 361.388 364.565C349.353 364.479 337.319 364.376 325.28 364.32C322.108 364.307 318.936 364.449 315.768 364.518C310.217 366.181 304.424 367.427 300.858 372.507C300.741 372.795 300.625 373.078 300.508 373.366C300.517 374.986 300.531 376.606 300.54 378.227L300.544 378.244C303.08 381.815 306.96 383.177 311.1 384.028C319.075 385.67 327.064 387.251 335.043 388.854C336.356 388.639 337.646 388.588 338.914 389.374C337.978 390.956 336.45 390.724 334.998 390.685C334.662 390.706 334.331 390.732 333.999 390.754C332.005 391.188 330.016 391.626 328.022 392.06C327.176 392.976 326.055 392.945 324.931 392.885C321.481 394.462 318.031 396.04 314.581 397.617C311.131 401.897 307.027 406.031 310.983 412.009C314.671 413.883 318.542 415.168 322.758 415.31C325.733 414.785 328.551 415.31 331.338 417.231H325.061C324.331 417.514 323.596 417.794 322.865 418.077C320.755 420.544 319.295 423.217 319.949 426.56C323.537 433.088 330.227 434.39 336.853 435.482C342.973 436.488 349.179 437.008 356.164 437.841C350.586 440.282 348.269 443.798 350.5 449.101C351.087 449.793 351.674 450.484 352.261 451.172C361.63 453.308 371.213 454.09 380.752 454.103C400.098 454.129 419.507 456.183 438.791 453.097C442.268 452.543 445.691 451.696 449.141 450.983C449.396 450.785 449.633 450.558 449.916 450.394C464.087 442.173 479.63 441.46 495.669 441.954C514.509 442.538 533.385 442.113 552.243 442.216C553.681 442.225 556.41 440.905 555.917 444.318C555.917 444.971 555.922 445.62 555.926 446.273C555.926 446.922 555.926 447.566 555.926 448.215C555.931 449.191 555.935 450.162 555.944 451.138C555.944 453.729 555.944 456.32 555.944 458.912C555.944 459.883 555.944 460.859 555.944 461.83C555.917 468.319 555.89 474.808 555.863 481.293C555.908 482.243 555.957 483.193 556.002 484.142C555.514 486.777 552.893 487.946 551.217 487.275C547.131 485.634 543.453 487.361 539.712 487.748C530.67 488.68 521.803 489.243 512.601 488.461C504.652 487.787 496.315 487.133 488.277 488.999C485.813 489.57 484.007 487.868 481.574 487.963C471.377 488.354 461.157 488.401 450.955 488.569C444.002 488.685 436.891 487.787 429.996 488.53C412.8 490.378 395.515 489.437 378.306 490.752C367.956 491.543 357.512 491.285 347.109 491.293C344.976 491.293 343.108 491.684 341.168 492.445C346.576 494.233 352.203 493.266 357.642 494.061C360.881 494.07 364.116 494.057 367.356 494.022C369.874 493.373 372.49 493.537 375.057 493.545C378.539 493.558 382.029 493.605 385.515 493.64C396.832 493.305 408.145 492.81 419.454 492.312C420.506 492.183 421.559 492.05 422.608 491.899C422.966 491.921 423.289 492.007 423.589 492.131C427.231 491.972 430.87 491.818 434.512 491.667C443.334 491.306 452.165 491.023 461 490.877C462.291 490.666 463.572 490.567 464.826 490.821C481.368 490.619 497.918 490.919 514.451 492.101C523.582 492.213 532.695 491.934 541.768 490.851L541.701 490.889C544.322 489.635 547.118 489.69 549.931 489.901C552.203 489.372 554.474 489.458 556.75 489.867C557.678 489.626 558.605 489.39 559.537 489.149C559.828 489.033 560.124 488.93 560.424 488.835C560.402 488.771 560.38 488.706 560.362 488.638C560.447 484.052 558.69 479.467 560.357 474.881C560.653 474.645 560.949 474.413 561.244 474.181C561.249 472.647 561.253 471.112 561.258 469.578C561.217 463.953 561.222 458.323 561.159 452.698C561.02 452.165 561.029 451.606 561.141 451.03C561.114 449.114 561.083 447.201 561.034 445.289C560.966 442.753 561.733 441.945 564.412 442.023C570.057 442.182 575.711 442.104 581.361 442.173C582.06 442.018 582.876 442.079 583.691 442.212C584.354 442.225 585.022 442.238 585.685 442.259C587.392 442.311 588.718 442.07 589.753 441.064C588.83 440.093 588.086 438.946 586.756 438.387C578.503 437.437 570.21 438.065 561.957 437.661C552.082 439.444 542.1 438.993 532.144 439.01C529.644 439.015 527.14 439.109 524.666 438.697C522.901 438.254 521.087 437.957 519.317 437.506C519.196 437.476 519.084 437.442 518.972 437.407C516.472 437.407 513.972 437.407 511.467 437.407C509.621 437.884 507.775 437.953 505.844 437.407C500.714 437.407 495.58 437.407 490.45 437.407C490.315 437.463 490.181 437.519 490.046 437.575C483.662 438.589 477.165 437.145 470.808 438.469C465.342 440.175 460.059 442.298 454.866 444.679C450.789 446.552 446.703 448.671 441.9 448.138C441.609 447.932 441.367 447.73 441.161 447.528C436.743 449.29 431.999 449.608 427.348 449.728C414.382 450.068 401.402 450.033 388.44 449.328C378.306 449.909 368.288 448.68 358.278 447.463C355.353 447.107 355.384 446.866 355.303 444.326C359.797 441.301 365.156 442.616 370.071 441.7C373.144 441.129 376.357 441.258 379.506 441.069C381.863 438.207 380.394 436.621 377.423 435.813C375.165 435.198 372.808 434.928 370.496 434.502C368.807 434.678 367.172 434.541 365.617 433.892C365.474 433.84 365.326 433.78 365.187 433.703C364.6 433.656 364.013 433.608 363.426 433.557C353.175 432.766 342.902 431.992 332.87 429.745C329.483 428.988 324.384 428.318 325.155 423.763C325.818 419.848 330.496 421.64 333.408 421.511C344.044 421.047 354.681 421.455 365.304 422.108C367.459 422.241 369.726 422.697 371.509 420.926C371.392 416.977 367.544 417.746 365.339 416.44C363.928 416.07 362.333 416.307 361.137 415.245C360.554 415.168 359.967 415.086 359.385 415.009C346.768 412.847 334.035 411.554 321.297 410.294C318.815 410.049 315.114 410.355 314.657 407.273C314.218 404.278 316.615 401.833 319.51 400.453C326.853 396.955 334.689 394.961 342.848 394.742C352.799 394.471 362.763 394.574 372.719 394.811C376.048 394.892 377.105 393.904 376.375 390.917C372.212 387.995 366.849 388.992 362.405 386.993C357.705 386.675 353.018 386.284 348.426 385.219C348.287 385.201 348.135 385.176 347.96 385.115C334.743 384.514 321.978 381.48 309.209 378.497C307.596 378.119 305.576 377.732 305.383 375.837C305.172 373.796 307.018 372.747 308.694 371.957C313.631 369.636 318.851 368.845 324.375 368.819C346.983 368.716 369.582 370.384 392.186 369.395C399.919 369.06 407.616 367.917 415.323 367.118C416.326 367.014 417.357 366.86 418.289 366.516C421.21 365.437 424.14 364.015 424.082 360.568C424.028 357.328 421.196 355.772 418.383 355.175C412.052 353.838 406.075 351.922 400.829 348.136C399.099 346.889 397.594 345.574 398.006 343.4C398.458 341.023 400.864 340.404 402.715 340.516C421.523 341.668 440.619 341.81 456.954 352.923C457.631 353.383 458.204 353.972 458.827 354.504C462.196 356.086 465.248 358.243 467.586 360.938C476.892 371.673 489.159 375.502 503.192 376.452C519.312 377.539 535.379 379.391 551.464 380.956C552.203 381.029 553.005 380.964 553.749 381.11C553.91 381.093 554.071 381.076 554.232 381.054C554.703 381.119 555.169 381.222 555.626 381.347C557.418 381.953 559.3 381.695 561.137 381.871C561.97 381.948 562.821 382.073 563.516 382.404C576.46 382.98 589.448 382.361 602.37 383.444C603.185 383.513 603.83 383.47 604.346 383.336C605.363 382.481 605.192 381.17 605.376 380.01C605.389 379.916 605.407 379.825 605.421 379.731C604.368 379.804 603.561 379.451 603.1 378.502C603.078 378.399 603.055 378.295 603.028 378.192C602.132 378.145 601.232 378.098 600.336 378.05C599.946 378.622 599.126 379.09 597.755 379.421C586.285 379.83 574.806 380.504 563.395 378.858C558.31 378.128 557.449 376.985 558.014 371.991C559.017 363.117 558.637 354.182 558.708 345.317C558.753 339.842 557.611 334.113 556.858 328.513C556.468 325.613 556.267 322.716 556.701 319.815C556.54 318.621 557.853 317.473 558.072 316.283C558.054 316.008 558.041 315.737 558.023 315.462C557.879 315.045 557.543 314.62 556.903 314.186C555.039 311.757 555.738 308.938 555.603 306.265C555.482 303.876 555.07 301.766 552.257 301.001C532.677 300.498 513.098 301.125 493.541 300.653C489.751 300.562 485.459 302.221 481.785 300.627C467.358 300.627 452.931 300.636 438.504 300.636C435.354 301.117 432.187 300.975 429.015 300.636C422.11 300.636 415.211 300.636 408.306 300.64C401.631 301.396 394.901 300.941 388.176 300.64C379.565 300.64 370.949 300.64 362.338 300.64C350.187 300.941 338.023 301.095 325.867 300.64C319.702 300.64 313.533 300.64 307.368 300.64C306.06 300.971 304.702 300.971 303.416 300.722C303.259 300.691 303.102 300.67 302.946 300.64C298.94 300.64 294.935 300.64 290.929 300.64C289.298 300.747 287.663 300.825 286.032 300.782C284.074 300.73 282.112 300.683 280.154 300.64C274.173 300.64 268.191 300.64 262.21 300.64C260.991 300.674 259.773 300.722 258.55 300.777C257.756 300.816 256.972 300.747 256.188 300.64C251.677 300.64 247.16 300.64 242.649 300.64C242.595 300.64 242.541 300.64 242.487 300.64C240.951 301.078 239.432 301.615 237.944 302.2C235.61 304.202 234.732 306.798 235.31 309.626C236.161 313.782 235.906 317.937 235.888 322.106C236.457 324.19 235.946 326.339 235.704 328.475C235.7 329.308 235.664 330.142 235.632 330.98C235.726 332.037 236.018 333.082 236.685 334.104C237.649 339.321 237.519 344.552 236.833 349.773C236.555 350.602 236.139 351.337 235.628 352.003C235.628 353.684 235.628 355.364 235.628 357.04C236.251 357.594 236.739 358.261 236.909 359.215C238.374 378.437 239.75 397.651 239.347 416.934C239.32 418.232 239.244 419.525 238.791 420.763C238.459 421.494 238.052 421.971 237.59 422.211C237.59 422.62 237.59 423.032 237.59 423.44C237.725 423.518 237.864 423.595 238.002 423.668C238.827 424.79 238.912 425.997 238.428 427.261C238.15 427.433 237.868 427.57 237.586 427.691C237.586 427.721 237.586 427.751 237.586 427.781C237.586 428.129 237.586 428.481 237.586 428.829L237.572 428.847Z" fill="white"/>
<path d="M599.605 384.048C599.556 384.099 599.502 384.147 599.453 384.194C599.489 384.194 599.524 384.194 599.56 384.194C599.578 384.147 599.591 384.099 599.609 384.052L599.605 384.048Z" fill="white"/>
<path d="M362.32 300.655C350.164 300.655 338.005 300.655 325.849 300.655C338.005 301.111 350.169 300.956 362.32 300.655Z" fill="white"/>
<path d="M303.398 300.733C304.68 300.982 306.042 300.987 307.35 300.651C305.876 300.651 304.402 300.651 302.928 300.651C303.085 300.677 303.241 300.699 303.398 300.733Z" fill="white"/>
<path d="M438.486 300.647C435.323 300.647 432.16 300.647 428.997 300.647C432.169 300.987 435.337 301.124 438.486 300.647Z" fill="white"/>
<path d="M388.158 300.655C394.883 300.952 401.613 301.407 408.288 300.655C401.577 300.655 394.87 300.655 388.158 300.655Z" fill="white"/>
<path d="M261.959 299.875C259.849 299.867 257.739 299.819 255.628 299.755C257.694 300.228 259.844 300.137 261.959 299.875Z" fill="white"/>
<path d="M556.693 319.828C556.258 322.725 556.46 325.625 556.849 328.526C557.602 334.126 558.74 339.85 558.7 345.329C558.628 354.195 559.009 363.129 558.005 372.004C557.441 377.002 558.301 378.141 563.386 378.871C574.798 380.513 586.277 379.838 597.746 379.434C599.122 379.099 599.937 378.63 600.327 378.063C600.094 378.05 599.861 378.037 599.628 378.029C587.047 377.956 574.457 378.471 561.885 377.427C559.488 377.23 558.839 376.499 559.04 374.144C560.039 362.498 561.54 350.925 559.193 339.145C557.817 332.261 558.44 325.011 558.162 317.924C558.131 317.383 558.095 316.841 558.064 316.3C557.844 317.49 556.531 318.638 556.693 319.832V319.828Z" fill="white"/>
<path d="M546.571 300.622C524.971 300.63 503.371 300.63 481.767 300.635C485.441 302.229 489.733 300.57 493.523 300.66C513.084 301.133 532.659 300.506 552.239 301.009C555.052 301.774 555.464 303.884 555.585 306.273C555.72 308.946 555.021 311.769 556.885 314.193C557.525 314.627 557.866 315.053 558.005 315.47C557.978 315.005 557.951 314.541 557.92 314.077C556.611 310.656 556.992 307.047 556.741 303.518C556.58 301.236 555.832 299.805 553.327 299.573C551.329 301.413 548.829 300.618 546.562 300.618L546.571 300.622Z" fill="white"/>
<path d="M258.527 300.789C259.746 300.733 260.969 300.69 262.188 300.651C260.18 300.651 258.173 300.651 256.17 300.651C256.95 300.759 257.739 300.823 258.532 300.789H258.527Z" fill="white"/>
<path d="M286.01 300.793C287.645 300.836 289.276 300.759 290.907 300.651C287.313 300.651 283.72 300.651 280.127 300.651C282.085 300.694 284.047 300.742 286.005 300.793H286.01Z" fill="white"/>
<path d="M605.484 379.332L605.439 379.292C605.439 379.292 605.457 379.31 605.466 379.323C605.47 379.323 605.48 379.332 605.484 379.336V379.332Z" fill="white"/>
<path d="M244.817 299.387C244.194 299.387 243.567 299.413 242.944 299.464C243.581 299.477 244.208 299.464 244.817 299.387Z" fill="white"/>
<path d="M235.691 328.48C235.928 326.349 236.443 324.2 235.874 322.111C235.888 317.943 236.143 313.787 235.296 309.631C234.718 306.804 235.597 304.212 237.931 302.205C239.418 301.625 240.933 301.084 242.474 300.645C240.507 300.637 238.536 300.512 236.699 301.398C234.329 303.035 233.527 305.227 233.782 308.011C234.208 312.665 235.09 317.302 234.66 322.013C234.902 322.498 235.059 322.988 235.162 323.487C235.61 325.132 235.709 326.8 235.695 328.48H235.691Z" fill="white"/>
<path d="M236.82 349.781C237.505 344.555 237.635 339.33 236.672 334.113C236.004 333.09 235.708 332.045 235.619 330.988C235.588 331.822 235.556 332.66 235.556 333.494C235.579 339.325 235.601 345.157 235.619 350.989C235.619 351.333 235.619 351.676 235.619 352.016C236.13 351.345 236.546 350.615 236.824 349.785L236.82 349.781Z" fill="white"/>
<path d="M603.091 378.512C603.553 379.461 604.359 379.818 605.412 379.741C605.43 379.625 605.448 379.513 605.466 379.397C605.457 379.367 605.448 379.341 605.434 379.311C604.839 378.954 604.247 378.593 603.651 378.237C603.436 378.224 603.226 378.215 603.01 378.202C603.037 378.305 603.06 378.408 603.082 378.512H603.091Z" fill="white"/>
<path d="M238.782 420.775C239.235 419.537 239.311 418.244 239.338 416.946C239.741 397.663 238.365 378.449 236.9 359.226C236.73 358.272 236.242 357.606 235.619 357.052C235.619 357.297 235.619 357.542 235.619 357.791C235.874 363.253 236.134 368.719 236.39 374.182C237.133 390.099 238.235 406.013 237.581 421.965V422.227C238.043 421.982 238.45 421.51 238.782 420.779V420.775Z" fill="white"/>
<path d="M237.989 423.679C237.85 423.606 237.716 423.529 237.577 423.451V423.902C237.577 425.17 237.577 426.438 237.572 427.701C237.855 427.581 238.137 427.444 238.415 427.272C238.899 426.008 238.809 424.805 237.989 423.679Z" fill="white"/>
<path d="M244.051 486.604C240.713 486.767 241.318 484.322 241.327 482.551C241.381 474.145 240.565 465.761 239.996 457.407C239.391 448.541 239.853 439.645 238.787 430.81C238.491 429.834 238.074 429.224 237.568 428.846C237.568 429.142 237.568 429.434 237.568 429.731C237.465 448.511 239.306 467.218 239.732 485.976C239.763 487.27 239.324 488.667 241.013 489.264C243.312 490.076 243.84 488.233 244.687 486.9C244.687 486.857 244.687 486.81 244.692 486.767C244.477 486.716 244.262 486.66 244.051 486.608V486.604Z" fill="white"/>
<path d="M375.057 493.541C372.49 493.532 369.869 493.369 367.356 494.018C373.413 493.954 379.466 493.82 385.515 493.64C382.029 493.601 378.539 493.554 375.057 493.545V493.541Z" fill="white"/>
<path d="M422.612 491.898C421.564 492.049 420.511 492.182 419.458 492.311C420.838 492.251 422.214 492.191 423.589 492.131C423.293 492.006 422.971 491.92 422.608 491.898H422.612Z" fill="white"/>
<path d="M560.447 488.911C560.438 488.886 560.429 488.86 560.42 488.834C560.12 488.924 559.824 489.032 559.533 489.148C559.837 489.07 560.142 488.993 560.442 488.911H560.447Z" fill="white"/>
<path d="M461 490.875C462.277 490.853 463.55 490.832 464.826 490.819C463.572 490.565 462.291 490.664 461 490.875Z" fill="white"/>
<path d="M560.352 474.887C558.686 479.473 560.442 484.058 560.357 488.644C560.375 488.712 560.397 488.777 560.42 488.841C560.608 488.785 560.791 488.721 560.984 488.674C561.02 488.652 561.06 488.635 561.096 488.614C561.844 487.66 562.888 486.658 562.171 485.442C560.066 481.879 561.302 478.141 561.235 474.466C561.235 474.372 561.235 474.277 561.235 474.183C560.939 474.415 560.644 474.651 560.348 474.883L560.352 474.887Z" fill="white"/>
<path d="M560.425 488.834C560.434 488.86 560.443 488.886 560.451 488.912C560.626 488.864 560.801 488.821 560.976 488.774C561.016 488.718 561.061 488.662 561.106 488.606C561.07 488.628 561.029 488.645 560.994 488.667C560.801 488.714 560.613 488.774 560.429 488.834H560.425Z" fill="white"/>
<path d="M561.154 452.697C561.15 452.142 561.145 451.588 561.136 451.029C561.025 451.601 561.016 452.164 561.154 452.697Z" fill="white"/>
<path d="M581.357 442.174C582.132 442.182 582.911 442.195 583.686 442.212C582.871 442.079 582.056 442.019 581.357 442.174Z" fill="white"/>
<path d="M588.462 437.497C581.204 437.462 573.946 437.475 566.688 437.359C565.102 437.333 563.301 438.098 561.93 436.624C560.514 435.43 558.923 434.076 557.391 436.173C556.374 437.561 555.16 437.385 553.869 437.389C543.766 437.411 533.667 437.402 523.564 437.406C522.027 437.406 520.495 437.406 518.958 437.406C519.07 437.441 519.182 437.475 519.303 437.505C521.073 437.952 522.888 438.253 524.653 438.696C527.126 439.108 529.63 439.014 532.131 439.009C542.086 438.992 552.068 439.443 561.943 437.66C570.2 438.064 578.489 437.436 586.742 438.386C588.073 438.945 588.821 440.088 589.739 441.064C589.972 440.836 590.192 440.569 590.393 440.26C589.748 439.34 589.099 438.421 588.453 437.501L588.462 437.497Z" fill="white"/>
<path d="M605.578 379.702C605.524 379.715 605.475 379.728 605.421 379.737C605.408 379.831 605.39 379.921 605.376 380.016C605.197 381.176 605.363 382.487 604.346 383.342C605.936 382.925 606.178 381.602 605.578 379.702Z" fill="white"/>
<path d="M527.776 379.984C528.022 380.001 528.273 380.022 528.52 380.039C528.278 379.992 528.027 379.975 527.776 379.984Z" fill="white"/>
<path d="M511.458 437.408C509.586 437.408 507.713 437.408 505.835 437.408C507.762 437.954 509.608 437.885 511.458 437.408Z" fill="white"/>
<path d="M456.305 442.561C451.547 444.537 447.026 447.103 441.658 447.326C441.488 447.399 441.318 447.464 441.152 447.533C441.354 447.735 441.596 447.937 441.891 448.143C446.699 448.676 450.78 446.557 454.858 444.683C460.05 442.298 465.328 440.175 470.799 438.474C477.156 437.15 483.653 438.594 490.038 437.58C490.172 437.528 490.306 437.472 490.441 437.412C483.581 437.412 476.722 437.412 469.862 437.412C465.337 439.118 460.763 440.708 456.305 442.556V442.561Z" fill="white"/>
<path d="M555.155 381.851C557.938 382.113 560.725 382.294 563.511 382.414C562.812 382.079 561.966 381.958 561.132 381.881C559.295 381.705 557.414 381.963 555.621 381.357C555.164 381.232 554.703 381.129 554.228 381.064C554.067 381.086 553.905 381.107 553.744 381.12C554.255 381.223 554.739 381.43 555.16 381.847L555.155 381.851Z" fill="white"/>
<path d="M555.097 381.921C553.444 381.895 551.768 381.826 550.102 381.753C551.764 381.843 553.43 381.903 555.097 381.921Z" fill="white"/>
<path d="M605.474 379.397C605.457 379.513 605.439 379.625 605.421 379.741C605.474 379.733 605.528 379.72 605.577 379.707C605.546 379.604 605.51 379.501 605.474 379.397Z" fill="white"/>
<path d="M351.298 201.229C352.898 201.474 354.493 201.719 356.092 201.964C356.818 201.697 357.584 201.482 358.211 201.078C363.937 198.813 366.186 194.598 366.034 188.813C365.927 184.739 365.246 180.777 364.013 176.922C362.799 173.119 363.453 170.377 367.575 168.675C372.1 166.802 375.04 162.796 379.215 160.334C381.738 158.851 382.038 155.658 382.123 152.886C382.289 147.738 382.455 142.589 381.451 137.458C380.931 134.79 380.102 132.112 380.47 129.327C380.595 128.85 380.743 128.395 380.963 128.008C380.376 126.633 379.789 125.258 379.202 123.883C378.799 123.689 378.386 123.504 377.979 123.324C375.98 121.575 374.26 119.68 374.161 116.912C374.014 116.852 373.861 116.796 373.709 116.74C372.136 115.567 370.698 114.218 368.852 113.397C368.288 112.997 367.875 112.486 367.598 111.871C363.391 110.668 362.087 105.936 358.198 104.346C354.788 102.528 350.693 103.719 347.248 102.06C344.528 99.9585 341.701 98.2653 337.929 98.6907C336.862 98.811 336.047 98.3899 335.348 97.7667C334.743 97.7066 334.116 97.539 333.444 97.2296C329.384 95.7254 325.715 93.1985 321.226 92.8246C319.304 92.6656 317.314 92.3433 314.348 93.7572C328.762 95.416 338.475 101.433 342.279 114.411C342.301 115.133 342.324 115.859 342.396 116.568C343 117.815 343.426 119.13 343.771 120.475C343.959 120.72 344.17 120.956 344.407 121.188C344.546 121.622 344.537 122.056 344.394 122.486C344.38 122.516 344.358 122.546 344.34 122.572C345.182 123.363 345.321 124.338 345.079 125.417C345.16 126.366 345.241 127.316 345.326 128.262C347.974 130.312 347.593 133.363 348.135 136.109C348.807 137.321 349.331 138.567 349.089 139.985C350.102 149.371 353.507 158.168 356.37 167.098C357.701 168.164 357.028 169.732 357.432 171.03C358.592 171.718 359.188 172.715 359.193 174.034C359.273 174.348 359.349 174.666 359.43 174.98C361.912 180.382 362.943 186.041 362.499 191.92C362.288 194.684 361.11 196.802 357.934 197.567C354.73 198.336 353.019 196.407 351.845 194.335C348.059 187.649 345.541 180.442 343.189 173.192C342.817 172.044 343.045 170.94 344.12 170.136C344.112 169.526 344.098 168.916 344.089 168.31C338.619 165.25 338.233 159.01 334.819 154.661C333.52 153.058 332.221 151.455 330.917 149.857C322.722 141.339 312.659 136.814 300.495 137.067C291.337 137.256 284.173 142.916 282.269 151.442C278.756 167.188 285.315 179.66 296.875 190.038C303.035 195.569 310.101 200.038 318.914 201.151C321.53 201.482 324.77 202.432 324.304 205.685C323.869 208.706 321.185 210.077 317.852 209.854C311.795 209.45 305.724 209.239 299.684 208.706C290.356 207.881 282.381 204.121 274.872 198.749C263.138 190.352 254.204 179.41 244.342 169.298C243.128 167.996 241.918 166.698 240.704 165.396C232.608 160.579 223.638 160.179 214.454 160.334C202.639 160.531 190.927 159.014 179.247 157.51C159.793 155.009 140.259 155.641 120.729 155.624C109.617 155.615 98.5013 155.224 87.3945 154.88C85.6471 154.829 83.6399 155.301 82.1748 153.772C81.9508 153.454 81.7313 153.136 81.5072 152.813C78.8683 151.778 77.2195 153.226 75.6827 154.945L75.7051 155.005C75.8844 155.151 76.0591 155.297 76.2383 155.439C76.9462 156.29 77.3494 157.184 76.9059 158.181C76.9283 158.219 76.9462 158.258 76.9686 158.301L77.3226 158.25L77.439 158.413C77.784 158.228 78.129 158.017 78.4695 157.764C83.837 158.323 89.3569 157.179 94.59 159.135C95.141 159.496 95.7325 159.801 96.3239 160.097C97.8158 159.99 99.3033 160.093 100.786 160.291C101.391 159.831 102.121 159.53 102.906 159.298C116.132 158.507 129.358 158.589 142.57 159.225C143.61 159.526 144.3 159.93 144.448 160.489C144.923 160.489 145.393 160.489 145.868 160.489C146.217 160.085 146.598 159.749 147.145 159.59C156.088 157.974 164.959 159.466 173.803 160.317C190.215 161.894 206.546 164.3 223.119 163.901C230.641 163.72 236.6 166.793 241.86 171.95C251.851 181.74 260.696 192.552 272.188 201.018C282.439 208.569 293.618 212.243 306.311 212.497C309.967 212.57 313.766 211.843 317.158 213.885C317.476 214.211 317.695 214.508 317.843 214.787C318.829 214.641 319.814 214.491 320.8 214.345C321.297 213.876 321.822 213.429 322.4 213.042C329.994 207.245 329.582 203.021 320.863 197.387C320.204 196.991 319.55 196.596 318.887 196.218C315.979 195.81 313.094 195.337 310.643 193.631C310.334 193.635 310.02 193.648 309.698 193.678C304.447 191.71 299.46 189.411 296.96 184.082C296.96 183.875 296.996 183.699 297.05 183.532C294.796 181.821 293.295 179.587 292.251 177.025C284.039 165.323 284.003 151.27 292.578 144.691C296.875 154.769 303.577 162.972 312.726 169.273C314.407 169.453 315.652 170.347 316.844 171.327C317.054 171.245 317.265 171.168 317.471 171.086C319.183 171.241 320.688 171.967 322.176 172.702C326.172 174.674 330.263 175.745 334.77 174.46C337.893 173.566 339.896 174.722 340.971 177.691C343.278 184.073 345.626 190.438 348.982 196.411C349.461 197.262 349.793 198.19 349.434 199.14C349.47 199.187 349.501 199.235 349.537 199.286C350.483 199.647 351.45 199.991 351.289 201.233L351.298 201.229ZM374.359 125.451C376.438 128.958 377.611 132.714 377.75 136.758C378.624 138.404 378.687 140.157 378.476 141.945C378.857 146.453 379.121 150.965 378.507 155.473C378.718 156.556 378.136 157.295 376.688 158.451V144.816C376.653 138.885 374.668 133.29 373.467 127.561C372.813 126.04 372.159 124.519 371.321 122.572C373.454 122.989 373.83 124.287 374.359 125.447V125.451ZM360.9 113.109C366.334 121.154 370.25 129.83 370.47 139.603C370.51 141.438 372.454 142.675 371.63 144.562C372.723 148.713 372.661 152.869 371.648 157.025C371.688 157.794 372.195 158.933 370.514 158.353C369.367 156.917 369.632 155.246 369.641 153.617C368.023 143.092 365.272 132.886 360.792 123.105C358.417 117.926 355.528 113.049 352.14 107.982C356.527 107.879 359.054 110.367 360.9 113.104V113.109ZM361.961 166.849C352.969 146.78 354.278 124.231 341.979 105.257C355.236 111.549 370.143 157.115 361.961 166.849ZM334.895 171.099C331.907 172.203 328.865 172.431 326.074 170.931C315.262 165.13 304.877 158.898 299.384 147.437C296.66 141.76 296.539 141.678 302.959 141.829C320.666 142.151 331.687 156.195 336.28 168.215C336.907 169.857 336.446 170.532 334.895 171.103V171.099Z" fill="white"/>
<path d="M94.5899 159.132C89.3568 157.172 83.837 158.319 78.4695 157.761C78.1245 158.014 77.784 158.229 77.439 158.41L77.5241 158.53C83.2679 159.114 89.0073 159.699 94.7512 160.283C95.2754 160.189 95.8041 160.129 96.3283 160.094C95.7324 159.793 95.1454 159.488 94.5944 159.132H94.5899Z" fill="white"/>
<path d="M380.47 129.331C380.102 132.116 380.931 134.793 381.451 137.462C382.455 142.589 382.289 147.737 382.123 152.89C382.033 155.657 381.738 158.85 379.215 160.337C375.035 162.796 372.1 166.805 367.575 168.679C363.458 170.381 362.799 173.127 364.013 176.926C365.245 180.781 365.926 184.743 366.034 188.817C366.186 194.606 363.937 198.817 358.211 201.082C357.584 201.481 356.818 201.696 356.092 201.967C356.854 202.083 357.611 202.199 358.373 202.32C364.793 200.3 367.378 197.029 367.602 190.622C367.795 185.211 366.442 180.033 364.932 174.889C364.515 173.462 363.619 171.842 365.644 171.184C369.968 169.775 372.54 165.739 376.187 164.123C382.831 161.18 383.49 156.302 383.74 150.677C384.059 143.517 382.822 136.499 381.594 129.481C381.384 128.992 381.178 128.502 380.967 128.012C380.743 128.394 380.595 128.85 380.474 129.331H380.47Z" fill="white"/>
<path d="M76.2426 155.438C76.0634 155.296 75.8887 155.146 75.7095 155.004L75.817 155.292L75.5571 155.563C76.0096 156.435 76.4577 157.312 76.9102 158.184C77.3538 157.187 76.9505 156.293 76.2426 155.442V155.438Z" fill="white"/>
<path d="M348.986 196.412C345.63 190.438 343.283 184.07 340.975 177.692C339.9 174.718 337.897 173.567 334.774 174.46C330.267 175.75 326.176 174.675 322.18 172.703C320.692 171.968 319.187 171.237 317.476 171.087C317.265 171.173 317.059 171.25 316.848 171.328C317.157 171.581 317.462 171.843 317.771 172.101C323.287 174.873 328.775 178.221 335.348 175.741C338.385 174.598 338.941 175.926 339.725 178.199C342.243 185.479 344.689 192.811 349.439 199.141C349.797 198.191 349.465 197.263 348.986 196.412Z" fill="white"/>
<path d="M142.575 159.222C129.362 158.586 116.136 158.504 102.91 159.295C102.121 159.527 101.396 159.828 100.791 160.288C101.149 160.335 101.508 160.387 101.862 160.447C116.051 160.46 130.24 160.473 144.43 160.486C144.439 160.486 144.443 160.486 144.452 160.486C144.304 159.927 143.614 159.523 142.575 159.222Z" fill="white"/>
<path d="M374.336 116.983H374.342V116.977L374.336 116.983Z" fill="white"/>
<path d="M317.166 213.881C313.779 211.84 309.975 212.566 306.319 212.493C293.622 212.24 282.443 208.565 272.197 201.014C260.705 192.548 251.86 181.736 241.869 171.946C236.605 166.789 230.65 163.717 223.128 163.897C206.555 164.297 190.224 161.89 173.812 160.313C164.968 159.462 156.097 157.971 147.154 159.587C146.603 159.746 146.226 160.085 145.877 160.485C146.074 160.485 146.276 160.485 146.473 160.485C152.553 160.09 158.615 160.33 164.668 160.88C184.65 162.702 204.534 165.762 224.7 165.247C227.975 165.165 231.121 165.917 233.881 167.571C241.228 171.989 246.672 178.393 252.089 184.663C259.069 192.742 267.38 199.283 276.135 205.351C282.228 209.575 289.083 212.3 296.66 213C303.703 213.653 310.755 214.195 317.803 214.788C317.821 214.788 317.834 214.784 317.852 214.779C317.708 214.5 317.489 214.203 317.166 213.877V213.881Z" fill="white"/>
<path d="M320.867 197.385C329.591 203.014 329.998 207.243 322.404 213.04C321.826 213.427 321.302 213.874 320.805 214.343C321.226 214.278 321.647 214.218 322.068 214.154C322.319 214.072 322.579 214.02 322.848 214.037C332.05 208.111 331.643 201.639 321.759 196.646C320.813 196.482 319.85 196.353 318.896 196.216C319.559 196.594 320.218 196.989 320.872 197.385H320.867Z" fill="white"/>
<path d="M377.983 123.332C378.395 123.517 378.803 123.701 379.206 123.89C379.009 123.431 378.812 122.966 378.615 122.507C377.186 120.667 375.761 118.824 374.332 116.984C374.273 116.963 374.22 116.941 374.161 116.92C374.26 119.688 375.98 121.587 377.979 123.332H377.983Z" fill="white"/>
<path d="M296.964 184.078C299.464 189.407 304.451 191.702 309.702 193.674C310.025 193.644 310.338 193.631 310.647 193.627C310.222 193.33 309.805 193 309.406 192.621C304.859 190.412 300.746 187.658 297.475 183.85C297.327 183.747 297.197 183.635 297.058 183.532C297.005 183.7 296.969 183.876 296.969 184.082L296.964 184.078Z" fill="white"/>
<path d="M368.861 113.399C370.702 114.219 372.145 115.569 373.718 116.742C373.87 116.798 374.018 116.858 374.17 116.914C374.17 116.888 374.17 116.862 374.17 116.837C372.513 115.522 370.855 114.207 369.202 112.892C368.933 112.612 368.664 112.333 368.395 112.049C368.122 112.006 367.866 111.942 367.615 111.873C367.893 112.488 368.301 112.999 368.87 113.399H368.861Z" fill="white"/>
<path d="M374.161 116.841C374.161 116.867 374.161 116.892 374.161 116.918C374.219 116.94 374.273 116.961 374.331 116.983C374.273 116.935 374.215 116.888 374.152 116.841H374.161Z" fill="white"/>
<path d="M344.403 122.495C344.546 122.065 344.555 121.631 344.416 121.197C344.179 120.969 343.968 120.728 343.78 120.483C343.87 120.831 343.955 121.18 344.031 121.528C344.102 121.846 344.17 122.164 344.241 122.482C344.277 122.516 344.309 122.55 344.344 122.585C344.367 122.559 344.385 122.529 344.398 122.499L344.403 122.495Z" fill="white"/>
<path d="M342.288 114.415C338.484 101.437 328.771 95.4204 314.357 93.7615C317.323 92.3477 319.317 92.67 321.235 92.829C325.724 93.1986 329.393 95.7255 333.453 97.2339C334.125 97.5433 334.756 97.7109 335.357 97.7711C334.859 97.3284 334.42 96.7827 333.999 96.2584C328.564 93.19 322.843 90.9596 316.414 91.0197C314.819 91.0369 312.753 90.865 312.637 93.2286C312.52 95.5149 314.205 95.5665 316.042 95.6868C328.968 96.5205 336.902 102.507 341.186 114.527C341.665 115.18 342.059 115.868 342.404 116.573C342.333 115.863 342.31 115.142 342.288 114.415Z" fill="white"/>
<path d="M351.634 202.216C351.343 202.061 351.056 201.889 350.792 201.687C350.604 201.52 350.429 201.348 350.268 201.167C349.416 201.004 348.623 200.707 347.862 200.329C347.315 200.505 346.732 200.596 346.146 200.664C336.378 201.051 331.763 205.662 331.423 215.19C331.253 219.986 332.05 224.82 330.823 229.569C330.549 229.999 330.2 230.48 329.779 230.596C329.81 231.391 329.841 232.186 329.877 232.981C329.913 232.999 329.949 233.02 329.989 233.033C330.263 233.42 330.375 233.854 330.352 234.318C330.321 234.584 330.272 234.829 330.218 235.066C330.841 237.047 331.047 239.084 331.024 241.142C331.235 241.31 331.445 241.486 331.656 241.679C333.636 244.103 333.592 247.133 334.273 249.935C336.696 259.892 339.694 269.613 345.814 278.199C347.951 281.195 350.178 282.102 353.242 279.523C363.175 271.173 374.426 264.624 385.519 257.872C391.442 254.271 396.196 249.467 400.761 244.507C405.632 239.221 407.764 232.749 408.109 225.792C408.575 216.367 399.771 209.736 390.264 212.216C383.1 214.085 377.047 217.747 371.764 222.71C369.896 224.464 368.122 226.411 365.492 227.218C365.322 228.138 364.797 228.912 363.848 228.809C363.256 228.744 363.279 227.743 363.467 226.905C363.35 226.84 363.238 226.772 363.131 226.69C362.028 225.34 362.158 223.703 361.975 222.135C361.41 217.283 359.618 212.908 356.549 208.997C355.375 207.502 353.753 206.208 353.771 204.077C353.789 204.021 353.811 203.969 353.829 203.913C353.059 203.385 352.176 202.955 351.634 202.211V202.216ZM358.52 230.21C358.52 232.96 358.498 235.715 358.529 238.465C358.547 240.309 358.762 242.298 361.056 242.651C363.386 243.007 364.193 241.026 364.824 239.38C366.106 236.033 367.36 232.689 369.6 229.788C375.116 222.633 382.387 217.867 391.276 215.456C398.978 213.368 405.533 218.916 404.552 226.604C403.244 236.841 397.683 244.632 389.422 250.945C381.469 257.021 372.284 261.298 364.17 267.125C360.657 269.648 357.051 272.063 353.713 274.783C350.496 277.409 348.426 276.687 346.553 273.391C340.823 263.287 338.085 252.281 336.208 241.091C334.68 231.984 333.816 222.783 334.918 213.522C335.402 209.444 336.656 205.753 340.998 204.21C345.317 202.676 348.493 205.237 351.298 207.867C357.875 214.029 359.511 221.748 358.52 230.21Z" fill="white"/>
<path d="M353.771 204.088C353.749 206.22 355.371 207.513 356.549 209.009C359.623 212.919 361.415 217.294 361.975 222.146C362.159 223.715 362.029 225.352 363.131 226.701C363.238 226.783 363.355 226.852 363.467 226.916C363.503 226.744 363.547 226.577 363.597 226.431C363.96 217.681 360.653 210.354 354.242 204.23C354.112 204.122 353.973 204.024 353.829 203.925C353.812 203.981 353.789 204.028 353.771 204.088Z" fill="white"/>
<path d="M371.769 222.717C377.051 217.753 383.1 214.096 390.268 212.222C399.776 209.742 408.58 216.369 408.114 225.798C407.769 232.755 405.636 239.223 400.766 244.513C396.2 249.473 391.447 254.273 385.524 257.879C374.43 264.626 363.18 271.179 353.247 279.529C350.182 282.108 347.951 281.201 345.818 278.206C339.698 269.619 336.701 259.903 334.277 249.941C333.596 247.139 333.645 244.114 331.66 241.686C331.45 241.492 331.239 241.316 331.029 241.148C331.029 241.462 331.015 241.78 331.002 242.098C331.347 243.336 331.759 244.561 332.032 245.811C334.68 258.025 338.036 269.912 345.657 280.41C348.162 283.861 350.012 283.874 352.839 281.506C362.02 273.822 372.168 267.453 382.531 261.368C390.071 256.937 396.805 251.609 402.213 244.853C407.298 238.497 410.336 231.436 409.404 223.267C408.378 214.233 399.596 208.505 390.457 210.748C380.246 213.249 372.463 219.27 365.563 226.567C365.563 226.791 365.541 227.014 365.501 227.229C368.131 226.421 369.909 224.474 371.773 222.721L371.769 222.717Z" fill="white"/>
<path d="M330.352 234.325C330.375 233.861 330.263 233.431 329.989 233.04C329.953 233.023 329.918 233.005 329.877 232.988C329.882 233.109 329.886 233.225 329.891 233.345C329.913 233.667 329.935 233.994 329.962 234.316C330.056 234.565 330.137 234.819 330.218 235.073C330.271 234.836 330.321 234.591 330.352 234.325Z" fill="white"/>
<path d="M330.827 229.578C332.055 224.829 331.257 219.995 331.427 215.199C331.764 205.671 336.383 201.06 346.15 200.673C346.737 200.604 347.319 200.514 347.866 200.338C347.275 200.046 346.701 199.706 346.132 199.354C336.549 198.963 330.881 203.596 330.048 213.136C329.546 218.86 329.841 224.653 329.774 230.412C329.774 230.476 329.779 230.541 329.783 230.605C330.204 230.489 330.554 230.012 330.827 229.578Z" fill="white"/>
<path d="M350.268 201.172C350.429 201.352 350.604 201.524 350.792 201.692C351.061 201.89 351.343 202.061 351.634 202.22C351.446 201.958 351.298 201.653 351.213 201.297C350.89 201.279 350.577 201.232 350.268 201.172Z" fill="white"/>
<path d="M353.157 202.689C353.453 202.973 353.722 203.286 353.942 203.643C354.098 203.312 354.3 203.041 354.537 202.822C354.076 202.813 353.619 202.766 353.157 202.685V202.689Z" fill="#ADABA8"/>
<path d="M353.941 203.647C354.053 203.832 354.156 204.021 354.242 204.232C355.093 202.551 357.441 203.836 358.373 202.319C357.096 202.642 355.819 202.857 354.537 202.826C354.3 203.046 354.098 203.312 353.941 203.647Z" fill="#ADABA8"/>
<path d="M351.293 201.278C351.943 201.72 352.602 202.154 353.157 202.687C353.619 202.765 354.08 202.812 354.537 202.825C354.972 202.425 355.518 202.176 356.092 201.965C354.492 201.72 352.897 201.475 351.298 201.23C351.298 201.248 351.298 201.265 351.293 201.282V201.278Z" fill="#ADABA8"/>
<path d="M354.537 202.826C355.819 202.852 357.096 202.642 358.373 202.319C357.611 202.203 356.854 202.087 356.092 201.967C355.519 202.177 354.972 202.427 354.537 202.826Z" fill="#ADABA8"/>
<path d="M353.157 202.686C352.781 202.621 352.405 202.54 352.033 202.424C351.894 202.363 351.768 202.29 351.638 202.222C352.181 202.965 353.063 203.395 353.834 203.923C353.87 203.825 353.905 203.73 353.946 203.644C353.726 203.287 353.457 202.974 353.162 202.69L353.157 202.686Z" fill="#ADABA8"/>
<path d="M353.829 203.924C353.973 204.023 354.107 204.122 354.242 204.229C354.156 204.018 354.053 203.825 353.941 203.645C353.901 203.73 353.865 203.829 353.829 203.924Z" fill="#ADABA8"/>
<path d="M351.217 201.295C351.302 201.656 351.446 201.957 351.638 202.219C351.768 202.288 351.898 202.361 352.033 202.421C352.409 202.541 352.785 202.619 353.157 202.683C352.602 202.154 351.943 201.716 351.293 201.273C351.293 201.282 351.293 201.286 351.293 201.295C351.267 201.295 351.244 201.291 351.222 201.286L351.217 201.295Z" fill="#ADABA8"/>
<path d="M348.632 200.001C349.004 200.091 349.367 200.199 349.721 200.332C349.587 200.018 349.519 199.67 349.546 199.283C349.488 199.283 349.434 199.283 349.376 199.283C349.327 199.395 349.273 199.502 349.206 199.614C349.022 199.765 348.834 199.889 348.637 199.997L348.632 200.001Z" fill="#A9A7A5"/>
<path d="M349.206 199.618C349.277 199.506 349.327 199.399 349.376 199.287C348.296 199.309 347.212 199.33 346.132 199.352C346.934 199.648 347.799 199.794 348.637 200C348.834 199.893 349.026 199.768 349.206 199.618Z" fill="#A9A7A5"/>
<path d="M351.195 201.213C351.231 201.217 351.262 201.221 351.298 201.23C351.459 199.988 350.491 199.644 349.546 199.283C349.519 199.674 349.591 200.018 349.721 200.332C350.25 200.534 350.751 200.809 351.195 201.217C351.195 201.217 351.195 201.217 351.195 201.213Z" fill="#A9A7A5"/>
<path d="M349.721 200.331C349.367 200.198 349.004 200.09 348.632 200C348.386 200.138 348.126 200.245 347.862 200.331C348.623 200.709 349.416 201.006 350.268 201.169C350.039 200.911 349.851 200.636 349.721 200.331Z" fill="#A9A7A5"/>
<path d="M348.632 200C347.794 199.794 346.93 199.648 346.128 199.352C346.697 199.704 347.27 200.043 347.861 200.336C348.126 200.25 348.386 200.138 348.632 200.005V200Z" fill="#A9A7A5"/>
<path d="M351.217 201.292C351.213 201.266 351.204 201.24 351.199 201.214C350.756 200.806 350.254 200.531 349.725 200.329C349.855 200.634 350.048 200.909 350.272 201.167C350.581 201.227 350.895 201.27 351.217 201.292Z" fill="#A9A7A5"/>
<path d="M351.293 201.277C351.293 201.277 351.293 201.242 351.297 201.225C351.262 201.221 351.231 201.217 351.195 201.208C351.226 201.229 351.262 201.251 351.293 201.272V201.277Z" fill="#A9A7A5"/>
<path d="M351.195 201.212C351.195 201.212 351.195 201.212 351.195 201.217C351.226 201.247 351.257 201.268 351.289 201.298L351.195 201.208V201.212Z" fill="#A9A7A5"/>
<path d="M351.195 201.213L351.288 201.303C351.288 201.303 351.288 201.29 351.288 201.282C351.257 201.26 351.222 201.239 351.19 201.217L351.195 201.213Z" fill="#A9A7A5"/>
<path d="M351.195 201.217C351.199 201.243 351.208 201.268 351.213 201.294C351.239 201.294 351.262 201.298 351.284 201.303C351.253 201.273 351.222 201.247 351.19 201.221L351.195 201.217Z" fill="#A9A7A5"/>
<path d="M365.559 226.562C364.905 226.515 364.251 226.472 363.601 226.425C364.184 227.418 364.86 227.164 365.559 226.562Z" fill="#A17D7B"/>
<path d="M363.852 228.817C364.797 228.92 365.322 228.146 365.496 227.227C365.443 227.244 365.389 227.261 365.335 227.278C364.663 227.339 364.036 227.231 363.471 226.913C363.287 227.751 363.261 228.752 363.852 228.817Z" fill="#A17D7B"/>
<path d="M363.467 226.91C364.031 227.224 364.658 227.336 365.331 227.276C365.384 227.259 365.438 227.241 365.492 227.224C365.532 227.009 365.555 226.786 365.555 226.562C364.851 227.164 364.175 227.418 363.597 226.425C363.547 226.575 363.503 226.739 363.467 226.91Z" fill="#A17D7B"/>
<path d="M606.595 103.552C606.259 103.655 605.855 104.162 605.837 104.511C605.802 105.185 606.259 105.722 607.025 105.439C607.338 105.323 607.455 104.713 607.737 104.184C607.289 103.918 606.859 103.471 606.599 103.548L606.595 103.552Z" fill="#D8D5D0"/>
<path d="M245.798 96.8834C262.192 95.2375 278.55 93.0243 295.074 92.7321C296.74 92.702 298.483 92.6203 299.599 91.0947C299.809 90.7037 299.971 90.3126 300.087 89.9301C297.22 89.1952 294.325 89.1824 291.427 89.38C290.517 89.8313 289.213 89.7152 288.196 89.6637C288.178 89.6637 288.165 89.6637 288.147 89.6637C287.125 89.7625 286.108 89.8614 285.096 89.9387C271.856 90.9443 258.635 92.1519 245.409 93.2907C243.979 93.7764 242.447 93.9869 241 94.4296C234.799 94.9023 228.63 95.5684 222.464 96.3549C221.51 96.4752 220.583 96.4666 219.678 96.372C214.601 96.9909 209.525 97.5968 204.44 98.1727C199.946 98.6841 195.488 99.5264 190.981 99.939C189.202 100.188 187.419 100.399 185.627 100.536C184.753 100.493 183.884 100.468 183.015 100.455C174.757 101.615 166.442 102.049 158.122 102.414C154.726 102.758 151.325 103.033 147.906 103.115C146.58 103.145 145.263 103.265 144 103.072C122.359 104.185 100.692 104.825 79.0564 105.964C72.73 106.295 66.4172 106.828 60.0954 107.301C58.5362 107.64 56.8919 107.649 55.2431 107.644C50.9151 107.932 46.578 108.16 42.2366 108.242C41.0582 108.263 39.8619 108.323 38.7015 108.534C37.8458 108.775 37.1782 109.282 37.1603 110.665C38.4282 112.427 40.2338 111.62 41.8199 111.529C48.5494 111.13 55.3282 111.744 62.0174 110.554C63.3392 110.317 64.7146 110.541 65.9467 111.211C65.9826 111.491 66.0139 111.736 66.0408 111.959C66.1484 111.95 66.2604 111.942 66.3679 111.933C81.2607 109.819 96.3058 110.12 111.284 109.325C137.543 107.924 163.803 106.471 190.058 105.04C190.636 104.984 191.209 104.928 191.787 104.872C192.02 104.808 192.244 104.769 192.468 104.752C201.738 103.072 211.093 102.006 220.493 101.232C220.578 101.224 220.663 101.211 220.749 101.202C220.892 100.88 221.093 100.515 221.38 100.089C229.297 97.4636 237.649 97.7086 245.803 96.8877L245.798 96.8834Z" fill="white"/>
<path d="M80.4364 104.524C80.2841 104.537 80.1362 104.554 79.9839 104.567C80.1407 104.58 80.2886 104.567 80.4364 104.524Z" fill="white"/>
<path d="M291.364 88.4951C290.997 88.5338 290.629 88.5725 290.257 88.6112C290.643 88.6928 291.023 88.7916 291.409 88.912C291.391 88.7702 291.377 88.6326 291.364 88.4951Z" fill="white"/>
<path d="M242.205 93.609C234.696 94.5244 227.187 95.4612 219.678 96.3723C220.587 96.4712 221.51 96.4798 222.465 96.3551C228.625 95.5687 234.799 94.9026 241 94.4298C242.447 93.9872 243.979 93.7766 245.409 93.291C244.692 93.3512 243.97 93.4156 243.254 93.4801C242.85 93.7208 242.501 93.7637 242.205 93.609Z" fill="white"/>
<path d="M299.599 91.0927C298.483 92.6141 296.74 92.7 295.074 92.7301C278.55 93.0223 262.192 95.2312 245.798 96.8815C237.644 97.7023 229.293 97.4573 221.376 100.083C221.089 100.509 220.883 100.874 220.744 101.196C246.175 98.1836 271.61 95.1711 297.242 94.2342C300.127 94.1311 302.462 94.0795 301.593 90.3708C301.095 90.1946 300.593 90.0528 300.092 89.9238C299.975 90.3106 299.814 90.6974 299.603 91.0884L299.599 91.0927Z" fill="white"/>
<path d="M291.427 89.3809C290.333 89.4539 289.24 89.5571 288.147 89.6645C288.165 89.6645 288.178 89.6645 288.196 89.6645C289.213 89.7161 290.517 89.8321 291.427 89.3809Z" fill="white"/>
<path d="M184.991 100.167C184.332 100.27 183.673 100.365 183.015 100.455C183.884 100.468 184.753 100.49 185.627 100.537C187.419 100.395 189.202 100.184 190.981 99.9395C188.996 100.12 187.002 100.219 184.991 100.172V100.167Z" fill="white"/>
<path d="M60.0954 107.304C58.478 107.424 56.8606 107.54 55.2432 107.648C56.8919 107.652 58.5362 107.648 60.0954 107.304Z" fill="white"/>
<path d="M144 103.074C145.263 103.267 146.58 103.147 147.906 103.117C151.325 103.035 154.726 102.756 158.122 102.416C154.322 102.584 150.527 102.734 146.733 102.936C145.823 102.983 144.909 103.026 144 103.074Z" fill="white"/>
<path d="M62.0175 110.552C55.3238 111.738 48.545 111.128 41.82 111.528C40.2339 111.622 38.4283 112.43 37.1604 110.664C37.1783 109.28 37.8503 108.773 38.7016 108.532C37.4068 108.769 36.1478 109.198 35.0053 109.985C34.5304 112.954 35.8431 114.355 38.9346 113.767C47.8954 112.065 57.0219 112.778 66.0364 111.953C66.014 111.73 65.9827 111.485 65.9423 111.205C64.7102 110.535 63.3348 110.311 62.0131 110.548L62.0175 110.552Z" fill="white"/>
<path d="M516.396 487.503C517.323 487.663 518.259 487.8 519.214 487.843C518.3 487.366 517.35 487.4 516.396 487.503Z" fill="white"/>
<path d="M251.838 493.106C250.059 493.407 248.231 493.205 246.425 493.111C244.597 493.02 243.011 493.205 243.428 495.599C243.495 495.741 243.571 495.874 243.643 496.012C245.52 496.424 247.429 496.635 249.365 496.51C251.556 496.373 253.746 496.252 255.942 496.14C258.124 495.878 260.306 495.633 262.492 495.857C265.386 495.749 268.281 495.663 271.18 495.595C271.439 495.552 271.704 495.539 271.968 495.573C276.803 495.462 281.637 495.388 286.471 495.35C287.157 495.311 287.847 495.302 288.537 495.337C307.834 495.208 327.14 495.44 346.428 494.765C346.145 494.765 345.868 494.757 345.585 494.761C343.771 494.77 340.876 495.242 340.729 492.565C340.693 491.869 340.845 491.366 341.132 491.005C338.345 491.461 335.563 491.955 332.713 491.211C332.135 490.734 331.678 490.356 331.338 490.038C331.217 490.038 331.091 490.038 330.97 490.042C321.588 490.876 312.189 490.631 302.793 490.614C302.282 490.743 301.767 490.739 301.252 490.614C300.087 490.614 298.922 490.618 297.753 490.631C284.182 490.782 270.611 490.906 257.035 491.044C256.479 491.478 255.884 491.499 255.243 491.13C255.162 491.151 255.077 491.168 254.996 491.194C255.077 493.119 253.155 492.883 251.833 493.106H251.838Z" fill="white"/>
<path d="M551.898 484.524C543.184 485.491 534.555 487.309 525.715 487.073C525.603 487.258 525.477 487.451 525.307 487.662C525.101 487.735 524.895 487.795 524.689 487.846C531.459 487.58 538.121 486.411 544.842 485.745C546.692 485.56 548.506 485.182 550.366 485.547C551.979 485.861 553.251 485.543 554.04 484.31C554.022 484.31 554.008 484.31 553.99 484.314C553.368 484.911 552.74 484.971 551.898 484.529V484.524Z" fill="white"/>
<path d="M494.59 487.122C493.698 486.778 492.712 486.495 491.937 486.069C482.278 486.177 472.613 486.409 462.958 486.267C449.23 486.061 435.538 486.924 421.828 487.161C421.698 487.29 421.564 487.414 421.425 487.539C432.214 486.98 443.021 486.834 453.845 487.075C464.943 487.324 476.032 486.817 487.166 487.255C492.506 487.466 497.955 487.487 503.389 487.268C500.459 487.101 497.529 486.972 494.59 487.127V487.122Z" fill="white"/>
<path d="M243.433 495.598C243.016 493.205 244.602 493.015 246.43 493.11C248.236 493.2 250.064 493.402 251.842 493.106C253.16 492.882 255.086 493.119 255.006 491.193C251.825 492.061 248.545 492.1 245.364 491.602C241.475 490.991 240.901 492.517 241.878 495.564C242.465 495.732 243.056 495.882 243.652 496.015C243.576 495.878 243.505 495.744 243.437 495.603L243.433 495.598Z" fill="white"/>
<path d="M286.471 495.353C287.161 495.348 287.847 495.344 288.537 495.34C287.847 495.306 287.157 495.314 286.471 495.353Z" fill="white"/>
<path d="M271.18 495.594C271.444 495.59 271.704 495.581 271.968 495.573C271.704 495.538 271.44 495.547 271.18 495.594Z" fill="white"/>
<path d="M255.942 496.146C258.124 496.038 260.306 495.944 262.492 495.862C260.306 495.638 258.124 495.883 255.942 496.146Z" fill="white"/>
<path d="M357.642 494.053C352.203 493.258 346.576 494.225 341.168 492.437C343.108 491.677 344.976 491.29 347.109 491.286C357.512 491.277 367.956 491.535 378.306 490.744C395.515 489.425 412.8 490.37 429.996 488.522C436.891 487.779 444.002 488.677 450.955 488.561C461.157 488.394 471.377 488.346 481.574 487.955C484.002 487.861 485.813 489.567 488.277 488.991C496.315 487.126 504.657 487.775 512.601 488.454C521.808 489.236 530.67 488.673 539.712 487.74C543.453 487.354 547.131 485.626 551.217 487.268C552.897 487.942 555.514 486.773 556.002 484.135C555.344 484.182 554.689 484.238 554.035 484.298C553.247 485.531 551.974 485.854 550.361 485.536C548.502 485.17 546.687 485.549 544.837 485.733C538.117 486.404 531.45 487.568 524.684 487.835C522.959 488.273 521.19 488.002 519.442 487.959C519.366 487.912 519.29 487.874 519.214 487.835C518.259 487.792 517.327 487.654 516.396 487.495C515.567 487.586 514.729 487.723 513.913 487.616C510.396 487.719 506.897 487.461 503.394 487.259C497.959 487.478 492.511 487.452 487.17 487.246C476.036 486.808 464.947 487.315 453.849 487.066C443.025 486.825 432.218 486.971 421.429 487.53C421.152 487.775 420.869 488.015 420.569 488.235C420.439 488.329 420.264 488.363 420.094 488.428C395.286 489.605 370.465 490.1 345.644 490.495C344.129 490.521 342.628 490.753 341.132 490.998C340.85 491.359 340.693 491.862 340.729 492.558C340.877 495.235 343.771 494.762 345.585 494.754C345.868 494.754 346.145 494.758 346.428 494.758C346.983 494.737 347.539 494.724 348.094 494.702C351.28 494.582 354.461 494.268 357.647 494.045L357.642 494.053Z" fill="white"/>
<path d="M255.247 491.129C255.888 491.503 256.484 491.481 257.04 491.043C257.017 491.043 256.995 491.043 256.972 491.043C256.399 491.069 255.821 491.099 255.247 491.125V491.129Z" fill="white"/>
<path d="M345.335 490.072C351.907 489.879 358.507 489.887 365.062 489.591C366.693 489.518 368.323 489.453 369.954 489.397C357.087 489.698 344.215 489.905 331.342 490.042C331.683 490.364 332.135 490.738 332.718 491.215C335.567 491.959 338.35 491.465 341.137 491.009C341.992 489.922 344 490.111 345.335 490.072Z" fill="white"/>
<path d="M302.637 489.783C302.301 489.783 301.969 489.778 301.633 489.778C302.023 489.907 302.35 489.89 302.637 489.783Z" fill="white"/>
<path d="M301.252 490.613C301.767 490.738 302.278 490.742 302.793 490.613C302.278 490.613 301.767 490.613 301.252 490.613Z" fill="white"/>
<path d="M553.991 484.31C553.292 484.374 552.597 484.447 551.898 484.524C552.736 484.967 553.363 484.907 553.991 484.31Z" fill="white"/>
<path d="M416.353 487.828C406.16 488.292 395.963 488.675 385.761 488.98C395.515 488.769 405.273 488.567 415.018 487.91C415.462 487.88 415.91 487.858 416.353 487.828Z" fill="white"/>
<path d="M494.589 487.124C497.529 486.969 500.459 487.098 503.389 487.265C505.669 487.175 507.945 487.046 510.213 486.861C512.327 486.69 514.348 487.149 516.391 487.502C517.345 487.399 518.295 487.364 519.209 487.841C519.209 487.841 519.209 487.841 519.214 487.841C521.046 487.927 522.87 487.914 524.684 487.841C524.89 487.79 525.096 487.734 525.302 487.656C525.473 487.446 525.603 487.253 525.71 487.068C525.674 487.068 525.643 487.068 525.607 487.068C523.241 487.48 520.876 487.442 518.51 487.046C517.498 487.029 516.485 487.012 515.477 486.995C508.376 486.677 501.274 486.363 494.173 486.045C493.429 486.049 492.681 486.062 491.937 486.071C492.708 486.496 493.693 486.78 494.589 487.124Z" fill="white"/>
<path d="M421.833 487.159C421.618 487.159 421.403 487.168 421.187 487.172C420.439 487.322 419.7 487.55 418.952 487.671C419.776 487.623 420.601 487.58 421.429 487.537C421.568 487.413 421.698 487.288 421.833 487.159Z" fill="white"/>
<path d="M519.218 487.841C519.218 487.841 519.218 487.841 519.214 487.841C519.29 487.879 519.366 487.918 519.442 487.965C521.194 488.013 522.959 488.279 524.684 487.841C522.87 487.914 521.046 487.922 519.214 487.841H519.218Z" fill="white"/>
<path d="M510.217 486.863C507.95 487.043 505.67 487.172 503.394 487.267C506.897 487.469 510.401 487.727 513.914 487.623C514.734 487.731 515.567 487.593 516.396 487.503C514.348 487.155 512.332 486.695 510.217 486.863Z" fill="white"/>
<path d="M420.094 488.439C420.26 488.37 420.439 488.34 420.569 488.246C420.869 488.027 421.152 487.786 421.429 487.541C420.605 487.584 419.781 487.627 418.952 487.674C418.719 487.713 418.481 487.739 418.244 487.752C417.612 487.782 416.985 487.807 416.353 487.833C415.91 487.863 415.462 487.885 415.018 487.915C405.273 488.572 395.519 488.774 385.761 488.985C380.492 489.144 375.219 489.277 369.95 489.402C368.319 489.458 366.688 489.522 365.057 489.595C358.502 489.892 351.903 489.883 345.33 490.077C343.995 490.115 341.983 489.926 341.132 491.013C342.633 490.768 344.134 490.532 345.644 490.511C370.465 490.115 395.282 489.621 420.094 488.443V488.439Z" fill="white"/>
<path d="M328.959 364.102C327.807 364.171 326.611 364.076 325.755 363.316C324.236 363.316 322.718 363.307 321.199 363.303C320.934 363.531 320.67 363.784 320.406 364.055C319.465 364.068 318.506 364.227 317.637 363.741C317.341 364.141 316.772 364.093 316.302 364.205C316.122 364.304 315.943 364.407 315.764 364.506C318.936 364.437 322.108 364.291 325.276 364.308C337.31 364.364 349.345 364.467 361.383 364.553C350.586 363.5 339.756 364.39 328.963 364.102H328.959Z" fill="#E0DED9"/>
<path d="M320.719 363.303C319.747 363.329 318.775 363.35 317.803 363.376C317.767 363.53 317.713 363.651 317.641 363.745C318.511 364.231 319.469 364.072 320.41 364.059C320.675 363.788 320.934 363.539 321.203 363.307C321.042 363.307 320.885 363.307 320.724 363.307L320.719 363.303Z" fill="#E0DED9"/>
<path d="M356.114 363.585C346.352 363.448 336.589 363.401 326.822 363.323C326.468 363.323 326.109 363.323 325.755 363.323C326.611 364.08 327.807 364.178 328.959 364.11C339.757 364.398 350.581 363.508 361.379 364.561C359.865 363.061 357.893 363.615 356.11 363.594L356.114 363.585Z" fill="#E0DED9"/>
<path d="M317.476 363.559C317.086 363.778 316.696 363.993 316.306 364.208C316.777 364.096 317.346 364.143 317.641 363.744C317.601 363.722 317.561 363.705 317.52 363.679C317.502 363.636 317.489 363.598 317.476 363.555V363.559Z" fill="#E0DED9"/>
<path d="M317.476 363.556C317.494 363.599 317.502 363.638 317.52 363.681C317.561 363.707 317.601 363.72 317.641 363.746C317.713 363.651 317.771 363.531 317.803 363.376C317.695 363.436 317.583 363.496 317.476 363.556Z" fill="#E0DED9"/>
<path d="M327.942 416.13C327.055 416.032 326.038 416.062 324.962 416.156C324.976 416.178 324.989 416.199 325.003 416.221C326.042 416.182 327.086 416.092 327.946 416.13H327.942Z" fill="#757472"/>
<path d="M327.942 416.132C328.506 416.192 329.022 416.304 329.452 416.489C329.102 416.252 328.569 416.162 327.942 416.132Z" fill="#757472"/>
<path d="M324.962 416.161C326.038 416.066 327.055 416.036 327.942 416.135C328.569 416.161 329.102 416.255 329.452 416.492C329.017 416.307 328.502 416.2 327.942 416.135C327.081 416.101 326.042 416.187 324.998 416.225C325.119 416.445 325.155 416.758 325.056 417.227C327.149 417.227 329.241 417.227 331.333 417.227C328.542 415.306 325.728 414.781 322.753 415.306C323.327 415.774 324.532 415.538 324.962 416.161Z" fill="#757472"/>
<path d="M324.882 416.229C324.922 416.229 324.958 416.229 324.998 416.225C324.985 416.203 324.971 416.182 324.958 416.16C324.877 416.169 324.792 416.173 324.711 416.182C324.738 416.199 324.765 416.225 324.787 416.246C324.819 416.242 324.846 416.233 324.877 416.229H324.882Z" fill="#757472"/>
<path d="M324.998 416.219C324.958 416.219 324.922 416.219 324.882 416.223C324.85 416.227 324.823 416.236 324.792 416.24C325.007 416.425 325.128 416.713 325.056 417.22C325.159 416.756 325.119 416.442 324.998 416.219Z" fill="#757472"/>
<path d="M324.711 416.181C324.797 416.173 324.877 416.168 324.958 416.16C324.532 415.532 323.323 415.769 322.749 415.305C323.063 415.971 324.138 415.799 324.707 416.186L324.711 416.181Z" fill="#757472"/>
<path d="M334.994 390.674C336.45 390.713 337.978 390.945 338.91 389.363C337.642 388.577 336.351 388.628 335.039 388.843C335.617 389.466 335.63 390.081 334.994 390.674Z" fill="#D7D5D1"/>
<path d="M334.994 390.674C335.63 390.077 335.617 389.467 335.039 388.844C335.025 389.454 335.007 390.064 334.994 390.674Z" fill="#D7D5D1"/>
<path d="M373.467 127.572C374.668 133.301 376.653 138.896 376.688 144.827C378.991 148.114 376.164 152.206 378.507 155.485C379.126 150.972 378.861 146.464 378.476 141.956C377.11 140.37 377.625 138.544 377.75 136.765C377.611 132.721 376.438 128.965 374.359 125.458C374.063 126.163 373.767 126.868 373.467 127.572Z" fill="#DDDBD7"/>
<path d="M377.168 151.758C376.751 149.485 377.575 147.1 376.688 144.826V158.462C378.136 157.306 378.718 156.567 378.507 155.484C375.797 155.02 377.396 153.021 377.168 151.758Z" fill="#8C8B88"/>
<path d="M376.688 144.826C377.571 147.1 376.751 149.48 377.168 151.758C377.401 153.021 375.797 155.02 378.507 155.484C376.164 152.205 378.991 148.114 376.688 144.826Z" fill="#8C8B88"/>
<path d="M374.358 125.454C373.83 124.298 373.453 122.996 371.321 122.579C372.159 124.526 372.813 126.047 373.467 127.568C373.086 126.602 372.53 125.566 374.358 125.454Z" fill="#D8D7D4"/>
<path d="M373.467 127.572C373.763 126.868 374.058 126.163 374.359 125.458C372.535 125.574 373.086 126.605 373.467 127.572Z" fill="#D8D7D4"/>
<path d="M378.476 141.952C378.687 140.164 378.624 138.411 377.75 136.765C378.534 138.423 377.62 140.301 378.476 141.952Z" fill="#C8C6C2"/>
<path d="M378.476 141.952C377.62 140.301 378.534 138.423 377.75 136.765C377.629 138.54 377.109 140.37 378.476 141.956V141.952Z" fill="#C8C6C2"/>
</svg>
