<svg width="127" height="162" viewBox="0 0 127 162" fill="none" xmlns="http://www.w3.org/2000/svg">
<g clip-path="url(#clip0_252_1242)">
<path d="M75.5342 128.875H75.5523C77.9401 127.469 82.4626 124.704 86.0534 121.831L92.3758 114.17C92.3758 114.17 92.3849 114.152 92.3939 114.143L95.8401 106.655L95.8582 106.601C96.4099 104.452 96.6089 102.195 96.2833 99.8378C95.5506 94.4983 95.3245 89.8477 95.216 86.1309C95.1165 82.695 95.1074 80.066 94.8813 78.4161C94.411 74.9894 94.8813 47.5754 95.3516 46.2881C95.822 45.0008 96.8802 21.8022 96.8802 21.8022C93.5517 23.0805 86.56 23.6788 83.6113 24.0142C79.8577 24.4403 64.825 26.1537 58.2493 26.5888C51.6736 27.0149 44.6276 27.8761 42.285 28.3022C40.7021 28.5923 38.676 28.8824 37.1022 28.6376V28.7283C37.1022 28.7283 38.061 42.8613 38.5313 45.4359C41.688 62.7057 52.6686 82.4049 38.0067 97.7437C32.833 103.156 26.1217 107.081 19.754 111.306C9.74128 117.923 0.361681 126.382 0.00892874 138.375C-0.00916114 138.91 -0.00916114 139.427 0.00892874 139.916C0.0179737 140.061 0.0360636 140.197 0.0451085 140.342C0.940557 148.837 8.49308 152.472 13.5854 152.898C13.6035 152.898 13.6306 152.898 13.6487 152.898C15.1682 152.88 16.4888 152.69 17.3843 152.508C18.334 152.318 19.8535 151.783 21.6806 151.049C27.9668 148.538 37.853 143.751 40.4036 143.089C42.7553 142.473 61.3969 135.529 73.7342 129.736L75.5342 128.875Z" fill="#8DA0E2"/>
<path d="M98.6349 13.87C98.6349 16.1635 99.5756 18.4299 98.6349 20.5784C98.436 21.0408 97.7938 21.4396 96.8802 21.7932C93.5517 23.0714 86.56 23.6698 83.6113 24.0052C79.8577 24.4313 64.825 26.1446 58.2493 26.5798C51.6736 27.0058 44.6276 27.8671 42.285 28.2931C40.7021 28.5832 38.676 28.8733 37.1022 28.6286C36.3515 28.5107 35.7003 28.275 35.239 27.858C33.828 26.5707 33.828 24.4675 33.828 21.8567C33.828 21.4306 31.0059 13.2898 33.828 12.0206C36.65 10.7605 41.8146 10.2891 44.6276 10.2891C47.4406 10.2891 56.3679 9.00182 59.6513 9.00182C62.9346 9.00182 77.9673 6.86237 80.9159 6.31844C83.8736 5.77451 97.6943 5.14899 99.051 6.31844C100.408 7.48788 98.6349 11.5673 98.6349 13.8609V13.87Z" fill="#466DAA"/>
<path d="M22.0786 150.795C22.0786 150.795 21.9429 150.894 21.6806 151.058C19.8626 151.792 18.343 152.327 17.3933 152.517C16.4978 152.699 15.1773 152.88 13.6577 152.907C13.6577 152.907 13.6125 152.907 13.5944 152.907C8.50211 152.49 0.949591 148.846 0.0541417 140.351C0.0360518 140.206 0.0270069 140.07 0.0179619 139.925C-0.000127938 139.436 -0.000127938 138.919 0.0179619 138.384C0.153636 133.942 1.31139 129.899 3.20178 126.282C3.23796 126.3 3.27414 126.309 3.31032 126.327C5.96049 127.424 22.4675 134.921 22.0786 150.804V150.795Z" fill="#466DAA"/>
<path d="M74.7202 129.41C74.0871 129.319 73.481 128.983 72.8389 128.349C71.6178 127.143 70.8218 125.629 69.8812 124.251C66.4079 119.111 66.9054 109.257 71.8711 98.1246C73.6891 94.0451 77.6327 91.0989 82.0647 89.1588C85.4746 87.663 89.1921 86.693 92.9548 86.0947C93.9769 85.9315 95.2522 85.3876 95.9487 85.8953C96.0301 85.9587 96.1024 86.0313 96.1658 86.131C96.5547 86.693 96.2019 88.6512 96.2381 89.3492C96.2833 90.5187 96.3647 91.679 96.4552 92.8485C96.9255 98.4963 96.7718 104.443 94.7638 109.91C92.6201 115.739 88.2333 120.598 83.2134 124.605C81.4406 126.019 79.5683 127.334 77.6146 128.539C76.5382 129.21 75.6157 129.555 74.7383 129.428L74.7202 129.41Z" fill="#5677BA"/>
<path d="M112.013 124.859C112.013 124.859 112.022 124.859 112.031 124.85C114.057 122.955 117.865 119.265 120.741 115.675L125.245 106.809C125.245 106.809 125.245 106.791 125.254 106.782L126.982 98.7138V98.6594C127.054 96.4383 126.756 94.1901 125.933 91.9691C124.051 86.9196 122.821 82.4322 121.899 78.8241C121.048 75.4971 120.47 72.9316 119.891 71.3723C118.688 68.1269 113.17 41.2749 113.342 39.9151C113.514 38.5553 109.498 15.6831 109.498 15.6831C106.531 17.6594 99.838 19.7807 97.0341 20.7507C93.4613 21.9927 79.1703 26.9515 72.8479 28.8099C66.5255 30.6683 59.8413 33.0435 57.6434 33.9772C56.16 34.6118 54.2515 35.328 52.6596 35.4458L52.6777 35.5365C52.6777 35.5365 56.6937 49.1256 57.7157 51.528C64.5628 67.6917 79.5683 84.5082 68.6059 102.684C64.7437 109.094 59.0363 114.406 53.7541 119.918C45.4418 128.585 38.1335 138.892 40.4037 150.677C40.5032 151.203 40.6208 151.701 40.7384 152.182C40.7746 152.318 40.8198 152.454 40.865 152.59C43.5876 160.676 51.7461 162.58 56.8113 161.873C56.8293 161.873 56.8565 161.873 56.8746 161.864C58.3489 161.51 59.5971 161.039 60.4383 160.667C61.3247 160.268 62.6814 159.416 64.3095 158.301C69.8902 154.475 78.501 147.64 80.8437 146.434C83.0054 145.319 99.6843 134.459 110.466 126.101L112.031 124.868L112.013 124.859Z" fill="#B3BFF4"/>
<path d="M109.498 7.5786C109.996 9.81777 111.407 11.8212 110.963 14.1239C110.864 14.6225 110.33 15.1483 109.516 15.6922C106.55 17.6685 99.8563 19.7898 97.0523 20.7598C93.4796 22.0018 79.1886 26.9606 72.8662 28.819C66.5437 30.6774 59.8595 33.0526 57.6616 33.9863C56.1782 34.6209 54.2698 35.3371 52.6779 35.4549C51.9181 35.5093 51.2307 35.4187 50.697 35.1104C49.0418 34.1676 48.5805 32.1098 48.0107 29.5624C47.9202 29.1454 43.3977 21.8205 45.867 19.962C48.3453 18.1127 53.2839 16.5262 56.0335 15.9098C58.7832 15.2933 67.2131 12.0841 70.415 11.368C73.6169 10.6518 87.8175 5.2669 90.5852 4.09745C93.353 2.92801 106.703 -0.716312 108.277 0.126777C109.851 0.969867 109.01 5.33942 109.516 7.5786H109.498Z" fill="#5677BA"/>
<path d="M64.6352 157.956C64.6352 157.956 64.5267 158.083 64.3006 158.301C62.6815 159.416 61.3157 160.268 60.4384 160.667C59.6063 161.039 58.358 161.51 56.8747 161.864C56.8747 161.864 56.8295 161.864 56.8114 161.873C51.7462 162.58 43.5877 160.676 40.8651 152.59C40.8199 152.454 40.7747 152.318 40.7385 152.182C40.6209 151.701 40.5033 151.203 40.4038 150.677C39.5627 146.316 39.8159 142.119 40.8742 138.167C40.9104 138.176 40.9465 138.185 40.9918 138.185C43.8138 138.683 61.56 142.382 64.6443 157.956H64.6352Z" fill="#5677BA"/>
<path d="M111.343 125.566C110.71 125.611 110.041 125.421 109.272 124.94C107.816 124.034 106.712 122.728 105.491 121.586C100.978 117.334 99.3136 107.607 101.738 95.6497C102.624 91.2711 105.826 87.5361 109.733 84.6714C112.736 82.4685 116.155 80.7008 119.692 79.2956C120.651 78.9149 121.781 78.099 122.568 78.4525C122.659 78.4979 122.749 78.5522 122.83 78.6338C123.328 79.0962 123.418 81.0815 123.599 81.7614C123.898 82.8855 124.223 84.0097 124.576 85.1247C126.267 90.5277 127.416 96.3659 126.638 102.141C125.815 108.305 122.595 113.998 118.57 119.011C117.15 120.779 115.613 122.474 113.966 124.079C113.062 124.967 112.239 125.511 111.352 125.575L111.343 125.566Z" fill="#5677BA"/>
</g>
<defs>
<clipPath id="clip0_252_1242">
<rect width="127" height="162" fill="white"/>
</clipPath>
</defs>
</svg>
