<svg width="244" height="244" viewBox="0 0 244 244" fill="none" xmlns="http://www.w3.org/2000/svg">
<rect width="244" height="244" fill="#023D69"/>
<g clip-path="url(#clip0_248_80)">
<path d="M68.2212 5.95117H62.5603V11.6121H68.2212V5.95117Z" fill="white"/>
<path d="M73.8821 5.95117H68.2212V11.6121H73.8821V5.95117Z" fill="white"/>
<path d="M85.204 5.95117H79.5431V11.6121H85.204V5.95117Z" fill="white"/>
<path d="M90.8649 5.95117H85.204V11.6121H90.8649V5.95117Z" fill="white"/>
<path d="M107.848 5.95117H102.187V11.6121H107.848V5.95117Z" fill="white"/>
<path d="M119.169 5.95117H113.509V11.6121H119.169V5.95117Z" fill="white"/>
<path d="M130.491 5.95117H124.83V11.6121H130.491V5.95117Z" fill="white"/>
<path d="M136.152 5.95117H130.491V11.6121H136.152V5.95117Z" fill="white"/>
<path d="M141.813 5.95117H136.152V11.6121H141.813V5.95117Z" fill="white"/>
<path d="M147.474 5.95117H141.813V11.6121H147.474V5.95117Z" fill="white"/>
<path d="M158.796 5.95117H153.135V11.6121H158.796V5.95117Z" fill="white"/>
<path d="M175.779 5.95117H170.118V11.6121H175.779V5.95117Z" fill="white"/>
<path d="M181.44 5.95117H175.779V11.6121H181.44V5.95117Z" fill="white"/>
<path d="M192.761 5.95117H187.1V11.6121H192.761V5.95117Z" fill="white"/>
<path d="M56.8994 11.6121H51.2385V17.273H56.8994V11.6121Z" fill="white"/>
<path d="M62.5603 11.6121H56.8994V17.273H62.5603V11.6121Z" fill="white"/>
<path d="M68.2212 11.6121H62.5603V17.273H68.2212V11.6121Z" fill="white"/>
<path d="M85.204 11.6121H79.5431V17.273H85.204V11.6121Z" fill="white"/>
<path d="M90.8649 11.6121H85.204V17.273H90.8649V11.6121Z" fill="white"/>
<path d="M96.5258 11.6121H90.8649V17.273H96.5258V11.6121Z" fill="white"/>
<path d="M102.187 11.6121H96.5259V17.273H102.187V11.6121Z" fill="white"/>
<path d="M113.509 11.6121H107.848V17.273H113.509V11.6121Z" fill="white"/>
<path d="M130.491 11.6121H124.83V17.273H130.491V11.6121Z" fill="white"/>
<path d="M136.152 11.6121H130.491V17.273H136.152V11.6121Z" fill="white"/>
<path d="M147.474 11.6121H141.813V17.273H147.474V11.6121Z" fill="white"/>
<path d="M153.135 11.6121H147.474V17.273H153.135V11.6121Z" fill="white"/>
<path d="M164.457 11.6121H158.796V17.273H164.457V11.6121Z" fill="white"/>
<path d="M175.779 11.6121H170.118V17.273H175.779V11.6121Z" fill="white"/>
<path d="M192.761 11.6121H187.1V17.273H192.761V11.6121Z" fill="white"/>
<path d="M62.5603 17.2729H56.8994V22.9339H62.5603V17.2729Z" fill="white"/>
<path d="M73.8821 17.2729H68.2212V22.9339H73.8821V17.2729Z" fill="white"/>
<path d="M85.204 17.2729H79.5431V22.9339H85.204V17.2729Z" fill="white"/>
<path d="M113.509 17.2729H107.848V22.9339H113.509V17.2729Z" fill="white"/>
<path d="M119.169 17.2729H113.509V22.9339H119.169V17.2729Z" fill="white"/>
<path d="M130.491 17.2729H124.83V22.9339H130.491V17.2729Z" fill="white"/>
<path d="M136.152 17.2729H130.491V22.9339H136.152V17.2729Z" fill="white"/>
<path d="M141.813 17.2729H136.152V22.9339H141.813V17.2729Z" fill="white"/>
<path d="M158.796 17.2729H153.135V22.9339H158.796V17.2729Z" fill="white"/>
<path d="M164.457 17.2729H158.796V22.9339H164.457V17.2729Z" fill="white"/>
<path d="M187.1 17.2729H181.44V22.9339H187.1V17.2729Z" fill="white"/>
<path d="M192.761 17.2729H187.1V22.9339H192.761V17.2729Z" fill="white"/>
<path d="M56.8994 22.934H51.2385V28.5949H56.8994V22.934Z" fill="white"/>
<path d="M62.5603 22.934H56.8994V28.5949H62.5603V22.934Z" fill="white"/>
<path d="M68.2212 22.934H62.5603V28.5949H68.2212V22.934Z" fill="white"/>
<path d="M73.8821 22.934H68.2212V28.5949H73.8821V22.934Z" fill="white"/>
<path d="M90.8649 22.934H85.204V28.5949H90.8649V22.934Z" fill="white"/>
<path d="M96.5258 22.934H90.8649V28.5949H96.5258V22.934Z" fill="white"/>
<path d="M102.187 22.934H96.5259V28.5949H102.187V22.934Z" fill="white"/>
<path d="M107.848 22.934H102.187V28.5949H107.848V22.934Z" fill="white"/>
<path d="M113.509 22.934H107.848V28.5949H113.509V22.934Z" fill="white"/>
<path d="M124.83 22.934H119.169V28.5949H124.83V22.934Z" fill="white"/>
<path d="M153.135 22.934H147.474V28.5949H153.135V22.934Z" fill="white"/>
<path d="M158.796 22.934H153.135V28.5949H158.796V22.934Z" fill="white"/>
<path d="M170.118 22.934H164.457V28.5949H170.118V22.934Z" fill="white"/>
<path d="M175.779 22.934H170.118V28.5949H175.779V22.934Z" fill="white"/>
<path d="M68.2212 28.5948H62.5603V34.2558H68.2212V28.5948Z" fill="white"/>
<path d="M73.8821 28.5948H68.2212V34.2558H73.8821V28.5948Z" fill="white"/>
<path d="M79.5431 28.5948H73.8822V34.2558H79.5431V28.5948Z" fill="white"/>
<path d="M85.204 28.5948H79.5431V34.2558H85.204V28.5948Z" fill="white"/>
<path d="M96.5258 28.5948H90.8649V34.2558H96.5258V28.5948Z" fill="white"/>
<path d="M119.169 28.5948H113.509V34.2558H119.169V28.5948Z" fill="white"/>
<path d="M130.491 28.5948H124.83V34.2558H130.491V28.5948Z" fill="white"/>
<path d="M136.152 28.5948H130.491V34.2558H136.152V28.5948Z" fill="white"/>
<path d="M141.813 28.5948H136.152V34.2558H141.813V28.5948Z" fill="white"/>
<path d="M147.474 28.5948H141.813V34.2558H147.474V28.5948Z" fill="white"/>
<path d="M170.118 28.5948H164.457V34.2558H170.118V28.5948Z" fill="white"/>
<path d="M175.779 28.5948H170.118V34.2558H175.779V28.5948Z" fill="white"/>
<path d="M192.761 28.5948H187.1V34.2558H192.761V28.5948Z" fill="white"/>
<path d="M56.8994 34.2557H51.2385V39.9167H56.8994V34.2557Z" fill="white"/>
<path d="M62.5603 34.2557H56.8994V39.9167H62.5603V34.2557Z" fill="white"/>
<path d="M68.2212 34.2557H62.5603V39.9167H68.2212V34.2557Z" fill="white"/>
<path d="M79.5431 34.2557H73.8822V39.9167H79.5431V34.2557Z" fill="white"/>
<path d="M96.5258 34.2557H90.8649V39.9167H96.5258V34.2557Z" fill="white"/>
<path d="M102.187 34.2557H96.5259V39.9167H102.187V34.2557Z" fill="white"/>
<path d="M113.509 34.2557H107.848V39.9167H113.509V34.2557Z" fill="white"/>
<path d="M136.152 34.2557H130.491V39.9167H136.152V34.2557Z" fill="white"/>
<path d="M147.474 34.2557H141.813V39.9167H147.474V34.2557Z" fill="white"/>
<path d="M164.457 34.2557H158.796V39.9167H164.457V34.2557Z" fill="white"/>
<path d="M170.118 34.2557H164.457V39.9167H170.118V34.2557Z" fill="white"/>
<path d="M175.779 34.2557H170.118V39.9167H175.779V34.2557Z" fill="white"/>
<path d="M56.8994 39.9166H51.2385V45.5775H56.8994V39.9166Z" fill="white"/>
<path d="M68.2212 39.9166H62.5603V45.5775H68.2212V39.9166Z" fill="white"/>
<path d="M79.5431 39.9166H73.8822V45.5775H79.5431V39.9166Z" fill="white"/>
<path d="M90.8649 39.9166H85.204V45.5775H90.8649V39.9166Z" fill="white"/>
<path d="M102.187 39.9166H96.5259V45.5775H102.187V39.9166Z" fill="white"/>
<path d="M113.509 39.9166H107.848V45.5775H113.509V39.9166Z" fill="white"/>
<path d="M124.83 39.9166H119.169V45.5775H124.83V39.9166Z" fill="white"/>
<path d="M136.152 39.9166H130.491V45.5775H136.152V39.9166Z" fill="white"/>
<path d="M147.474 39.9166H141.813V45.5775H147.474V39.9166Z" fill="white"/>
<path d="M158.796 39.9166H153.135V45.5775H158.796V39.9166Z" fill="white"/>
<path d="M170.118 39.9166H164.457V45.5775H170.118V39.9166Z" fill="white"/>
<path d="M181.44 39.9166H175.779V45.5775H181.44V39.9166Z" fill="white"/>
<path d="M192.761 39.9166H187.1V45.5775H192.761V39.9166Z" fill="white"/>
<path d="M68.2212 45.5776H62.5603V51.2386H68.2212V45.5776Z" fill="white"/>
<path d="M73.8821 45.5776H68.2212V51.2386H73.8821V45.5776Z" fill="white"/>
<path d="M79.5431 45.5776H73.8822V51.2386H79.5431V45.5776Z" fill="white"/>
<path d="M90.8649 45.5776H85.204V51.2386H90.8649V45.5776Z" fill="white"/>
<path d="M96.5258 45.5776H90.8649V51.2386H96.5258V45.5776Z" fill="white"/>
<path d="M113.509 45.5776H107.848V51.2386H113.509V45.5776Z" fill="white"/>
<path d="M124.83 45.5776H119.169V51.2386H124.83V45.5776Z" fill="white"/>
<path d="M130.491 45.5776H124.83V51.2386H130.491V45.5776Z" fill="white"/>
<path d="M136.152 45.5776H130.491V51.2386H136.152V45.5776Z" fill="white"/>
<path d="M147.474 45.5776H141.813V51.2386H147.474V45.5776Z" fill="white"/>
<path d="M164.457 45.5776H158.796V51.2386H164.457V45.5776Z" fill="white"/>
<path d="M11.6121 51.2385H5.95117V56.8994H11.6121V51.2385Z" fill="white"/>
<path d="M17.273 51.2385H11.6121V56.8994H17.273V51.2385Z" fill="white"/>
<path d="M22.9339 51.2385H17.2729V56.8994H22.9339V51.2385Z" fill="white"/>
<path d="M28.5949 51.2385H22.934V56.8994H28.5949V51.2385Z" fill="white"/>
<path d="M34.2558 51.2385H28.5948V56.8994H34.2558V51.2385Z" fill="white"/>
<path d="M45.5775 51.2385H39.9166V56.8994H45.5775V51.2385Z" fill="white"/>
<path d="M51.2386 51.2385H45.5776V56.8994H51.2386V51.2385Z" fill="white"/>
<path d="M56.8994 51.2385H51.2385V56.8994H56.8994V51.2385Z" fill="white"/>
<path d="M62.5603 51.2385H56.8994V56.8994H62.5603V51.2385Z" fill="white"/>
<path d="M85.204 51.2385H79.5431V56.8994H85.204V51.2385Z" fill="white"/>
<path d="M96.5258 51.2385H90.8649V56.8994H96.5258V51.2385Z" fill="white"/>
<path d="M102.187 51.2385H96.5259V56.8994H102.187V51.2385Z" fill="white"/>
<path d="M107.848 51.2385H102.187V56.8994H107.848V51.2385Z" fill="white"/>
<path d="M113.509 51.2385H107.848V56.8994H113.509V51.2385Z" fill="white"/>
<path d="M124.83 51.2385H119.169V56.8994H124.83V51.2385Z" fill="white"/>
<path d="M153.135 51.2385H147.474V56.8994H153.135V51.2385Z" fill="white"/>
<path d="M164.457 51.2385H158.796V56.8994H164.457V51.2385Z" fill="white"/>
<path d="M170.118 51.2385H164.457V56.8994H170.118V51.2385Z" fill="white"/>
<path d="M198.422 51.2385H192.761V56.8994H198.422V51.2385Z" fill="white"/>
<path d="M209.744 51.2385H204.083V56.8994H209.744V51.2385Z" fill="white"/>
<path d="M221.066 51.2385H215.405V56.8994H221.066V51.2385Z" fill="white"/>
<path d="M232.388 51.2385H226.727V56.8994H232.388V51.2385Z" fill="white"/>
<path d="M11.6121 56.8994H5.95117V62.5603H11.6121V56.8994Z" fill="white"/>
<path d="M17.273 56.8994H11.6121V62.5603H17.273V56.8994Z" fill="white"/>
<path d="M28.5949 56.8994H22.934V62.5603H28.5949V56.8994Z" fill="white"/>
<path d="M34.2558 56.8994H28.5948V62.5603H34.2558V56.8994Z" fill="white"/>
<path d="M56.8994 56.8994H51.2385V62.5603H56.8994V56.8994Z" fill="white"/>
<path d="M68.2212 56.8994H62.5603V62.5603H68.2212V56.8994Z" fill="white"/>
<path d="M90.8649 56.8994H85.204V62.5603H90.8649V56.8994Z" fill="white"/>
<path d="M107.848 56.8994H102.187V62.5603H107.848V56.8994Z" fill="white"/>
<path d="M119.169 56.8994H113.509V62.5603H119.169V56.8994Z" fill="white"/>
<path d="M130.491 56.8994H124.83V62.5603H130.491V56.8994Z" fill="white"/>
<path d="M136.152 56.8994H130.491V62.5603H136.152V56.8994Z" fill="white"/>
<path d="M141.813 56.8994H136.152V62.5603H141.813V56.8994Z" fill="white"/>
<path d="M147.474 56.8994H141.813V62.5603H147.474V56.8994Z" fill="white"/>
<path d="M153.135 56.8994H147.474V62.5603H153.135V56.8994Z" fill="white"/>
<path d="M158.796 56.8994H153.135V62.5603H158.796V56.8994Z" fill="white"/>
<path d="M164.457 56.8994H158.796V62.5603H164.457V56.8994Z" fill="white"/>
<path d="M170.118 56.8994H164.457V62.5603H170.118V56.8994Z" fill="white"/>
<path d="M192.761 56.8994H187.1V62.5603H192.761V56.8994Z" fill="white"/>
<path d="M204.083 56.8994H198.422V62.5603H204.083V56.8994Z" fill="white"/>
<path d="M215.405 56.8994H209.744V62.5603H215.405V56.8994Z" fill="white"/>
<path d="M238.049 56.8994H232.388V62.5603H238.049V56.8994Z" fill="white"/>
<path d="M39.9167 62.5603H34.2557V68.2212H39.9167V62.5603Z" fill="white"/>
<path d="M45.5775 62.5603H39.9166V68.2212H45.5775V62.5603Z" fill="white"/>
<path d="M51.2386 62.5603H45.5776V68.2212H51.2386V62.5603Z" fill="white"/>
<path d="M62.5603 62.5603H56.8994V68.2212H62.5603V62.5603Z" fill="white"/>
<path d="M68.2212 62.5603H62.5603V68.2212H68.2212V62.5603Z" fill="white"/>
<path d="M73.8821 62.5603H68.2212V68.2212H73.8821V62.5603Z" fill="white"/>
<path d="M96.5258 62.5603H90.8649V68.2212H96.5258V62.5603Z" fill="white"/>
<path d="M113.509 62.5603H107.848V68.2212H113.509V62.5603Z" fill="white"/>
<path d="M124.83 62.5603H119.169V68.2212H124.83V62.5603Z" fill="white"/>
<path d="M130.491 62.5603H124.83V68.2212H130.491V62.5603Z" fill="white"/>
<path d="M164.457 62.5603H158.796V68.2212H164.457V62.5603Z" fill="white"/>
<path d="M170.118 62.5603H164.457V68.2212H170.118V62.5603Z" fill="white"/>
<path d="M175.779 62.5603H170.118V68.2212H175.779V62.5603Z" fill="white"/>
<path d="M198.422 62.5603H192.761V68.2212H198.422V62.5603Z" fill="white"/>
<path d="M232.388 62.5603H226.727V68.2212H232.388V62.5603Z" fill="white"/>
<path d="M11.6121 68.2212H5.95117V73.8821H11.6121V68.2212Z" fill="white"/>
<path d="M22.9339 68.2212H17.2729V73.8821H22.9339V68.2212Z" fill="white"/>
<path d="M34.2558 68.2212H28.5948V73.8821H34.2558V68.2212Z" fill="white"/>
<path d="M51.2386 68.2212H45.5776V73.8821H51.2386V68.2212Z" fill="white"/>
<path d="M56.8994 68.2212H51.2385V73.8821H56.8994V68.2212Z" fill="white"/>
<path d="M68.2212 68.2212H62.5603V73.8821H68.2212V68.2212Z" fill="white"/>
<path d="M73.8821 68.2212H68.2212V73.8821H73.8821V68.2212Z" fill="white"/>
<path d="M79.5431 68.2212H73.8822V73.8821H79.5431V68.2212Z" fill="white"/>
<path d="M90.8649 68.2212H85.204V73.8821H90.8649V68.2212Z" fill="white"/>
<path d="M96.5258 68.2212H90.8649V73.8821H96.5258V68.2212Z" fill="white"/>
<path d="M113.509 68.2212H107.848V73.8821H113.509V68.2212Z" fill="white"/>
<path d="M124.83 68.2212H119.169V73.8821H124.83V68.2212Z" fill="white"/>
<path d="M130.491 68.2212H124.83V73.8821H130.491V68.2212Z" fill="white"/>
<path d="M147.474 68.2212H141.813V73.8821H147.474V68.2212Z" fill="white"/>
<path d="M158.796 68.2212H153.135V73.8821H158.796V68.2212Z" fill="white"/>
<path d="M164.457 68.2212H158.796V73.8821H164.457V68.2212Z" fill="white"/>
<path d="M181.44 68.2212H175.779V73.8821H181.44V68.2212Z" fill="white"/>
<path d="M187.1 68.2212H181.44V73.8821H187.1V68.2212Z" fill="white"/>
<path d="M192.761 68.2212H187.1V73.8821H192.761V68.2212Z" fill="white"/>
<path d="M198.422 68.2212H192.761V73.8821H198.422V68.2212Z" fill="white"/>
<path d="M209.744 68.2212H204.083V73.8821H209.744V68.2212Z" fill="white"/>
<path d="M215.405 68.2212H209.744V73.8821H215.405V68.2212Z" fill="white"/>
<path d="M22.9339 73.8822H17.2729V79.5431H22.9339V73.8822Z" fill="white"/>
<path d="M34.2558 73.8822H28.5948V79.5431H34.2558V73.8822Z" fill="white"/>
<path d="M39.9167 73.8822H34.2557V79.5431H39.9167V73.8822Z" fill="white"/>
<path d="M45.5775 73.8822H39.9166V79.5431H45.5775V73.8822Z" fill="white"/>
<path d="M51.2386 73.8822H45.5776V79.5431H51.2386V73.8822Z" fill="white"/>
<path d="M56.8994 73.8822H51.2385V79.5431H56.8994V73.8822Z" fill="white"/>
<path d="M73.8821 73.8822H68.2212V79.5431H73.8821V73.8822Z" fill="white"/>
<path d="M79.5431 73.8822H73.8822V79.5431H79.5431V73.8822Z" fill="white"/>
<path d="M96.5258 73.8822H90.8649V79.5431H96.5258V73.8822Z" fill="white"/>
<path d="M124.83 73.8822H119.169V79.5431H124.83V73.8822Z" fill="white"/>
<path d="M141.813 73.8822H136.152V79.5431H141.813V73.8822Z" fill="white"/>
<path d="M153.135 73.8822H147.474V79.5431H153.135V73.8822Z" fill="white"/>
<path d="M158.796 73.8822H153.135V79.5431H158.796V73.8822Z" fill="white"/>
<path d="M175.779 73.8822H170.118V79.5431H175.779V73.8822Z" fill="white"/>
<path d="M187.1 73.8822H181.44V79.5431H187.1V73.8822Z" fill="white"/>
<path d="M209.744 73.8822H204.083V79.5431H209.744V73.8822Z" fill="white"/>
<path d="M215.405 73.8822H209.744V79.5431H215.405V73.8822Z" fill="white"/>
<path d="M221.066 73.8822H215.405V79.5431H221.066V73.8822Z" fill="white"/>
<path d="M226.727 73.8822H221.066V79.5431H226.727V73.8822Z" fill="white"/>
<path d="M232.388 73.8822H226.727V79.5431H232.388V73.8822Z" fill="white"/>
<path d="M22.9339 79.5431H17.2729V85.204H22.9339V79.5431Z" fill="white"/>
<path d="M39.9167 79.5431H34.2557V85.204H39.9167V79.5431Z" fill="white"/>
<path d="M62.5603 79.5431H56.8994V85.204H62.5603V79.5431Z" fill="white"/>
<path d="M68.2212 79.5431H62.5603V85.204H68.2212V79.5431Z" fill="white"/>
<path d="M85.204 79.5431H79.5431V85.204H85.204V79.5431Z" fill="white"/>
<path d="M90.8649 79.5431H85.204V85.204H90.8649V79.5431Z" fill="white"/>
<path d="M96.5258 79.5431H90.8649V85.204H96.5258V79.5431Z" fill="white"/>
<path d="M102.187 79.5431H96.5259V85.204H102.187V79.5431Z" fill="white"/>
<path d="M113.509 79.5431H107.848V85.204H113.509V79.5431Z" fill="white"/>
<path d="M119.169 79.5431H113.509V85.204H119.169V79.5431Z" fill="white"/>
<path d="M136.152 79.5431H130.491V85.204H136.152V79.5431Z" fill="white"/>
<path d="M141.813 79.5431H136.152V85.204H141.813V79.5431Z" fill="white"/>
<path d="M147.474 79.5431H141.813V85.204H147.474V79.5431Z" fill="white"/>
<path d="M170.118 79.5431H164.457V85.204H170.118V79.5431Z" fill="white"/>
<path d="M181.44 79.5431H175.779V85.204H181.44V79.5431Z" fill="white"/>
<path d="M187.1 79.5431H181.44V85.204H187.1V79.5431Z" fill="white"/>
<path d="M198.422 79.5431H192.761V85.204H198.422V79.5431Z" fill="white"/>
<path d="M204.083 79.5431H198.422V85.204H204.083V79.5431Z" fill="white"/>
<path d="M209.744 79.5431H204.083V85.204H209.744V79.5431Z" fill="white"/>
<path d="M215.405 79.5431H209.744V85.204H215.405V79.5431Z" fill="white"/>
<path d="M221.066 79.5431H215.405V85.204H221.066V79.5431Z" fill="white"/>
<path d="M238.049 79.5431H232.388V85.204H238.049V79.5431Z" fill="white"/>
<path d="M11.6121 85.204H5.95117V90.8649H11.6121V85.204Z" fill="white"/>
<path d="M17.273 85.204H11.6121V90.8649H17.273V85.204Z" fill="white"/>
<path d="M28.5949 85.204H22.934V90.8649H28.5949V85.204Z" fill="white"/>
<path d="M34.2558 85.204H28.5948V90.8649H34.2558V85.204Z" fill="white"/>
<path d="M39.9167 85.204H34.2557V90.8649H39.9167V85.204Z" fill="white"/>
<path d="M45.5775 85.204H39.9166V90.8649H45.5775V85.204Z" fill="white"/>
<path d="M56.8994 85.204H51.2385V90.8649H56.8994V85.204Z" fill="white"/>
<path d="M62.5603 85.204H56.8994V90.8649H62.5603V85.204Z" fill="white"/>
<path d="M73.8821 85.204H68.2212V90.8649H73.8821V85.204Z" fill="white"/>
<path d="M79.5431 85.204H73.8822V90.8649H79.5431V85.204Z" fill="white"/>
<path d="M130.491 85.204H124.83V90.8649H130.491V85.204Z" fill="white"/>
<path d="M164.457 85.204H158.796V90.8649H164.457V85.204Z" fill="white"/>
<path d="M175.779 85.204H170.118V90.8649H175.779V85.204Z" fill="white"/>
<path d="M192.761 85.204H187.1V90.8649H192.761V85.204Z" fill="white"/>
<path d="M198.422 85.204H192.761V90.8649H198.422V85.204Z" fill="white"/>
<path d="M215.405 85.204H209.744V90.8649H215.405V85.204Z" fill="white"/>
<path d="M221.066 85.204H215.405V90.8649H221.066V85.204Z" fill="white"/>
<path d="M226.727 85.204H221.066V90.8649H226.727V85.204Z" fill="white"/>
<path d="M232.388 85.204H226.727V90.8649H232.388V85.204Z" fill="white"/>
<path d="M22.9339 90.8649H17.2729V96.5258H22.9339V90.8649Z" fill="white"/>
<path d="M28.5949 90.8649H22.934V96.5258H28.5949V90.8649Z" fill="white"/>
<path d="M39.9167 90.8649H34.2557V96.5258H39.9167V90.8649Z" fill="white"/>
<path d="M51.2386 90.8649H45.5776V96.5258H51.2386V90.8649Z" fill="white"/>
<path d="M62.5603 90.8649H56.8994V96.5258H62.5603V90.8649Z" fill="white"/>
<path d="M73.8821 90.8649H68.2212V96.5258H73.8821V90.8649Z" fill="white"/>
<path d="M102.187 90.8649H96.5259V96.5258H102.187V90.8649Z" fill="white"/>
<path d="M113.509 90.8649H107.848V96.5258H113.509V90.8649Z" fill="white"/>
<path d="M130.491 90.8649H124.83V96.5258H130.491V90.8649Z" fill="white"/>
<path d="M136.152 90.8649H130.491V96.5258H136.152V90.8649Z" fill="white"/>
<path d="M141.813 90.8649H136.152V96.5258H141.813V90.8649Z" fill="white"/>
<path d="M158.796 90.8649H153.135V96.5258H158.796V90.8649Z" fill="white"/>
<path d="M181.44 90.8649H175.779V96.5258H181.44V90.8649Z" fill="white"/>
<path d="M192.761 90.8649H187.1V96.5258H192.761V90.8649Z" fill="white"/>
<path d="M198.422 90.8649H192.761V96.5258H198.422V90.8649Z" fill="white"/>
<path d="M215.405 90.8649H209.744V96.5258H215.405V90.8649Z" fill="white"/>
<path d="M221.066 90.8649H215.405V96.5258H221.066V90.8649Z" fill="white"/>
<path d="M232.388 90.8649H226.727V96.5258H232.388V90.8649Z" fill="white"/>
<path d="M11.6121 96.5259H5.95117V102.187H11.6121V96.5259Z" fill="white"/>
<path d="M22.9339 96.5259H17.2729V102.187H22.9339V96.5259Z" fill="white"/>
<path d="M39.9167 96.5259H34.2557V102.187H39.9167V96.5259Z" fill="white"/>
<path d="M45.5775 96.5259H39.9166V102.187H45.5775V96.5259Z" fill="white"/>
<path d="M51.2386 96.5259H45.5776V102.187H51.2386V96.5259Z" fill="white"/>
<path d="M62.5603 96.5259H56.8994V102.187H62.5603V96.5259Z" fill="white"/>
<path d="M68.2212 96.5259H62.5603V102.187H68.2212V96.5259Z" fill="white"/>
<path d="M73.8821 96.5259H68.2212V102.187H73.8821V96.5259Z" fill="white"/>
<path d="M85.204 96.5259H79.5431V102.187H85.204V96.5259Z" fill="white"/>
<path d="M102.187 96.5259H96.5259V102.187H102.187V96.5259Z" fill="white"/>
<path d="M107.848 96.5259H102.187V102.187H107.848V96.5259Z" fill="white"/>
<path d="M113.509 96.5259H107.848V102.187H113.509V96.5259Z" fill="white"/>
<path d="M124.83 96.5259H119.169V102.187H124.83V96.5259Z" fill="white"/>
<path d="M153.135 96.5259H147.474V102.187H153.135V96.5259Z" fill="white"/>
<path d="M164.457 96.5259H158.796V102.187H164.457V96.5259Z" fill="white"/>
<path d="M175.779 96.5259H170.118V102.187H175.779V96.5259Z" fill="white"/>
<path d="M181.44 96.5259H175.779V102.187H181.44V96.5259Z" fill="white"/>
<path d="M187.1 96.5259H181.44V102.187H187.1V96.5259Z" fill="white"/>
<path d="M198.422 96.5259H192.761V102.187H198.422V96.5259Z" fill="white"/>
<path d="M209.744 96.5259H204.083V102.187H209.744V96.5259Z" fill="white"/>
<path d="M232.388 96.5259H226.727V102.187H232.388V96.5259Z" fill="white"/>
<path d="M17.273 102.187H11.6121V107.848H17.273V102.187Z" fill="white"/>
<path d="M34.2558 102.187H28.5948V107.848H34.2558V102.187Z" fill="white"/>
<path d="M39.9167 102.187H34.2557V107.848H39.9167V102.187Z" fill="white"/>
<path d="M62.5603 102.187H56.8994V107.848H62.5603V102.187Z" fill="white"/>
<path d="M85.204 102.187H79.5431V107.848H85.204V102.187Z" fill="white"/>
<path d="M90.8649 102.187H85.204V107.848H90.8649V102.187Z" fill="white"/>
<path d="M119.169 102.187H113.509V107.848H119.169V102.187Z" fill="white"/>
<path d="M130.491 102.187H124.83V107.848H130.491V102.187Z" fill="white"/>
<path d="M136.152 102.187H130.491V107.848H136.152V102.187Z" fill="white"/>
<path d="M141.813 102.187H136.152V107.848H141.813V102.187Z" fill="white"/>
<path d="M147.474 102.187H141.813V107.848H147.474V102.187Z" fill="white"/>
<path d="M153.135 102.187H147.474V107.848H153.135V102.187Z" fill="white"/>
<path d="M158.796 102.187H153.135V107.848H158.796V102.187Z" fill="white"/>
<path d="M164.457 102.187H158.796V107.848H164.457V102.187Z" fill="white"/>
<path d="M170.118 102.187H164.457V107.848H170.118V102.187Z" fill="white"/>
<path d="M175.779 102.187H170.118V107.848H175.779V102.187Z" fill="white"/>
<path d="M181.44 102.187H175.779V107.848H181.44V102.187Z" fill="white"/>
<path d="M187.1 102.187H181.44V107.848H187.1V102.187Z" fill="white"/>
<path d="M204.083 102.187H198.422V107.848H204.083V102.187Z" fill="white"/>
<path d="M215.405 102.187H209.744V107.848H215.405V102.187Z" fill="white"/>
<path d="M238.049 102.187H232.388V107.848H238.049V102.187Z" fill="white"/>
<path d="M39.9167 107.848H34.2557V113.509H39.9167V107.848Z" fill="white"/>
<path d="M45.5775 107.848H39.9166V113.509H45.5775V107.848Z" fill="white"/>
<path d="M51.2386 107.848H45.5776V113.509H51.2386V107.848Z" fill="white"/>
<path d="M62.5603 107.848H56.8994V113.509H62.5603V107.848Z" fill="white"/>
<path d="M68.2212 107.848H62.5603V113.509H68.2212V107.848Z" fill="white"/>
<path d="M79.5431 107.848H73.8822V113.509H79.5431V107.848Z" fill="white"/>
<path d="M85.204 107.848H79.5431V113.509H85.204V107.848Z" fill="white"/>
<path d="M90.8649 107.848H85.204V113.509H90.8649V107.848Z" fill="white"/>
<path d="M96.5258 107.848H90.8649V113.509H96.5258V107.848Z" fill="white"/>
<path d="M102.187 107.848H96.5259V113.509H102.187V107.848Z" fill="white"/>
<path d="M124.83 107.848H119.169V113.509H124.83V107.848Z" fill="white"/>
<path d="M147.474 107.848H141.813V113.509H147.474V107.848Z" fill="white"/>
<path d="M158.796 107.848H153.135V113.509H158.796V107.848Z" fill="white"/>
<path d="M164.457 107.848H158.796V113.509H164.457V107.848Z" fill="white"/>
<path d="M175.779 107.848H170.118V113.509H175.779V107.848Z" fill="white"/>
<path d="M198.422 107.848H192.761V113.509H198.422V107.848Z" fill="white"/>
<path d="M209.744 107.848H204.083V113.509H209.744V107.848Z" fill="white"/>
<path d="M226.727 107.848H221.066V113.509H226.727V107.848Z" fill="white"/>
<path d="M232.388 107.848H226.727V113.509H232.388V107.848Z" fill="white"/>
<path d="M17.273 113.509H11.6121V119.169H17.273V113.509Z" fill="white"/>
<path d="M28.5949 113.509H22.934V119.169H28.5949V113.509Z" fill="white"/>
<path d="M34.2558 113.509H28.5948V119.169H34.2558V113.509Z" fill="white"/>
<path d="M39.9167 113.509H34.2557V119.169H39.9167V113.509Z" fill="white"/>
<path d="M56.8994 113.509H51.2385V119.169H56.8994V113.509Z" fill="white"/>
<path d="M68.2212 113.509H62.5603V119.169H68.2212V113.509Z" fill="white"/>
<path d="M73.8821 113.509H68.2212V119.169H73.8821V113.509Z" fill="white"/>
<path d="M79.5431 113.509H73.8822V119.169H79.5431V113.509Z" fill="white"/>
<path d="M85.204 113.509H79.5431V119.169H85.204V113.509Z" fill="white"/>
<path d="M130.491 113.509H124.83V119.169H130.491V113.509Z" fill="white"/>
<path d="M136.152 113.509H130.491V119.169H136.152V113.509Z" fill="white"/>
<path d="M164.457 113.509H158.796V119.169H164.457V113.509Z" fill="white"/>
<path d="M187.1 113.509H181.44V119.169H187.1V113.509Z" fill="white"/>
<path d="M215.405 113.509H209.744V119.169H215.405V113.509Z" fill="white"/>
<path d="M11.6121 119.169H5.95117V124.83H11.6121V119.169Z" fill="white"/>
<path d="M17.273 119.169H11.6121V124.83H17.273V119.169Z" fill="white"/>
<path d="M22.9339 119.169H17.2729V124.83H22.9339V119.169Z" fill="white"/>
<path d="M45.5775 119.169H39.9166V124.83H45.5775V119.169Z" fill="white"/>
<path d="M56.8994 119.169H51.2385V124.83H56.8994V119.169Z" fill="white"/>
<path d="M62.5603 119.169H56.8994V124.83H62.5603V119.169Z" fill="white"/>
<path d="M68.2212 119.169H62.5603V124.83H68.2212V119.169Z" fill="white"/>
<path d="M90.8649 119.169H85.204V124.83H90.8649V119.169Z" fill="white"/>
<path d="M96.5258 119.169H90.8649V124.83H96.5258V119.169Z" fill="white"/>
<path d="M102.187 119.169H96.5259V124.83H102.187V119.169Z" fill="white"/>
<path d="M124.83 119.169H119.169V124.83H124.83V119.169Z" fill="white"/>
<path d="M153.135 119.169H147.474V124.83H153.135V119.169Z" fill="white"/>
<path d="M158.796 119.169H153.135V124.83H158.796V119.169Z" fill="white"/>
<path d="M164.457 119.169H158.796V124.83H164.457V119.169Z" fill="white"/>
<path d="M170.118 119.169H164.457V124.83H170.118V119.169Z" fill="white"/>
<path d="M175.779 119.169H170.118V124.83H175.779V119.169Z" fill="white"/>
<path d="M181.44 119.169H175.779V124.83H181.44V119.169Z" fill="white"/>
<path d="M221.066 119.169H215.405V124.83H221.066V119.169Z" fill="white"/>
<path d="M226.727 119.169H221.066V124.83H226.727V119.169Z" fill="white"/>
<path d="M232.388 119.169H226.727V124.83H232.388V119.169Z" fill="white"/>
<path d="M238.049 119.169H232.388V124.83H238.049V119.169Z" fill="white"/>
<path d="M17.273 124.83H11.6121V130.491H17.273V124.83Z" fill="white"/>
<path d="M22.9339 124.83H17.2729V130.491H22.9339V124.83Z" fill="white"/>
<path d="M56.8994 124.83H51.2385V130.491H56.8994V124.83Z" fill="white"/>
<path d="M62.5603 124.83H56.8994V130.491H62.5603V124.83Z" fill="white"/>
<path d="M79.5431 124.83H73.8822V130.491H79.5431V124.83Z" fill="white"/>
<path d="M96.5258 124.83H90.8649V130.491H96.5258V124.83Z" fill="white"/>
<path d="M113.509 124.83H107.848V130.491H113.509V124.83Z" fill="white"/>
<path d="M119.169 124.83H113.509V130.491H119.169V124.83Z" fill="white"/>
<path d="M130.491 124.83H124.83V130.491H130.491V124.83Z" fill="white"/>
<path d="M141.813 124.83H136.152V130.491H141.813V124.83Z" fill="white"/>
<path d="M147.474 124.83H141.813V130.491H147.474V124.83Z" fill="white"/>
<path d="M170.118 124.83H164.457V130.491H170.118V124.83Z" fill="white"/>
<path d="M175.779 124.83H170.118V130.491H175.779V124.83Z" fill="white"/>
<path d="M187.1 124.83H181.44V130.491H187.1V124.83Z" fill="white"/>
<path d="M192.761 124.83H187.1V130.491H192.761V124.83Z" fill="white"/>
<path d="M198.422 124.83H192.761V130.491H198.422V124.83Z" fill="white"/>
<path d="M204.083 124.83H198.422V130.491H204.083V124.83Z" fill="white"/>
<path d="M215.405 124.83H209.744V130.491H215.405V124.83Z" fill="white"/>
<path d="M221.066 124.83H215.405V130.491H221.066V124.83Z" fill="white"/>
<path d="M238.049 124.83H232.388V130.491H238.049V124.83Z" fill="white"/>
<path d="M11.6121 130.491H5.95117V136.152H11.6121V130.491Z" fill="white"/>
<path d="M17.273 130.491H11.6121V136.152H17.273V130.491Z" fill="white"/>
<path d="M22.9339 130.491H17.2729V136.152H22.9339V130.491Z" fill="white"/>
<path d="M28.5949 130.491H22.934V136.152H28.5949V130.491Z" fill="white"/>
<path d="M34.2558 130.491H28.5948V136.152H34.2558V130.491Z" fill="white"/>
<path d="M39.9167 130.491H34.2557V136.152H39.9167V130.491Z" fill="white"/>
<path d="M45.5775 130.491H39.9166V136.152H45.5775V130.491Z" fill="white"/>
<path d="M85.204 130.491H79.5431V136.152H85.204V130.491Z" fill="white"/>
<path d="M90.8649 130.491H85.204V136.152H90.8649V130.491Z" fill="white"/>
<path d="M96.5258 130.491H90.8649V136.152H96.5258V130.491Z" fill="white"/>
<path d="M102.187 130.491H96.5259V136.152H102.187V130.491Z" fill="white"/>
<path d="M113.509 130.491H107.848V136.152H113.509V130.491Z" fill="white"/>
<path d="M124.83 130.491H119.169V136.152H124.83V130.491Z" fill="white"/>
<path d="M130.491 130.491H124.83V136.152H130.491V130.491Z" fill="white"/>
<path d="M147.474 130.491H141.813V136.152H147.474V130.491Z" fill="white"/>
<path d="M164.457 130.491H158.796V136.152H164.457V130.491Z" fill="white"/>
<path d="M175.779 130.491H170.118V136.152H175.779V130.491Z" fill="white"/>
<path d="M192.761 130.491H187.1V136.152H192.761V130.491Z" fill="white"/>
<path d="M198.422 130.491H192.761V136.152H198.422V130.491Z" fill="white"/>
<path d="M209.744 130.491H204.083V136.152H209.744V130.491Z" fill="white"/>
<path d="M221.066 130.491H215.405V136.152H221.066V130.491Z" fill="white"/>
<path d="M226.727 130.491H221.066V136.152H226.727V130.491Z" fill="white"/>
<path d="M232.388 130.491H226.727V136.152H232.388V130.491Z" fill="white"/>
<path d="M11.6121 136.152H5.95117V141.813H11.6121V136.152Z" fill="white"/>
<path d="M17.273 136.152H11.6121V141.813H17.273V136.152Z" fill="white"/>
<path d="M39.9167 136.152H34.2557V141.813H39.9167V136.152Z" fill="white"/>
<path d="M68.2212 136.152H62.5603V141.813H68.2212V136.152Z" fill="white"/>
<path d="M79.5431 136.152H73.8822V141.813H79.5431V136.152Z" fill="white"/>
<path d="M96.5258 136.152H90.8649V141.813H96.5258V136.152Z" fill="white"/>
<path d="M113.509 136.152H107.848V141.813H113.509V136.152Z" fill="white"/>
<path d="M119.169 136.152H113.509V141.813H119.169V136.152Z" fill="white"/>
<path d="M130.491 136.152H124.83V141.813H130.491V136.152Z" fill="white"/>
<path d="M147.474 136.152H141.813V141.813H147.474V136.152Z" fill="white"/>
<path d="M158.796 136.152H153.135V141.813H158.796V136.152Z" fill="white"/>
<path d="M181.44 136.152H175.779V141.813H181.44V136.152Z" fill="white"/>
<path d="M187.1 136.152H181.44V141.813H187.1V136.152Z" fill="white"/>
<path d="M192.761 136.152H187.1V141.813H192.761V136.152Z" fill="white"/>
<path d="M198.422 136.152H192.761V141.813H198.422V136.152Z" fill="white"/>
<path d="M209.744 136.152H204.083V141.813H209.744V136.152Z" fill="white"/>
<path d="M221.066 136.152H215.405V141.813H221.066V136.152Z" fill="white"/>
<path d="M232.388 136.152H226.727V141.813H232.388V136.152Z" fill="white"/>
<path d="M11.6121 141.813H5.95117V147.474H11.6121V141.813Z" fill="white"/>
<path d="M17.273 141.813H11.6121V147.474H17.273V141.813Z" fill="white"/>
<path d="M22.9339 141.813H17.2729V147.474H22.9339V141.813Z" fill="white"/>
<path d="M28.5949 141.813H22.934V147.474H28.5949V141.813Z" fill="white"/>
<path d="M34.2558 141.813H28.5948V147.474H34.2558V141.813Z" fill="white"/>
<path d="M39.9167 141.813H34.2557V147.474H39.9167V141.813Z" fill="white"/>
<path d="M45.5775 141.813H39.9166V147.474H45.5775V141.813Z" fill="white"/>
<path d="M51.2386 141.813H45.5776V147.474H51.2386V141.813Z" fill="white"/>
<path d="M56.8994 141.813H51.2385V147.474H56.8994V141.813Z" fill="white"/>
<path d="M68.2212 141.813H62.5603V147.474H68.2212V141.813Z" fill="white"/>
<path d="M79.5431 141.813H73.8822V147.474H79.5431V141.813Z" fill="white"/>
<path d="M85.204 141.813H79.5431V147.474H85.204V141.813Z" fill="white"/>
<path d="M96.5258 141.813H90.8649V147.474H96.5258V141.813Z" fill="white"/>
<path d="M102.187 141.813H96.5259V147.474H102.187V141.813Z" fill="white"/>
<path d="M107.848 141.813H102.187V147.474H107.848V141.813Z" fill="white"/>
<path d="M113.509 141.813H107.848V147.474H113.509V141.813Z" fill="white"/>
<path d="M124.83 141.813H119.169V147.474H124.83V141.813Z" fill="white"/>
<path d="M153.135 141.813H147.474V147.474H153.135V141.813Z" fill="white"/>
<path d="M164.457 141.813H158.796V147.474H164.457V141.813Z" fill="white"/>
<path d="M170.118 141.813H164.457V147.474H170.118V141.813Z" fill="white"/>
<path d="M187.1 141.813H181.44V147.474H187.1V141.813Z" fill="white"/>
<path d="M192.761 141.813H187.1V147.474H192.761V141.813Z" fill="white"/>
<path d="M198.422 141.813H192.761V147.474H198.422V141.813Z" fill="white"/>
<path d="M209.744 141.813H204.083V147.474H209.744V141.813Z" fill="white"/>
<path d="M221.066 141.813H215.405V147.474H221.066V141.813Z" fill="white"/>
<path d="M226.727 141.813H221.066V147.474H226.727V141.813Z" fill="white"/>
<path d="M232.388 141.813H226.727V147.474H232.388V141.813Z" fill="white"/>
<path d="M17.273 147.474H11.6121V153.135H17.273V147.474Z" fill="white"/>
<path d="M28.5949 147.474H22.934V153.135H28.5949V147.474Z" fill="white"/>
<path d="M34.2558 147.474H28.5948V153.135H34.2558V147.474Z" fill="white"/>
<path d="M51.2386 147.474H45.5776V153.135H51.2386V147.474Z" fill="white"/>
<path d="M68.2212 147.474H62.5603V153.135H68.2212V147.474Z" fill="white"/>
<path d="M90.8649 147.474H85.204V153.135H90.8649V147.474Z" fill="white"/>
<path d="M119.169 147.474H113.509V153.135H119.169V147.474Z" fill="white"/>
<path d="M136.152 147.474H130.491V153.135H136.152V147.474Z" fill="white"/>
<path d="M141.813 147.474H136.152V153.135H141.813V147.474Z" fill="white"/>
<path d="M147.474 147.474H141.813V153.135H147.474V147.474Z" fill="white"/>
<path d="M153.135 147.474H147.474V153.135H153.135V147.474Z" fill="white"/>
<path d="M158.796 147.474H153.135V153.135H158.796V147.474Z" fill="white"/>
<path d="M164.457 147.474H158.796V153.135H164.457V147.474Z" fill="white"/>
<path d="M170.118 147.474H164.457V153.135H170.118V147.474Z" fill="white"/>
<path d="M181.44 147.474H175.779V153.135H181.44V147.474Z" fill="white"/>
<path d="M192.761 147.474H187.1V153.135H192.761V147.474Z" fill="white"/>
<path d="M204.083 147.474H198.422V153.135H204.083V147.474Z" fill="white"/>
<path d="M215.405 147.474H209.744V153.135H215.405V147.474Z" fill="white"/>
<path d="M238.049 147.474H232.388V153.135H238.049V147.474Z" fill="white"/>
<path d="M17.273 153.135H11.6121V158.796H17.273V153.135Z" fill="white"/>
<path d="M39.9167 153.135H34.2557V158.796H39.9167V153.135Z" fill="white"/>
<path d="M45.5775 153.135H39.9166V158.796H45.5775V153.135Z" fill="white"/>
<path d="M51.2386 153.135H45.5776V158.796H51.2386V153.135Z" fill="white"/>
<path d="M79.5431 153.135H73.8822V158.796H79.5431V153.135Z" fill="white"/>
<path d="M96.5258 153.135H90.8649V158.796H96.5258V153.135Z" fill="white"/>
<path d="M102.187 153.135H96.5259V158.796H102.187V153.135Z" fill="white"/>
<path d="M124.83 153.135H119.169V158.796H124.83V153.135Z" fill="white"/>
<path d="M147.474 153.135H141.813V158.796H147.474V153.135Z" fill="white"/>
<path d="M164.457 153.135H158.796V158.796H164.457V153.135Z" fill="white"/>
<path d="M175.779 153.135H170.118V158.796H175.779V153.135Z" fill="white"/>
<path d="M204.083 153.135H198.422V158.796H204.083V153.135Z" fill="white"/>
<path d="M232.388 153.135H226.727V158.796H232.388V153.135Z" fill="white"/>
<path d="M11.6121 158.796H5.95117V164.457H11.6121V158.796Z" fill="white"/>
<path d="M28.5949 158.796H22.934V164.457H28.5949V158.796Z" fill="white"/>
<path d="M34.2558 158.796H28.5948V164.457H34.2558V158.796Z" fill="white"/>
<path d="M56.8994 158.796H51.2385V164.457H56.8994V158.796Z" fill="white"/>
<path d="M68.2212 158.796H62.5603V164.457H68.2212V158.796Z" fill="white"/>
<path d="M73.8821 158.796H68.2212V164.457H73.8821V158.796Z" fill="white"/>
<path d="M79.5431 158.796H73.8822V164.457H79.5431V158.796Z" fill="white"/>
<path d="M90.8649 158.796H85.204V164.457H90.8649V158.796Z" fill="white"/>
<path d="M96.5258 158.796H90.8649V164.457H96.5258V158.796Z" fill="white"/>
<path d="M102.187 158.796H96.5259V164.457H102.187V158.796Z" fill="white"/>
<path d="M130.491 158.796H124.83V164.457H130.491V158.796Z" fill="white"/>
<path d="M147.474 158.796H141.813V164.457H147.474V158.796Z" fill="white"/>
<path d="M158.796 158.796H153.135V164.457H158.796V158.796Z" fill="white"/>
<path d="M170.118 158.796H164.457V164.457H170.118V158.796Z" fill="white"/>
<path d="M181.44 158.796H175.779V164.457H181.44V158.796Z" fill="white"/>
<path d="M187.1 158.796H181.44V164.457H187.1V158.796Z" fill="white"/>
<path d="M204.083 158.796H198.422V164.457H204.083V158.796Z" fill="white"/>
<path d="M209.744 158.796H204.083V164.457H209.744V158.796Z" fill="white"/>
<path d="M215.405 158.796H209.744V164.457H215.405V158.796Z" fill="white"/>
<path d="M11.6121 164.457H5.95117V170.118H11.6121V164.457Z" fill="white"/>
<path d="M17.273 164.457H11.6121V170.118H17.273V164.457Z" fill="white"/>
<path d="M28.5949 164.457H22.934V170.118H28.5949V164.457Z" fill="white"/>
<path d="M34.2558 164.457H28.5948V170.118H34.2558V164.457Z" fill="white"/>
<path d="M45.5775 164.457H39.9166V170.118H45.5775V164.457Z" fill="white"/>
<path d="M56.8994 164.457H51.2385V170.118H56.8994V164.457Z" fill="white"/>
<path d="M62.5603 164.457H56.8994V170.118H62.5603V164.457Z" fill="white"/>
<path d="M68.2212 164.457H62.5603V170.118H68.2212V164.457Z" fill="white"/>
<path d="M79.5431 164.457H73.8822V170.118H79.5431V164.457Z" fill="white"/>
<path d="M96.5258 164.457H90.8649V170.118H96.5258V164.457Z" fill="white"/>
<path d="M113.509 164.457H107.848V170.118H113.509V164.457Z" fill="white"/>
<path d="M119.169 164.457H113.509V170.118H119.169V164.457Z" fill="white"/>
<path d="M124.83 164.457H119.169V170.118H124.83V164.457Z" fill="white"/>
<path d="M141.813 164.457H136.152V170.118H141.813V164.457Z" fill="white"/>
<path d="M153.135 164.457H147.474V170.118H153.135V164.457Z" fill="white"/>
<path d="M158.796 164.457H153.135V170.118H158.796V164.457Z" fill="white"/>
<path d="M175.779 164.457H170.118V170.118H175.779V164.457Z" fill="white"/>
<path d="M181.44 164.457H175.779V170.118H181.44V164.457Z" fill="white"/>
<path d="M198.422 164.457H192.761V170.118H198.422V164.457Z" fill="white"/>
<path d="M221.066 164.457H215.405V170.118H221.066V164.457Z" fill="white"/>
<path d="M226.727 164.457H221.066V170.118H226.727V164.457Z" fill="white"/>
<path d="M11.6121 170.118H5.95117V175.779H11.6121V170.118Z" fill="white"/>
<path d="M22.9339 170.118H17.2729V175.779H22.9339V170.118Z" fill="white"/>
<path d="M28.5949 170.118H22.934V175.779H28.5949V170.118Z" fill="white"/>
<path d="M39.9167 170.118H34.2557V175.779H39.9167V170.118Z" fill="white"/>
<path d="M51.2386 170.118H45.5776V175.779H51.2386V170.118Z" fill="white"/>
<path d="M90.8649 170.118H85.204V175.779H90.8649V170.118Z" fill="white"/>
<path d="M96.5258 170.118H90.8649V175.779H96.5258V170.118Z" fill="white"/>
<path d="M102.187 170.118H96.5259V175.779H102.187V170.118Z" fill="white"/>
<path d="M113.509 170.118H107.848V175.779H113.509V170.118Z" fill="white"/>
<path d="M119.169 170.118H113.509V175.779H119.169V170.118Z" fill="white"/>
<path d="M130.491 170.118H124.83V175.779H130.491V170.118Z" fill="white"/>
<path d="M141.813 170.118H136.152V175.779H141.813V170.118Z" fill="white"/>
<path d="M147.474 170.118H141.813V175.779H147.474V170.118Z" fill="white"/>
<path d="M164.457 170.118H158.796V175.779H164.457V170.118Z" fill="white"/>
<path d="M170.118 170.118H164.457V175.779H170.118V170.118Z" fill="white"/>
<path d="M187.1 170.118H181.44V175.779H187.1V170.118Z" fill="white"/>
<path d="M192.761 170.118H187.1V175.779H192.761V170.118Z" fill="white"/>
<path d="M198.422 170.118H192.761V175.779H198.422V170.118Z" fill="white"/>
<path d="M204.083 170.118H198.422V175.779H204.083V170.118Z" fill="white"/>
<path d="M209.744 170.118H204.083V175.779H209.744V170.118Z" fill="white"/>
<path d="M215.405 170.118H209.744V175.779H215.405V170.118Z" fill="white"/>
<path d="M238.049 170.118H232.388V175.779H238.049V170.118Z" fill="white"/>
<path d="M11.6121 175.779H5.95117V181.44H11.6121V175.779Z" fill="white"/>
<path d="M22.9339 175.779H17.2729V181.44H22.9339V175.779Z" fill="white"/>
<path d="M28.5949 175.779H22.934V181.44H28.5949V175.779Z" fill="white"/>
<path d="M45.5775 175.779H39.9166V181.44H45.5775V175.779Z" fill="white"/>
<path d="M56.8994 175.779H51.2385V181.44H56.8994V175.779Z" fill="white"/>
<path d="M68.2212 175.779H62.5603V181.44H68.2212V175.779Z" fill="white"/>
<path d="M73.8821 175.779H68.2212V181.44H73.8821V175.779Z" fill="white"/>
<path d="M79.5431 175.779H73.8822V181.44H79.5431V175.779Z" fill="white"/>
<path d="M90.8649 175.779H85.204V181.44H90.8649V175.779Z" fill="white"/>
<path d="M113.509 175.779H107.848V181.44H113.509V175.779Z" fill="white"/>
<path d="M130.491 175.779H124.83V181.44H130.491V175.779Z" fill="white"/>
<path d="M147.474 175.779H141.813V181.44H147.474V175.779Z" fill="white"/>
<path d="M158.796 175.779H153.135V181.44H158.796V175.779Z" fill="white"/>
<path d="M164.457 175.779H158.796V181.44H164.457V175.779Z" fill="white"/>
<path d="M175.779 175.779H170.118V181.44H175.779V175.779Z" fill="white"/>
<path d="M181.44 175.779H175.779V181.44H181.44V175.779Z" fill="white"/>
<path d="M192.761 175.779H187.1V181.44H192.761V175.779Z" fill="white"/>
<path d="M198.422 175.779H192.761V181.44H198.422V175.779Z" fill="white"/>
<path d="M215.405 175.779H209.744V181.44H215.405V175.779Z" fill="white"/>
<path d="M226.727 175.779H221.066V181.44H226.727V175.779Z" fill="white"/>
<path d="M232.388 175.779H226.727V181.44H232.388V175.779Z" fill="white"/>
<path d="M11.6121 181.44H5.95117V187.1H11.6121V181.44Z" fill="white"/>
<path d="M22.9339 181.44H17.2729V187.1H22.9339V181.44Z" fill="white"/>
<path d="M39.9167 181.44H34.2557V187.1H39.9167V181.44Z" fill="white"/>
<path d="M51.2386 181.44H45.5776V187.1H51.2386V181.44Z" fill="white"/>
<path d="M56.8994 181.44H51.2385V187.1H56.8994V181.44Z" fill="white"/>
<path d="M62.5603 181.44H56.8994V187.1H62.5603V181.44Z" fill="white"/>
<path d="M73.8821 181.44H68.2212V187.1H73.8821V181.44Z" fill="white"/>
<path d="M90.8649 181.44H85.204V187.1H90.8649V181.44Z" fill="white"/>
<path d="M102.187 181.44H96.5259V187.1H102.187V181.44Z" fill="white"/>
<path d="M113.509 181.44H107.848V187.1H113.509V181.44Z" fill="white"/>
<path d="M119.169 181.44H113.509V187.1H119.169V181.44Z" fill="white"/>
<path d="M124.83 181.44H119.169V187.1H124.83V181.44Z" fill="white"/>
<path d="M130.491 181.44H124.83V187.1H130.491V181.44Z" fill="white"/>
<path d="M141.813 181.44H136.152V187.1H141.813V181.44Z" fill="white"/>
<path d="M147.474 181.44H141.813V187.1H147.474V181.44Z" fill="white"/>
<path d="M164.457 181.44H158.796V187.1H164.457V181.44Z" fill="white"/>
<path d="M181.44 181.44H175.779V187.1H181.44V181.44Z" fill="white"/>
<path d="M187.1 181.44H181.44V187.1H187.1V181.44Z" fill="white"/>
<path d="M215.405 181.44H209.744V187.1H215.405V181.44Z" fill="white"/>
<path d="M221.066 181.44H215.405V187.1H221.066V181.44Z" fill="white"/>
<path d="M238.049 181.44H232.388V187.1H238.049V181.44Z" fill="white"/>
<path d="M11.6121 187.1H5.95117V192.761H11.6121V187.1Z" fill="white"/>
<path d="M45.5775 187.1H39.9166V192.761H45.5775V187.1Z" fill="white"/>
<path d="M51.2386 187.1H45.5776V192.761H51.2386V187.1Z" fill="white"/>
<path d="M56.8994 187.1H51.2385V192.761H56.8994V187.1Z" fill="white"/>
<path d="M62.5603 187.1H56.8994V192.761H62.5603V187.1Z" fill="white"/>
<path d="M73.8821 187.1H68.2212V192.761H73.8821V187.1Z" fill="white"/>
<path d="M85.204 187.1H79.5431V192.761H85.204V187.1Z" fill="white"/>
<path d="M102.187 187.1H96.5259V192.761H102.187V187.1Z" fill="white"/>
<path d="M107.848 187.1H102.187V192.761H107.848V187.1Z" fill="white"/>
<path d="M113.509 187.1H107.848V192.761H113.509V187.1Z" fill="white"/>
<path d="M124.83 187.1H119.169V192.761H124.83V187.1Z" fill="white"/>
<path d="M153.135 187.1H147.474V192.761H153.135V187.1Z" fill="white"/>
<path d="M192.761 187.1H187.1V192.761H192.761V187.1Z" fill="white"/>
<path d="M198.422 187.1H192.761V192.761H198.422V187.1Z" fill="white"/>
<path d="M204.083 187.1H198.422V192.761H204.083V187.1Z" fill="white"/>
<path d="M209.744 187.1H204.083V192.761H209.744V187.1Z" fill="white"/>
<path d="M215.405 187.1H209.744V192.761H215.405V187.1Z" fill="white"/>
<path d="M221.066 187.1H215.405V192.761H221.066V187.1Z" fill="white"/>
<path d="M226.727 187.1H221.066V192.761H226.727V187.1Z" fill="white"/>
<path d="M56.8994 192.761H51.2385V198.422H56.8994V192.761Z" fill="white"/>
<path d="M68.2212 192.761H62.5603V198.422H68.2212V192.761Z" fill="white"/>
<path d="M73.8821 192.761H68.2212V198.422H73.8821V192.761Z" fill="white"/>
<path d="M79.5431 192.761H73.8822V198.422H79.5431V192.761Z" fill="white"/>
<path d="M85.204 192.761H79.5431V198.422H85.204V192.761Z" fill="white"/>
<path d="M90.8649 192.761H85.204V198.422H90.8649V192.761Z" fill="white"/>
<path d="M107.848 192.761H102.187V198.422H107.848V192.761Z" fill="white"/>
<path d="M119.169 192.761H113.509V198.422H119.169V192.761Z" fill="white"/>
<path d="M136.152 192.761H130.491V198.422H136.152V192.761Z" fill="white"/>
<path d="M141.813 192.761H136.152V198.422H141.813V192.761Z" fill="white"/>
<path d="M147.474 192.761H141.813V198.422H147.474V192.761Z" fill="white"/>
<path d="M158.796 192.761H153.135V198.422H158.796V192.761Z" fill="white"/>
<path d="M181.44 192.761H175.779V198.422H181.44V192.761Z" fill="white"/>
<path d="M192.761 192.761H187.1V198.422H192.761V192.761Z" fill="white"/>
<path d="M215.405 192.761H209.744V198.422H215.405V192.761Z" fill="white"/>
<path d="M238.049 192.761H232.388V198.422H238.049V192.761Z" fill="white"/>
<path d="M56.8994 198.422H51.2385V204.083H56.8994V198.422Z" fill="white"/>
<path d="M79.5431 198.422H73.8822V204.083H79.5431V198.422Z" fill="white"/>
<path d="M85.204 198.422H79.5431V204.083H85.204V198.422Z" fill="white"/>
<path d="M90.8649 198.422H85.204V204.083H90.8649V198.422Z" fill="white"/>
<path d="M96.5258 198.422H90.8649V204.083H96.5258V198.422Z" fill="white"/>
<path d="M107.848 198.422H102.187V204.083H107.848V198.422Z" fill="white"/>
<path d="M124.83 198.422H119.169V204.083H124.83V198.422Z" fill="white"/>
<path d="M147.474 198.422H141.813V204.083H147.474V198.422Z" fill="white"/>
<path d="M164.457 198.422H158.796V204.083H164.457V198.422Z" fill="white"/>
<path d="M181.44 198.422H175.779V204.083H181.44V198.422Z" fill="white"/>
<path d="M192.761 198.422H187.1V204.083H192.761V198.422Z" fill="white"/>
<path d="M204.083 198.422H198.422V204.083H204.083V198.422Z" fill="white"/>
<path d="M215.405 198.422H209.744V204.083H215.405V198.422Z" fill="white"/>
<path d="M221.066 198.422H215.405V204.083H221.066V198.422Z" fill="white"/>
<path d="M232.388 198.422H226.727V204.083H232.388V198.422Z" fill="white"/>
<path d="M68.2212 204.083H62.5603V209.744H68.2212V204.083Z" fill="white"/>
<path d="M79.5431 204.083H73.8822V209.744H79.5431V204.083Z" fill="white"/>
<path d="M85.204 204.083H79.5431V209.744H85.204V204.083Z" fill="white"/>
<path d="M96.5258 204.083H90.8649V209.744H96.5258V204.083Z" fill="white"/>
<path d="M107.848 204.083H102.187V209.744H107.848V204.083Z" fill="white"/>
<path d="M113.509 204.083H107.848V209.744H113.509V204.083Z" fill="white"/>
<path d="M130.491 204.083H124.83V209.744H130.491V204.083Z" fill="white"/>
<path d="M141.813 204.083H136.152V209.744H141.813V204.083Z" fill="white"/>
<path d="M147.474 204.083H141.813V209.744H147.474V204.083Z" fill="white"/>
<path d="M158.796 204.083H153.135V209.744H158.796V204.083Z" fill="white"/>
<path d="M181.44 204.083H175.779V209.744H181.44V204.083Z" fill="white"/>
<path d="M187.1 204.083H181.44V209.744H187.1V204.083Z" fill="white"/>
<path d="M192.761 204.083H187.1V209.744H192.761V204.083Z" fill="white"/>
<path d="M215.405 204.083H209.744V209.744H215.405V204.083Z" fill="white"/>
<path d="M232.388 204.083H226.727V209.744H232.388V204.083Z" fill="white"/>
<path d="M238.049 204.083H232.388V209.744H238.049V204.083Z" fill="white"/>
<path d="M56.8994 209.744H51.2385V215.405H56.8994V209.744Z" fill="white"/>
<path d="M68.2212 209.744H62.5603V215.405H68.2212V209.744Z" fill="white"/>
<path d="M90.8649 209.744H85.204V215.405H90.8649V209.744Z" fill="white"/>
<path d="M96.5258 209.744H90.8649V215.405H96.5258V209.744Z" fill="white"/>
<path d="M102.187 209.744H96.5259V215.405H102.187V209.744Z" fill="white"/>
<path d="M124.83 209.744H119.169V215.405H124.83V209.744Z" fill="white"/>
<path d="M153.135 209.744H147.474V215.405H153.135V209.744Z" fill="white"/>
<path d="M164.457 209.744H158.796V215.405H164.457V209.744Z" fill="white"/>
<path d="M170.118 209.744H164.457V215.405H170.118V209.744Z" fill="white"/>
<path d="M175.779 209.744H170.118V215.405H175.779V209.744Z" fill="white"/>
<path d="M181.44 209.744H175.779V215.405H181.44V209.744Z" fill="white"/>
<path d="M192.761 209.744H187.1V215.405H192.761V209.744Z" fill="white"/>
<path d="M198.422 209.744H192.761V215.405H198.422V209.744Z" fill="white"/>
<path d="M204.083 209.744H198.422V215.405H204.083V209.744Z" fill="white"/>
<path d="M209.744 209.744H204.083V215.405H209.744V209.744Z" fill="white"/>
<path d="M215.405 209.744H209.744V215.405H215.405V209.744Z" fill="white"/>
<path d="M221.066 209.744H215.405V215.405H221.066V209.744Z" fill="white"/>
<path d="M226.727 209.744H221.066V215.405H226.727V209.744Z" fill="white"/>
<path d="M232.388 209.744H226.727V215.405H232.388V209.744Z" fill="white"/>
<path d="M56.8994 215.405H51.2385V221.066H56.8994V215.405Z" fill="white"/>
<path d="M62.5603 215.405H56.8994V221.066H62.5603V215.405Z" fill="white"/>
<path d="M68.2212 215.405H62.5603V221.066H68.2212V215.405Z" fill="white"/>
<path d="M79.5431 215.405H73.8822V221.066H79.5431V215.405Z" fill="white"/>
<path d="M85.204 215.405H79.5431V221.066H85.204V215.405Z" fill="white"/>
<path d="M96.5258 215.405H90.8649V221.066H96.5258V215.405Z" fill="white"/>
<path d="M113.509 215.405H107.848V221.066H113.509V215.405Z" fill="white"/>
<path d="M119.169 215.405H113.509V221.066H119.169V215.405Z" fill="white"/>
<path d="M130.491 215.405H124.83V221.066H130.491V215.405Z" fill="white"/>
<path d="M141.813 215.405H136.152V221.066H141.813V215.405Z" fill="white"/>
<path d="M147.474 215.405H141.813V221.066H147.474V215.405Z" fill="white"/>
<path d="M158.796 215.405H153.135V221.066H158.796V215.405Z" fill="white"/>
<path d="M198.422 215.405H192.761V221.066H198.422V215.405Z" fill="white"/>
<path d="M209.744 215.405H204.083V221.066H209.744V215.405Z" fill="white"/>
<path d="M221.066 215.405H215.405V221.066H221.066V215.405Z" fill="white"/>
<path d="M238.049 215.405H232.388V221.066H238.049V215.405Z" fill="white"/>
<path d="M56.8994 221.066H51.2385V226.727H56.8994V221.066Z" fill="white"/>
<path d="M62.5603 221.066H56.8994V226.727H62.5603V221.066Z" fill="white"/>
<path d="M96.5258 221.066H90.8649V226.727H96.5258V221.066Z" fill="white"/>
<path d="M102.187 221.066H96.5259V226.727H102.187V221.066Z" fill="white"/>
<path d="M113.509 221.066H107.848V226.727H113.509V221.066Z" fill="white"/>
<path d="M130.491 221.066H124.83V226.727H130.491V221.066Z" fill="white"/>
<path d="M147.474 221.066H141.813V226.727H147.474V221.066Z" fill="white"/>
<path d="M158.796 221.066H153.135V226.727H158.796V221.066Z" fill="white"/>
<path d="M164.457 221.066H158.796V226.727H164.457V221.066Z" fill="white"/>
<path d="M175.779 221.066H170.118V226.727H175.779V221.066Z" fill="white"/>
<path d="M181.44 221.066H175.779V226.727H181.44V221.066Z" fill="white"/>
<path d="M187.1 221.066H181.44V226.727H187.1V221.066Z" fill="white"/>
<path d="M204.083 221.066H198.422V226.727H204.083V221.066Z" fill="white"/>
<path d="M215.405 221.066H209.744V226.727H215.405V221.066Z" fill="white"/>
<path d="M221.066 221.066H215.405V226.727H221.066V221.066Z" fill="white"/>
<path d="M56.8994 226.727H51.2385V232.388H56.8994V226.727Z" fill="white"/>
<path d="M79.5431 226.727H73.8822V232.388H79.5431V226.727Z" fill="white"/>
<path d="M96.5258 226.727H90.8649V232.388H96.5258V226.727Z" fill="white"/>
<path d="M113.509 226.727H107.848V232.388H113.509V226.727Z" fill="white"/>
<path d="M119.169 226.727H113.509V232.388H119.169V226.727Z" fill="white"/>
<path d="M130.491 226.727H124.83V232.388H130.491V226.727Z" fill="white"/>
<path d="M141.813 226.727H136.152V232.388H141.813V226.727Z" fill="white"/>
<path d="M158.796 226.727H153.135V232.388H158.796V226.727Z" fill="white"/>
<path d="M164.457 226.727H158.796V232.388H164.457V226.727Z" fill="white"/>
<path d="M192.761 226.727H187.1V232.388H192.761V226.727Z" fill="white"/>
<path d="M198.422 226.727H192.761V232.388H198.422V226.727Z" fill="white"/>
<path d="M221.066 226.727H215.405V232.388H221.066V226.727Z" fill="white"/>
<path d="M232.388 226.727H226.727V232.388H232.388V226.727Z" fill="white"/>
<path d="M56.8994 232.388H51.2385V238.049H56.8994V232.388Z" fill="white"/>
<path d="M68.2212 232.388H62.5603V238.049H68.2212V232.388Z" fill="white"/>
<path d="M85.204 232.388H79.5431V238.049H85.204V232.388Z" fill="white"/>
<path d="M96.5258 232.388H90.8649V238.049H96.5258V232.388Z" fill="white"/>
<path d="M102.187 232.388H96.5259V238.049H102.187V232.388Z" fill="white"/>
<path d="M107.848 232.388H102.187V238.049H107.848V232.388Z" fill="white"/>
<path d="M113.509 232.388H107.848V238.049H113.509V232.388Z" fill="white"/>
<path d="M119.169 232.388H113.509V238.049H119.169V232.388Z" fill="white"/>
<path d="M124.83 232.388H119.169V238.049H124.83V232.388Z" fill="white"/>
<path d="M153.135 232.388H147.474V238.049H153.135V232.388Z" fill="white"/>
<path d="M164.457 232.388H158.796V238.049H164.457V232.388Z" fill="white"/>
<path d="M187.1 232.388H181.44V238.049H187.1V232.388Z" fill="white"/>
<path d="M198.422 232.388H192.761V238.049H198.422V232.388Z" fill="white"/>
<path d="M215.405 232.388H209.744V238.049H215.405V232.388Z" fill="white"/>
<path d="M221.066 232.388H215.405V238.049H221.066V232.388Z" fill="white"/>
<path d="M226.727 232.388H221.066V238.049H226.727V232.388Z" fill="white"/>
<path d="M5.95117 5.95117V45.5787H45.5787V5.95117H5.95117ZM39.9179 39.9179H11.612V11.612H39.9179V39.9179Z" fill="white"/>
<path d="M34.2557 17.2729H17.2729V34.2557H34.2557V17.2729Z" fill="white"/>
<path d="M5.95117 198.422V238.05H45.5787V198.422H5.95117ZM39.9179 232.389H11.612V204.083H39.9179V232.389Z" fill="white"/>
<path d="M34.2557 209.744H17.2729V226.727H34.2557V209.744Z" fill="white"/>
<path d="M198.422 5.95117V45.5787H238.05V5.95117H198.422ZM232.389 39.9179H204.083V11.612H232.389V39.9179Z" fill="white"/>
<path d="M226.727 17.2729H209.744V34.2557H226.727V17.2729Z" fill="white"/>
</g>
<defs>
<clipPath id="clip0_248_80">
<rect width="232.098" height="232.098" fill="white" transform="translate(5.95117 5.95117)"/>
</clipPath>
</defs>
</svg>
