<svg width="107" height="160" viewBox="0 0 107 160" fill="none" xmlns="http://www.w3.org/2000/svg">
<path d="M11.2359 0H93.7012V4.09112L106.04 64.5599L102.908 135.969C102.683 141.014 99.0453 145.26 94.0874 146.249L30.1615 159.028C27.0225 159.652 23.757 159.091 21.0112 157.442L6.68533 148.853C2.97043 146.628 0.702148 142.621 0.702148 138.291V50.2234L11.2359 0Z" fill="#ECAE47"/>
<path d="M10.5338 4.91211L24.5788 65.2616L23.8765 159.294L0.70225 148.53L0 52.6303L10.5338 4.91211Z" fill="#B6884A"/>
<path d="M12.2892 16.9678L6.32007 61.7527L11.9381 153.68L24.5786 159.294V63.8579L12.2892 16.9678Z" fill="#80562C"/>
<path d="M24.5786 90.0399L105.38 79.6401V87.0154L24.5786 98.0046V90.0399Z" fill="#DD5928"/>
<path d="M59.7615 124.032C59.7615 124.032 57.5846 116.495 64.3824 114.383C71.1802 112.271 78.0833 117.913 78.1605 118.608C78.2378 119.302 79.5018 124.818 76.7209 125.106C73.94 125.393 72.2054 124.867 71.0256 125.688C69.8459 126.509 67.9006 128.123 67.9779 128.825C68.0551 129.527 66.7349 130.362 64.6492 130.579C62.5636 130.797 61.8683 130.867 61.0326 129.541C60.197 128.214 59.7615 124.025 59.7615 124.025V124.032Z" fill="#DD5928"/>
<path d="M57.4579 122.152C57.4579 122.152 58.8485 118.425 55.6743 116.664C52.5001 114.903 49.7824 116.538 49.8948 117.26C50.0071 117.983 48.9046 120.917 51.9032 122.727C54.9018 124.538 57.465 122.159 57.465 122.159L57.4579 122.152Z" fill="#DD5928"/>
<path d="M73.7925 113.899C73.7925 113.899 77.7392 114.229 78.5538 110.678C79.3684 107.127 77.0581 104.952 76.3979 105.261C75.7378 105.569 72.6268 105.303 71.7139 108.685C70.801 112.074 73.7855 113.899 73.7855 113.899H73.7925Z" fill="#DD5928"/>
<path d="M66.6649 112.158C66.6649 112.158 71.4331 110.776 70.8151 106.25C70.1971 101.731 66.5243 100.208 65.8853 100.86C65.2462 101.513 61.4893 102.594 61.9247 106.973C62.3601 111.351 66.6649 112.158 66.6649 112.158Z" fill="#DD5928"/>
<path d="M60.2039 114.945C60.2039 114.945 63.4764 111.197 60.5339 107.724C57.5915 104.243 53.6871 104.952 53.4975 105.843C53.3078 106.734 50.7235 109.689 53.4342 113.141C56.1449 116.594 60.2039 114.952 60.2039 114.952V114.945Z" fill="#DD5928"/>
<path d="M11.236 0H93.7013L93.8698 4.91216L10.0913 5.44547L11.236 0Z" fill="#DD9C4E"/>
</svg>
