<svg width="58" height="57" viewBox="0 0 58 57" fill="none" xmlns="http://www.w3.org/2000/svg">
<path d="M46.6221 57H12.1193C5.85509 57 0.741455 51.9223 0.741455 45.6707V11.3293C0.75566 5.07767 5.85509 0 12.1193 0H46.6221C52.9006 0 58 5.07767 58 11.3293V45.6849C58 51.9223 52.9006 57.0141 46.6221 57.0141V57ZM12.1193 4.24318C8.19884 4.24318 5.00282 7.42556 5.00282 11.3293V45.6849C5.00282 49.5886 8.19884 52.771 12.1193 52.771H46.6221C50.5426 52.771 53.7386 49.5886 53.7386 45.6849V11.3293C53.7386 7.42556 50.5426 4.24318 46.6221 4.24318H12.1193Z" fill="#023F6F"/>
<path d="M28.2983 15.6715C26.3807 16.6474 24.9176 18.4154 24.0938 20.3956C23.2699 22.3757 23.071 24.5963 23.2841 26.732C23.3977 27.8777 23.4972 29.3062 22.4887 29.872C21.7926 30.268 20.9261 29.9993 20.1165 29.9993C17.9148 29.9851 16.0966 32.2906 16.3665 34.4688C16.6222 36.6469 18.625 38.4008 20.8125 38.7261C21.7784 38.8675 22.9148 38.8251 23.554 39.5747C23.9943 40.0839 24.0511 40.7911 24.0796 41.4559C24.2358 44.9353 24.1222 48.443 23.7386 51.9082C23.6534 52.672 23.5966 53.5489 24.1648 54.0722C24.5199 54.3975 25.0313 54.4683 25.5142 54.5248C27.3182 54.7511 29.1364 54.9916 30.9404 55.2179C31.5796 55.3028 32.2898 55.3593 32.7727 54.9209C33.2273 54.5107 33.2699 53.8176 33.2699 53.2095C33.2983 48.9238 33.3125 44.6382 33.3409 40.3526C33.3409 39.9707 33.3409 39.5464 33.5682 39.2211C33.9375 38.6554 34.733 38.5846 35.4006 38.4573C37.3608 38.1038 39.1648 36.6328 39.5767 34.6951C39.9886 32.7573 38.696 30.5226 36.7358 30.1832C35.6989 30.0134 34.5483 30.3105 33.6676 29.7305C32.6591 29.0516 32.6307 27.609 32.7159 26.4067C32.8296 24.865 33.1705 23.0122 34.6193 22.4889C35.9262 22.008 37.446 22.9415 38.7386 22.4464C40.1165 21.9231 40.4432 20.1551 40.4716 18.6983C40.5 16.0109 39.6762 14.1581 36.8921 14.5966C33.9659 15.0633 31.0966 14.2571 28.2983 15.6856V15.6715Z" fill="#023F6F"/>
</svg>
