<svg width="58" height="57" viewBox="0 0 58 57" fill="none" xmlns="http://www.w3.org/2000/svg">
<path d="M51.1506 55.7129C49.5455 56.5474 47.7415 57 45.8807 57H11.3778C8.33807 57 5.48295 55.8261 3.33807 53.6903C1.17898 51.5404 0 48.6975 0 45.6849V11.3293C0 5.07767 5.09943 0 11.3778 0H45.8807C48.9205 0 51.7756 1.17395 53.9205 3.30968C56.0653 5.44541 57.2443 8.28834 57.2443 11.3151V45.6707C57.2443 48.6975 56.0653 51.5405 53.9205 53.6762C53.0966 54.4965 52.1591 55.1896 51.1506 55.7129ZM45.8807 52.7568C47.7841 52.7568 49.5597 52.0213 50.9091 50.6777C52.2585 49.334 52.9972 47.566 52.9972 45.6707V11.3293C52.9972 9.434 52.2585 7.66601 50.9091 6.32233C49.5597 4.97866 47.7841 4.24318 45.8807 4.24318H11.3778C7.45739 4.24318 4.26136 7.41142 4.26136 11.3293V45.6849C4.26136 47.5802 5 49.3481 6.34943 50.6918C7.69886 52.0355 9.47443 52.771 11.3778 52.771H45.8807V52.7568Z" fill="#023F6F"/>
<path d="M41.6335 44.7938C40.5114 45.3737 39.2614 45.6849 37.9688 45.6849H19.2756C17.1591 45.6849 15.1705 44.8645 13.679 43.3794C12.1875 41.8943 11.3636 39.9141 11.3636 37.8067V19.1933C11.3636 14.8511 14.9148 11.3151 19.2756 11.3151H37.9688C40.0852 11.3151 42.0739 12.1355 43.5653 13.6206C45.0568 15.1057 45.8807 17.0858 45.8807 19.1933V37.8067C45.8807 39.9141 45.0568 41.8943 43.5653 43.3794C42.983 43.9593 42.3438 44.426 41.6335 44.7938ZM17.5852 15.9685C16.4205 16.5767 15.625 17.793 15.625 19.1933V37.8067C15.625 38.7826 16.0085 39.6878 16.6904 40.3809C17.3722 41.0739 18.2955 41.4417 19.2756 41.4417H37.9688C38.9489 41.4417 39.858 41.0598 40.554 40.3809C41.2358 39.702 41.6193 38.7826 41.6193 37.8067V19.1933C41.6193 18.2174 41.2358 17.3121 40.554 16.6191C39.858 15.926 38.9489 15.5583 37.9688 15.5583H19.2756C18.6648 15.5583 18.0966 15.7139 17.5852 15.9685Z" fill="#023F6F"/>
<path d="M32.6704 36.2085C31.4631 36.8449 30.0852 37.1985 28.6221 37.1985C23.8068 37.1985 19.8864 33.2948 19.8864 28.5C19.8864 23.7052 23.8068 19.8015 28.6221 19.8015C33.4375 19.8015 37.3579 23.7052 37.3579 28.5C37.3579 31.8521 35.4545 34.7516 32.6704 36.2085ZM24.1477 28.5C24.1477 30.9611 26.1506 32.9554 28.6221 32.9554C31.0937 32.9554 33.0966 30.9611 33.0966 28.5C33.0966 27.3119 32.6278 26.1946 31.7898 25.3459C30.9517 24.4973 29.8153 24.0447 28.6221 24.0447C26.1506 24.0447 24.1477 26.039 24.1477 28.5Z" fill="#023F6F"/>
<path d="M37.5568 21.7109C38.8434 21.7109 39.8864 20.6724 39.8864 19.3913C39.8864 18.1102 38.8434 17.0717 37.5568 17.0717C36.2703 17.0717 35.2273 18.1102 35.2273 19.3913C35.2273 20.6724 36.2703 21.7109 37.5568 21.7109Z" fill="#023F6F"/>
</svg>
