<svg width="39" height="39" viewBox="0 0 39 39" fill="none" xmlns="http://www.w3.org/2000/svg">
<path d="M19.03 38.3295C8.52 38.3295 0 29.8095 0 19.2995C0 8.78953 8.52 0.269531 19.03 0.269531C29.54 0.269531 38.06 8.78953 38.06 19.2995C38.06 29.8095 29.54 38.3295 19.03 38.3295Z" fill="white"/>
<path d="M19.0301 10.7395C21.8201 10.7395 22.1501 10.7495 23.2501 10.7995C24.2701 10.8495 24.8201 11.0195 25.1901 11.1595C25.6801 11.3495 26.0201 11.5795 26.3901 11.9395C26.7601 12.3095 26.9801 12.6495 27.1701 13.1395C27.3101 13.5095 27.4801 14.0595 27.5301 15.0795C27.5801 16.1795 27.5901 16.5095 27.5901 19.2995C27.5901 22.0895 27.5801 22.4195 27.5301 23.5195C27.4801 24.5395 27.3101 25.0895 27.1701 25.4595C26.9801 25.9495 26.7501 26.2895 26.3901 26.6595C26.0301 27.0195 25.6801 27.2495 25.1901 27.4395C24.8201 27.5795 24.2701 27.7495 23.2501 27.7995C22.1501 27.8495 21.8201 27.8595 19.0301 27.8595C16.2401 27.8595 15.9101 27.8495 14.8101 27.7995C13.7901 27.7495 13.2401 27.5795 12.8701 27.4395C12.3801 27.2495 12.0401 27.0195 11.6701 26.6595C11.3101 26.2895 11.0801 25.9495 10.8901 25.4595C10.7501 25.0895 10.5801 24.5395 10.5301 23.5195C10.4801 22.4195 10.4701 22.0895 10.4701 19.2995C10.4701 16.5095 10.4801 16.1795 10.5301 15.0795C10.5801 14.0595 10.7501 13.5095 10.8901 13.1395C11.0801 12.6495 11.3101 12.3095 11.6701 11.9395C12.0401 11.5695 12.3801 11.3495 12.8701 11.1595C13.2401 11.0195 13.7901 10.8495 14.8101 10.7995C15.9101 10.7495 16.2401 10.7395 19.0301 10.7395ZM19.0301 8.8595C16.2001 8.8595 15.8401 8.8695 14.7301 8.9195C13.6201 8.9695 12.8601 9.1495 12.2001 9.4095C11.5101 9.6795 10.9301 10.0295 10.3501 10.6095C9.77011 11.1895 9.41011 11.7695 9.15011 12.4595C8.89011 13.1195 8.72011 13.8795 8.67011 14.9895C8.62011 16.0995 8.61011 16.4595 8.61011 19.2895C8.61011 22.1195 8.62011 22.4795 8.67011 23.5895C8.72011 24.6995 8.90011 25.4595 9.15011 26.1195C9.42011 26.8095 9.77011 27.3895 10.3501 27.9695C10.9301 28.5495 11.5101 28.9095 12.2001 29.1695C12.8601 29.4295 13.6201 29.5995 14.7301 29.6595C15.8401 29.7095 16.2001 29.7195 19.0301 29.7195C21.8601 29.7195 22.2201 29.7095 23.3301 29.6595C24.4401 29.6095 25.2001 29.4295 25.8601 29.1695C26.5501 28.8995 27.1301 28.5495 27.7101 27.9695C28.2901 27.3895 28.6501 26.8095 28.9101 26.1195C29.1701 25.4595 29.3401 24.6995 29.4001 23.5895C29.4501 22.4795 29.4601 22.1195 29.4601 19.2895C29.4601 16.4595 29.4501 16.0995 29.4001 14.9895C29.3501 13.8795 29.1701 13.1195 28.9101 12.4595C28.6401 11.7695 28.2901 11.1895 27.7101 10.6095C27.1301 10.0295 26.5501 9.6695 25.8601 9.4095C25.2001 9.1495 24.4401 8.9795 23.3301 8.9195C22.2201 8.8695 21.8601 8.8595 19.0301 8.8595Z" fill="#023D69"/>
<path d="M19.0302 13.9395C16.0702 13.9395 13.6702 16.3395 13.6702 19.2995C13.6702 22.2595 16.0702 24.6595 19.0302 24.6595C21.9902 24.6595 24.3902 22.2595 24.3902 19.2995C24.3902 16.3395 21.9902 13.9395 19.0302 13.9395ZM19.0302 22.7795C17.1102 22.7795 15.5502 21.2195 15.5502 19.2995C15.5502 17.3795 17.1102 15.8195 19.0302 15.8195C20.9502 15.8195 22.5102 17.3795 22.5102 19.2995C22.5102 21.2195 20.9502 22.7795 19.0302 22.7795Z" fill="#023D69"/>
<path d="M25.8501 13.7286C25.8501 14.4186 25.2901 14.9786 24.6001 14.9786C23.9101 14.9786 23.3501 14.4186 23.3501 13.7286C23.3501 13.0386 23.9101 12.4786 24.6001 12.4786C25.2901 12.4786 25.8501 13.0386 25.8501 13.7286Z" fill="#023D69"/>
</svg>
