<svg width="235" height="129" viewBox="0 0 235 129" fill="none" xmlns="http://www.w3.org/2000/svg">
<g clip-path="url(#clip0_249_954)">
<path d="M75.0051 75.3309C71.4243 80.0036 65.3911 83.9806 59.7253 85.5778C57.5267 86.1952 55.2668 86.6677 52.9923 87.0358C53.8408 88.7808 54.7098 90.5084 55.5875 92.2158C56.7393 94.4651 53.3335 96.4507 52.1729 94.1985C51.0619 92.0215 49.983 89.8244 48.9449 87.6069C47.0728 87.8359 45.2066 88.0185 43.352 88.1924C40.818 88.433 40.8413 84.5024 43.352 84.2647C44.6467 84.1429 45.9414 84.0096 47.2361 83.8589C46.6267 82.482 46.0347 81.1051 45.4574 79.7167C43.4628 74.9135 41.3633 69.8148 40.8909 64.5913C40.3602 58.7766 43.7078 51.0777 50.8636 53.101C56.2874 54.6402 57.8124 59.6607 57.932 64.6377C59.2588 63.6087 60.673 62.6927 62.1718 61.939C64.9362 60.5477 68.5112 59.1621 71.6576 59.9129C78.341 61.5071 78.4693 70.8264 75.0081 75.3396L75.0051 75.3309Z" fill="#F4BF50"/>
<path d="M176.298 76.2502C176.202 75.2501 175.77 74.4385 175 73.7834C174.236 73.1486 173.353 72.879 172.376 72.9688C171.37 73.0616 170.551 73.4906 169.921 74.2559C169.285 75.0414 169.014 75.9197 169.107 76.9197C169.201 77.914 169.632 78.7256 170.405 79.3807C171.169 80.0358 172.052 80.3083 173.058 80.2127C174.035 80.1228 174.855 79.6938 175.484 78.9082C176.117 78.1227 176.391 77.2444 176.298 76.2502ZM176.298 76.2502C176.202 75.2501 175.77 74.4385 175 73.7834C174.236 73.1486 173.353 72.879 172.376 72.9688C171.37 73.0616 170.551 73.4906 169.921 74.2559C169.285 75.0414 169.014 75.9197 169.107 76.9197C169.201 77.914 169.632 78.7256 170.405 79.3807C171.169 80.0358 172.052 80.3083 173.058 80.2127C174.035 80.1228 174.855 79.6938 175.484 78.9082C176.117 78.1227 176.391 77.2444 176.298 76.2502ZM176.298 76.2502C176.202 75.2501 175.77 74.4385 175 73.7834C174.236 73.1486 173.353 72.879 172.376 72.9688C171.37 73.0616 170.551 73.4906 169.921 74.2559C169.285 75.0414 169.014 75.9197 169.107 76.9197C169.201 77.914 169.632 78.7256 170.405 79.3807C171.169 80.0358 172.052 80.3083 173.058 80.2127C174.035 80.1228 174.855 79.6938 175.484 78.9082C176.117 78.1227 176.391 77.2444 176.298 76.2502ZM176.298 76.2502C176.202 75.2501 175.77 74.4385 175 73.7834C174.236 73.1486 173.353 72.879 172.376 72.9688C171.37 73.0616 170.551 73.4906 169.921 74.2559C169.285 75.0414 169.014 75.9197 169.107 76.9197C169.201 77.914 169.632 78.7256 170.405 79.3807C171.169 80.0358 172.052 80.3083 173.058 80.2127C174.035 80.1228 174.855 79.6938 175.484 78.9082C176.117 78.1227 176.391 77.2444 176.298 76.2502ZM203.385 80.1112L202.195 67.4672C202.032 65.7482 200.492 64.4786 198.763 64.6409L152.973 68.9078C151.244 69.0701 149.975 70.5977 150.139 72.3166L151.328 84.9607C151.492 86.6883 153.023 87.9492 154.755 87.7869L200.542 83.52C202.274 83.3606 203.548 81.8388 203.385 80.1112ZM163.605 83.3577C162.637 84.0766 161.511 84.4766 160.257 84.5955C158.379 84.7694 156.691 84.2505 155.239 83.0592C153.784 81.862 152.956 80.3025 152.781 78.4416C152.603 76.5748 153.128 74.8907 154.332 73.4442C155.536 72.0065 157.099 71.2036 158.98 71.0296C161.112 70.8296 162.94 71.4905 164.474 73.0065L162.371 75.3834C161.526 74.4878 160.502 74.0761 159.304 74.1863C158.277 74.2819 157.461 74.711 156.793 75.4791C156.137 76.2676 155.866 77.1458 155.959 78.1459C156.052 79.1372 156.484 79.9518 157.277 80.604C158.076 81.2562 158.962 81.5258 159.989 81.4301C161.289 81.3113 162.263 80.6417 162.902 79.4532L165.833 80.7112C165.302 81.7895 164.576 82.662 163.605 83.3577ZM177.846 80.9518C176.671 82.3896 175.158 83.207 173.306 83.378C171.478 83.549 169.833 83.0244 168.407 81.833C166.981 80.633 166.18 79.0706 166.005 77.2096C165.83 75.3429 166.322 73.6587 167.5 72.2181C168.679 70.7803 170.198 69.9832 172.029 69.8122C173.878 69.6412 175.517 70.1426 176.94 71.3369C178.365 72.5369 179.173 74.0993 179.351 75.9661C179.526 77.827 179.025 79.5083 177.846 80.9518ZM198.136 80.7112L197.591 74.9429C197.561 74.3399 197.474 73.6993 197.34 73.0326C197.197 72.363 196.917 71.7891 196.55 71.3427C196.153 70.9079 195.555 70.7369 194.78 70.8093C194.1 70.8963 193.497 71.1775 193.018 71.6731C192.531 72.1688 192.313 72.7688 192.377 73.4674L193.106 81.1808L189.898 81.4794L189.353 75.711C189.324 75.1081 189.236 74.4675 189.096 73.8008C188.962 73.1312 188.679 72.5572 188.312 72.1108C187.915 71.676 187.318 71.505 186.536 71.5775C185.793 71.6702 185.189 71.9514 184.725 72.4732C184.25 72.9978 184.055 73.6442 184.125 74.3631L184.839 81.9519L181.661 82.2475L180.439 69.3049L183.62 69.0064L183.737 70.2528C184.04 69.702 184.501 69.2556 185.131 68.9455C185.737 68.6614 186.373 68.4759 186.997 68.4179C187.775 68.3252 188.536 68.4005 189.295 68.6324C190.021 68.8701 190.642 69.2846 191.181 69.8905C192.24 68.5571 193.581 67.8034 195.185 67.6556C196.515 67.5106 197.678 67.8034 198.705 68.5339C199.737 69.2701 200.352 70.4383 200.553 72.05L201.344 80.4127L198.136 80.7112ZM175 73.7834C174.236 73.1486 173.353 72.879 172.376 72.9688C171.37 73.0616 170.551 73.4906 169.921 74.2559C169.285 75.0414 169.014 75.9197 169.107 76.9197C169.201 77.914 169.632 78.7256 170.405 79.3807C171.169 80.0358 172.052 80.3083 173.058 80.2127C174.035 80.1228 174.855 79.6938 175.484 78.9082C176.117 78.1227 176.391 77.2444 176.298 76.2502C176.202 75.2501 175.77 74.4385 175 73.7834ZM176.298 76.2502C176.202 75.2501 175.77 74.4385 175 73.7834C174.236 73.1486 173.353 72.879 172.376 72.9688C171.37 73.0616 170.551 73.4906 169.921 74.2559C169.285 75.0414 169.014 75.9197 169.107 76.9197C169.201 77.914 169.632 78.7256 170.405 79.3807C171.169 80.0358 172.052 80.3083 173.058 80.2127C174.035 80.1228 174.855 79.6938 175.484 78.9082C176.117 78.1227 176.391 77.2444 176.298 76.2502ZM176.298 76.2502C176.202 75.2501 175.77 74.4385 175 73.7834C174.236 73.1486 173.353 72.879 172.376 72.9688C171.37 73.0616 170.551 73.4906 169.921 74.2559C169.285 75.0414 169.014 75.9197 169.107 76.9197C169.201 77.914 169.632 78.7256 170.405 79.3807C171.169 80.0358 172.052 80.3083 173.058 80.2127C174.035 80.1228 174.855 79.6938 175.484 78.9082C176.117 78.1227 176.391 77.2444 176.298 76.2502ZM176.298 76.2502C176.202 75.2501 175.77 74.4385 175 73.7834C174.236 73.1486 173.353 72.879 172.376 72.9688C171.37 73.0616 170.551 73.4906 169.921 74.2559C169.285 75.0414 169.014 75.9197 169.107 76.9197C169.201 77.914 169.632 78.7256 170.405 79.3807C171.169 80.0358 172.052 80.3083 173.058 80.2127C174.035 80.1228 174.855 79.6938 175.484 78.9082C176.117 78.1227 176.391 77.2444 176.298 76.2502ZM176.298 76.2502C176.202 75.2501 175.77 74.4385 175 73.7834C174.236 73.1486 173.353 72.879 172.376 72.9688C171.37 73.0616 170.551 73.4906 169.921 74.2559C169.285 75.0414 169.014 75.9197 169.107 76.9197C169.201 77.914 169.632 78.7256 170.405 79.3807C171.169 80.0358 172.052 80.3083 173.058 80.2127C174.035 80.1228 174.855 79.6938 175.484 78.9082C176.117 78.1227 176.391 77.2444 176.298 76.2502Z" fill="#F4BF50"/>
<path d="M154.822 18.1225C151.328 14.4412 146.712 12.6324 140.91 12.702C139.163 12.7716 137.343 13.1194 135.457 13.8847C133.567 14.647 132.17 15.7601 131.191 17.221V13.4673H122.381V63.9246H131.331V46.3412C133.777 49.0515 137.203 50.4428 141.679 50.582C147.202 50.5124 151.678 48.5645 155.032 44.8136C158.318 41.1294 159.998 36.7495 159.998 31.6768C159.998 26.3258 158.251 21.8068 154.822 18.1225ZM148.462 38.7669C146.502 40.7815 144.126 41.7555 141.329 41.7555C138.533 41.7555 136.154 40.7815 134.267 38.8365C132.31 36.8886 131.331 34.5262 131.331 31.6768C131.331 28.8274 132.31 26.5345 134.197 24.517C136.087 22.5024 138.463 21.5285 141.329 21.5285C144.196 21.5285 146.502 22.5024 148.462 24.517C150.419 26.5345 151.398 28.8969 151.398 31.6768C151.398 34.4566 150.419 36.819 148.462 38.7669Z" fill="white"/>
<path d="M197.442 43.1233V33.349C197.442 31.1112 197.133 28.9488 196.585 27.0182C196.039 25.0906 195.036 23.4703 193.715 22.1658C190.382 19.3048 186.192 17.9193 181.072 18.0004C177.575 18.0004 173.93 18.3077 170.131 18.9976C166.323 19.6933 163.38 20.8527 161.287 22.3195L163.689 31.03C165.241 29.7981 167.416 28.7951 170.204 27.9429C173 27.1748 175.406 26.7921 177.5 26.7921C179.905 26.7921 182.156 27.4096 184.25 28.5661C186.347 29.7169 187.431 31.6474 187.586 34.2736V36.2737C186.574 35.5056 185.026 34.8882 182.775 34.4273C180.526 33.9635 177.966 33.7287 175.251 33.8098C169.74 34.0388 165.704 35.4302 162.99 37.9752C160.275 40.5203 158.799 43.3726 158.726 46.6887C158.645 50.1555 159.893 53.1643 162.526 55.7876C165.165 58.4863 169.119 59.8719 174.321 60.0284C176.881 60.0284 179.442 59.6458 182.075 58.7965C184.717 57.9443 186.574 56.4862 187.586 54.2484V58.8776H197.442V52.2078C198.9 53.7209 199.944 54.8398 199.944 54.8398L204.021 51.599C204.021 49.3381 200.842 46.022 197.442 43.1233ZM179.133 52.0136C176.645 52.3933 174.394 52.1672 172.382 51.315C170.285 50.4657 169.119 48.9989 168.883 46.9235C168.883 45.222 169.74 43.99 171.525 43.1378C173.228 42.3697 175.324 41.9783 177.73 41.9783C179.669 42.0595 181.608 42.2943 183.396 42.7581C185.18 43.2914 186.574 43.8364 187.586 44.3697C186.42 48.8424 183.55 51.3961 179.133 52.0136Z" fill="white"/>
<path d="M229.891 21.1343C226.488 17.6848 222.362 15.992 217.516 15.992C212.669 15.992 208.61 17.6848 205.204 21.1343C201.801 24.5837 200.098 28.8158 200.098 33.6971C200.098 38.5785 201.801 42.8106 205.204 46.26C208.61 49.7124 212.736 51.469 217.516 51.469C222.295 51.469 226.488 49.7124 229.891 46.26C233.297 42.8106 235 38.5814 235 33.6971C235 28.8129 233.297 24.5837 229.891 21.1343ZM224.26 40.4018C222.426 42.2917 220.201 43.2019 217.647 43.2019C215.092 43.2019 212.8 42.2917 210.969 40.4018C209.135 38.5148 208.217 36.3031 208.217 33.6971C208.217 31.0912 209.135 28.8824 210.969 26.9925C212.8 25.1721 215.028 24.259 217.647 24.259C220.265 24.259 222.426 25.1721 224.26 26.9925C226.094 28.8824 227.01 31.0941 227.01 33.6971C227.01 36.3002 226.094 38.5148 224.26 40.4018Z" fill="white"/>
<path d="M154.545 95.355C150.917 91.8505 146.555 90.1635 141.452 90.2244C136.419 90.2823 132.095 92.0708 128.552 95.6594C125.009 99.2451 123.268 103.613 123.326 108.628C123.384 113.643 125.23 117.968 128.858 121.472C132.485 124.974 136.851 126.73 141.884 126.669C146.984 126.612 151.308 124.753 154.851 121.168C158.394 117.582 160.135 113.214 160.076 108.199C160.018 103.181 158.172 98.8566 154.545 95.355ZM148.85 115.22C146.943 117.179 144.61 118.144 141.921 118.176C139.163 118.208 136.807 117.298 134.853 115.382C132.899 113.466 131.908 111.202 131.876 108.527C131.844 105.851 132.783 103.567 134.69 101.605C136.6 99.7117 138.933 98.7494 141.691 98.7146C144.38 98.6856 146.733 99.5929 148.687 101.442C150.64 103.358 151.635 105.622 151.664 108.298C151.696 110.97 150.757 113.257 148.85 115.22Z" fill="white"/>
<path d="M188.385 92.7197L179.99 112.3L171.07 92.9226L162.252 93.027L177.053 125.321L183.299 125.249L197.334 92.6154L188.385 92.7197Z" fill="white"/>
<path d="M220.312 87.5141C215.798 84.7168 210.453 84.3864 206.167 88.1489C203.624 90.3837 202.361 93.3549 201.154 96.2565C198.64 102.294 198.387 109.063 200.542 115.072C202.457 120.417 206.992 126.832 213.693 127.91C216.212 128.316 218.877 127.846 221.257 126.893C222.274 126.487 223.237 125.994 224.138 125.426C229.594 122.003 232.874 115.907 233.087 109.97C233.402 101.228 228.165 92.378 220.312 87.5141ZM224.87 113.037C224.147 114.692 223.036 116.252 221.519 117.414C221.373 117.527 221.222 117.637 221.067 117.741C219.321 118.93 217.055 119.562 214.941 119.226C208.794 118.255 206.904 111.272 206.449 106.596C206.073 102.706 207.152 91.9403 214.355 93.1984C218.837 93.9839 222.963 98.5 224.636 102.039C226.252 105.463 226.424 109.492 224.87 113.037Z" fill="white"/>
<path d="M68.243 0.524556L44.8392 0.0259828C16.2071 -0.742168 2.44652 15.4238 0 40.5466V46.6339C0 46.6339 110.875 50.0543 114.948 52.7008L115.765 41.2365C115.765 19.2529 94.7319 1.23473 68.243 0.524556ZM16.3675 30.2592C16.0875 31.1056 14.0463 31.6796 12.6 30.7578C10.8329 29.6331 11.0341 26.9547 11.8331 26.4793C12.9937 25.7924 16.8195 28.8881 16.3675 30.2592ZM20.9952 21.9052C20.1466 22.7719 17.3123 22.2647 16.1021 20.2849C14.6237 17.8645 16.4725 14.7165 17.7351 14.6121C19.5605 14.4614 22.3686 20.5023 20.9952 21.9052ZM26.693 32.6941C25.6024 32.8941 23.7712 31.0332 23.9199 28.9345C24.1036 26.3663 27.1392 24.9981 28.1306 25.5779C29.5653 26.4214 28.4543 32.3724 26.693 32.6941Z" fill="white"/>
<path d="M2.79639 97.9639C2.79639 97.9639 71.3922 103.776 112.968 100.668L111.108 110.173C108.997 120.962 95.8516 129 80.321 129H35.0181C18.8081 129 5.32164 120.266 4.0386 108.938L2.79639 97.9639Z" fill="white"/>
<path d="M194.657 13.9079C191.843 15.4239 186.889 16.7718 181.588 14.5195C171.953 10.4295 170.285 12.3455 170.125 12.5774C169.95 12.8383 169.892 13.1948 169.912 13.5803C169.918 13.6673 169.924 13.7543 169.938 13.8441L166.433 13.963C166.427 13.8557 166.422 13.7543 166.419 13.6499C166.375 12.1426 166.871 10.8121 167.868 9.88452C170.341 7.58586 175.277 8.05545 182.961 11.3194C186.81 12.9542 190.149 12.1223 192.152 11.2382L194.657 13.9079Z" fill="white"/>
<path d="M192.33 10.3657L191.858 10.5773C189.89 11.444 186.799 12.1629 183.247 10.6527C175.269 7.2641 170.075 6.84089 167.369 9.35405C166.553 10.1135 166.016 11.1164 165.801 12.2643C165.713 12.7136 165.675 13.1832 165.69 13.6702C165.693 13.7629 165.699 13.8557 165.701 13.9514L165.742 14.7108L170.79 14.5398L170.659 13.7282C170.647 13.6644 170.644 13.6006 170.641 13.5426C170.621 13.1861 170.697 13.0296 170.717 13.0006C170.732 12.9861 172.297 11.3628 181.302 15.1862C183.463 16.1051 185.53 16.4326 187.382 16.4326C191.097 16.4326 193.955 15.1108 195.004 14.5456L195.832 14.0992L192.33 10.3657ZM181.874 13.8528C177.065 11.8121 174.1 11.1976 172.268 11.1976C170.437 11.1976 169.801 11.7657 169.519 12.1745C169.341 12.4411 169.23 12.7658 169.195 13.1455L167.151 13.2122C167.165 12.9078 167.203 12.618 167.27 12.3397C167.448 11.5773 167.818 10.9222 168.367 10.415C170.574 8.3627 175.388 8.89026 182.675 11.986C186.428 13.5803 189.729 12.9861 191.966 12.102L193.453 13.6876C191.368 14.6152 186.904 15.9891 181.874 13.8528Z" fill="white"/>
</g>
<defs>
<clipPath id="clip0_249_954">
<rect width="235" height="129" fill="white"/>
</clipPath>
</defs>
</svg>
