<svg width="58" height="57" viewBox="0 0 58 57" fill="none" xmlns="http://www.w3.org/2000/svg">
<path d="M52.3666 55.232C50.5626 56.3777 48.4603 57 46.2586 57H11.7558C5.49157 57 0.392134 51.9223 0.37793 45.6707V11.3293C0.37793 5.07767 5.47736 0 11.7416 0H46.2444C52.5086 0 57.6222 5.07767 57.6222 11.3293V45.6849C57.6222 48.7117 56.4433 51.5546 54.2984 53.6903C53.7018 54.2844 53.0626 54.7935 52.3666 55.232ZM7.92055 5.36055C5.94611 6.61936 4.62509 8.82581 4.62509 11.3293V45.6849C4.62509 49.5886 7.82111 52.771 11.7416 52.771H46.2444C48.1478 52.771 49.9376 52.0355 51.2728 50.6918C52.6222 49.3481 53.3609 47.5802 53.3609 45.6849V11.3293C53.3609 7.42556 50.1649 4.24318 46.2444 4.24318H11.7416C10.3353 4.24318 9.0285 4.65335 7.92055 5.36055Z" fill="#023F6F"/>
<path d="M39.5256 41.9791C36.9262 43.634 33.8438 44.5958 30.5483 44.5958C27.5228 44.5958 24.5824 43.7896 22.0114 42.262L16.5285 43.7471C15.7614 43.9593 14.9233 43.7188 14.3836 43.1248C13.8438 42.5307 13.6875 41.6963 13.9716 40.9466L15.8893 35.9255C14.5398 33.4786 13.8296 30.7347 13.8296 27.9484C13.8296 23.5072 15.5625 19.3206 18.7302 16.1806C21.8978 13.0407 26.0881 11.301 30.5483 11.301C39.7671 11.301 47.2529 18.769 47.2671 27.9342C47.2671 33.8181 44.1847 39.0089 39.5256 41.965V41.9791ZM19.4546 38.5563L21.7983 37.9198C22.3949 37.7501 23.0483 37.8632 23.5597 38.2168C25.6194 39.6171 28.0483 40.3526 30.5483 40.3526C37.4091 40.3526 42.9915 34.794 42.9915 27.9484C42.9915 21.1168 37.4091 15.5583 30.5341 15.5583C27.2103 15.5583 24.0853 16.8454 21.7273 19.1933C19.3694 21.5412 18.0767 24.6528 18.0767 27.9625C18.0767 30.3104 18.7586 32.6017 20.0228 34.6101C20.3779 35.1759 20.4631 35.8831 20.2216 36.5054L19.4262 38.5704L19.4546 38.5563Z" fill="#023F6F"/>
<path d="M23.4603 25.6146C23.8438 27.5241 25.1649 29.1365 26.6279 30.4236C28.0768 31.6965 29.7103 33.5777 31.4717 34.3697C32.7359 34.9355 34.1421 34.5536 35.5058 34.299C36.3296 34.1434 37.1393 33.6908 37.5228 32.9553C38.091 31.8379 37.5228 30.4518 36.7274 29.4759C36.4433 29.1365 36.1308 28.8111 35.733 28.6131C35.3353 28.4151 34.8382 28.3727 34.4546 28.5848C33.8722 28.9102 33.7302 29.6881 33.2472 30.1407C32.6791 30.6781 31.7558 30.664 31.0597 30.3246C30.3637 29.9851 29.8382 29.3769 29.3268 28.797C28.574 27.9201 27.7501 26.831 28.0768 25.7136C28.1762 25.36 28.3893 25.0347 28.4745 24.667C28.787 23.3233 26.9546 20.0844 25.3211 20.8057C23.6876 21.527 23.1194 24.0022 23.4461 25.6146H23.4603Z" fill="#023F6F"/>
</svg>
