<svg width="39" height="39" viewBox="0 0 39 39" fill="none" xmlns="http://www.w3.org/2000/svg">
<path d="M38.7399 19.2995C38.7399 8.78955 30.2199 0.269531 19.7099 0.269531C9.19995 0.269531 0.679932 8.78955 0.679932 19.2995C0.679932 29.8095 9.19995 38.3295 19.7099 38.3295C30.2199 38.3295 38.7399 29.8095 38.7399 19.2995Z" fill="white"/>
<path fill-rule="evenodd" clip-rule="evenodd" d="M30.14 18.7695C30 13.2695 25.47 8.8595 19.9 8.8595C14.33 8.8595 9.90003 13.1695 9.66003 18.5895C9.66003 18.7395 9.66003 18.8895 9.66003 19.0395C9.66003 20.9595 10.2 22.7595 11.13 24.2895L9.28003 29.7495L14.96 27.9495C16.43 28.7595 18.12 29.2195 19.91 29.2195C25.57 29.2195 30.16 24.6695 30.16 19.0495C30.16 18.9595 30.16 18.8795 30.16 18.7895L30.14 18.7695ZM19.9 27.5795C18.15 27.5795 16.52 27.0595 15.16 26.1595L11.85 27.2195L12.92 24.0395C11.89 22.6295 11.28 20.8995 11.28 19.0295C11.28 18.7495 11.29 18.4695 11.32 18.1995C11.74 13.8695 15.43 10.4795 19.89 10.4795C24.35 10.4795 28.13 13.9595 28.48 18.3595C28.5 18.5795 28.51 18.7995 28.51 19.0295C28.51 23.7495 24.64 27.5795 19.89 27.5795H19.9Z" fill="#023D69"/>
<path fill-rule="evenodd" clip-rule="evenodd" d="M24.6001 21.0795C24.3501 20.9595 23.1101 20.3495 22.8801 20.2695C22.6501 20.1795 22.4801 20.1495 22.3101 20.3895C22.1401 20.6395 21.6601 21.1995 21.5101 21.3595C21.3601 21.5295 21.2201 21.5495 20.9601 21.4195C20.7101 21.2995 19.9001 21.0395 18.9401 20.1795C18.2001 19.5195 17.6901 18.7095 17.5401 18.4595C17.4001 18.2095 17.5301 18.0795 17.6501 17.9495C17.7701 17.8395 17.9001 17.6595 18.0301 17.5095C18.0601 17.4695 18.0901 17.4295 18.1201 17.3895C18.1801 17.2995 18.2201 17.2095 18.2801 17.0895C18.3701 16.9195 18.3201 16.7795 18.2601 16.6495C18.2001 16.5195 17.6901 15.2995 17.4801 14.7995C17.2701 14.2995 17.0601 14.3895 16.9101 14.3895C16.7601 14.3895 16.6001 14.3695 16.4301 14.3695C16.2601 14.3695 15.9901 14.4295 15.7601 14.6795C15.5301 14.9295 14.8801 15.5295 14.8801 16.7595C14.8801 17.0495 14.9301 17.3395 15.0101 17.6095C15.2601 18.4895 15.8101 19.2095 15.9101 19.3395C16.0301 19.4995 17.6501 22.0995 20.2001 23.1095C22.7601 24.0995 22.7601 23.7695 23.2201 23.7295C23.6801 23.6895 24.7101 23.1295 24.9101 22.5395C25.1201 21.9595 25.1201 21.4595 25.0601 21.3495C25.0001 21.2495 24.8301 21.1895 24.5801 21.0595L24.6001 21.0795Z" fill="#023D69"/>
</svg>
