<svg width="77" height="77" viewBox="0 0 77 77" fill="none" xmlns="http://www.w3.org/2000/svg">
<g clip-path="url(#clip0_164_110)">
<path d="M38.5 77C31.7627 77 25.1525 75.2168 19.2981 71.8325L4.29801 77L7.3798 61.1162C2.54582 54.492 0 46.703 0 38.5017C0 17.2718 17.2711 0 38.5 0C59.7289 0 77 17.2718 77 38.5017C77 59.7316 59.7324 77 38.5 77Z" fill="#32BA46"/>
<path d="M38.5 63.6519C34.0989 63.6519 29.7803 62.4872 25.9564 60.2745L16.1579 63.6519L18.1712 53.2723C15.0138 48.9466 13.351 43.8547 13.351 38.4983C13.351 24.6279 24.6337 13.3447 38.5034 13.3447C52.3732 13.3447 63.6559 24.6279 63.6559 38.4983C63.6559 52.3687 52.3732 63.6519 38.5034 63.6519H38.5ZM26.4065 56.1618L27.1657 56.636C30.5808 58.7765 34.5009 59.9103 38.5 59.9103C50.3083 59.9103 59.911 50.3072 59.911 38.4983C59.911 26.6894 50.3083 17.0898 38.5 17.0898C26.6916 17.0898 17.0924 26.6929 17.0924 38.4983C17.0924 43.3016 18.6659 47.854 21.6412 51.6575L22.1669 52.3309L21.0674 58L26.4099 56.1584L26.4065 56.1618Z" fill="white"/>
<path d="M25.8018 28.8371C25.8018 28.8371 27.2791 26.2568 28.4816 26.109C29.6841 25.9613 31.2335 25.9613 31.6493 26.7481C32.0684 27.5349 33.934 32.1045 33.934 32.1045C33.934 32.1045 34.2535 32.8913 33.7622 33.6541C33.2709 34.4168 32.1646 35.5197 32.1646 35.5197C32.1646 35.5197 31.5496 36.3065 32.1646 37.1414C32.7796 37.9763 33.7313 39.5121 35.7033 41.4809C37.672 43.453 41.4512 44.8548 41.4512 44.8548C41.4512 44.8548 41.9906 44.927 42.3376 44.5834C42.6812 44.2398 44.5502 41.9069 44.5502 41.9069C44.5502 41.9069 45.148 41.1338 46.1477 41.5874C47.1441 42.0409 51.4558 44.1917 51.4558 44.1917C51.4558 44.1917 51.9609 44.3772 51.9609 45.1366C51.9609 45.8959 51.6517 47.7615 51.0229 48.3903C50.3942 49.0225 48.5493 50.9637 45.7801 50.9637C43.011 50.9637 36.418 48.7098 32.9067 45.1984C29.392 41.6836 26.2725 38.1206 25.5372 34.8772C24.7986 31.6338 24.8982 30.1667 25.8052 28.8336L25.8018 28.8371Z" fill="white"/>
</g>
<defs>
<clipPath id="clip0_164_110">
<rect width="77" height="77" fill="white"/>
</clipPath>
</defs>
</svg>
